<?xml version="1.0" encoding="utf-8" standalone="no"?>
<!DOCTYPE svg PUBLIC "-//W3C//DTD SVG 1.1//EN"
  "http://www.w3.org/Graphics/SVG/1.1/DTD/svg11.dtd">
<svg xmlns:xlink="http://www.w3.org/1999/xlink" width="1152pt" height="1152pt" viewBox="0 0 1152 1152" xmlns="http://www.w3.org/2000/svg" version="1.1">
 <metadata>
  <rdf:RDF xmlns:dc="http://purl.org/dc/elements/1.1/" xmlns:cc="http://creativecommons.org/ns#" xmlns:rdf="http://www.w3.org/1999/02/22-rdf-syntax-ns#">
   <cc:Work>
    <dc:type rdf:resource="http://purl.org/dc/dcmitype/StillImage"/>
    <dc:date>2025-12-21T07:20:31.596137</dc:date>
    <dc:format>image/svg+xml</dc:format>
    <dc:creator>
     <cc:Agent>
      <dc:title>Matplotlib v3.10.7, https://matplotlib.org/</dc:title>
     </cc:Agent>
    </dc:creator>
   </cc:Work>
  </rdf:RDF>
 </metadata>
 <defs>
  <style type="text/css">*{stroke-linejoin: round; stroke-linecap: butt}</style>
 </defs>
 <g id="figure_1">
  <g id="patch_1">
   <path d="M 0 1152 
L 1152 1152 
L 1152 0 
L 0 0 
z
" style="fill: #ffffff"/>
  </g>
  <g id="axes_1">
   <g id="patch_2">
    <path d="M 144 1025.28 
L 1036.8 1025.28 
L 1036.8 138.24 
L 144 138.24 
z
" style="fill: #ffffff"/>
   </g>
   <g id="LineCollection_1">
    <path d="M 959.32562 645.822718 
L 343.157717 897.726511 
" clip-path="url(#pffe7caa103)" style="fill: none; stroke: #808080; stroke-width: 2"/>
    <path d="M 959.32562 645.822718 
L 221.47438 518.564141 
" clip-path="url(#pffe7caa103)" style="fill: none; stroke: #808080; stroke-width: 2"/>
    <path d="M 959.32562 645.822718 
L 582.820359 591.623633 
" clip-path="url(#pffe7caa103)" style="fill: none; stroke: #808080; stroke-width: 2"/>
    <path d="M 959.32562 645.822718 
L 827.118905 280.751853 
" clip-path="url(#pffe7caa103)" style="fill: none; stroke: #808080; stroke-width: 2"/>
    <path d="M 959.32562 645.822718 
L 723.0503 948.305455 
" clip-path="url(#pffe7caa103)" style="fill: none; stroke: #808080; stroke-width: 2"/>
    <path d="M 959.32562 645.822718 
L 458.348939 215.214545 
" clip-path="url(#pffe7caa103)" style="fill: none; stroke: #808080; stroke-width: 2"/>
    <path d="M 343.157717 897.726511 
L 723.0503 948.305455 
" clip-path="url(#pffe7caa103)" style="fill: none; stroke: #808080; stroke-width: 2"/>
    <path d="M 343.157717 897.726511 
L 582.820359 591.623633 
" clip-path="url(#pffe7caa103)" style="fill: none; stroke: #808080; stroke-width: 2"/>
    <path d="M 343.157717 897.726511 
L 221.47438 518.564141 
" clip-path="url(#pffe7caa103)" style="fill: none; stroke: #808080; stroke-width: 2"/>
    <path d="M 343.157717 897.726511 
L 827.118905 280.751853 
" clip-path="url(#pffe7caa103)" style="fill: none; stroke: #808080; stroke-width: 2"/>
    <path d="M 343.157717 897.726511 
L 458.348939 215.214545 
" clip-path="url(#pffe7caa103)" style="fill: none; stroke: #808080; stroke-width: 2"/>
    <path d="M 221.47438 518.564141 
L 582.820359 591.623633 
" clip-path="url(#pffe7caa103)" style="fill: none; stroke: #808080; stroke-width: 2"/>
    <path d="M 221.47438 518.564141 
L 827.118905 280.751853 
" clip-path="url(#pffe7caa103)" style="fill: none; stroke: #808080; stroke-width: 2"/>
    <path d="M 221.47438 518.564141 
L 723.0503 948.305455 
" clip-path="url(#pffe7caa103)" style="fill: none; stroke: #808080; stroke-width: 2"/>
    <path d="M 221.47438 518.564141 
L 458.348939 215.214545 
" clip-path="url(#pffe7caa103)" style="fill: none; stroke: #808080; stroke-width: 2"/>
    <path d="M 582.820359 591.623633 
L 827.118905 280.751853 
" clip-path="url(#pffe7caa103)" style="fill: none; stroke: #808080; stroke-width: 2"/>
    <path d="M 582.820359 591.623633 
L 723.0503 948.305455 
" clip-path="url(#pffe7caa103)" style="fill: none; stroke: #808080; stroke-width: 2"/>
    <path d="M 582.820359 591.623633 
L 458.348939 215.214545 
" clip-path="url(#pffe7caa103)" style="fill: none; stroke: #808080; stroke-width: 2"/>
    <path d="M 723.0503 948.305455 
L 827.118905 280.751853 
" clip-path="url(#pffe7caa103)" style="fill: none; stroke: #808080; stroke-width: 2"/>
    <path d="M 723.0503 948.305455 
L 458.348939 215.214545 
" clip-path="url(#pffe7caa103)" style="fill: none; stroke: #808080; stroke-width: 2"/>
    <path d="M 827.118905 280.751853 
L 458.348939 215.214545 
" clip-path="url(#pffe7caa103)" style="fill: none; stroke: #808080; stroke-width: 2"/>
   </g>
   <g id="text_1">
    <g id="patch_3">
     <path d="M 626.958616 785.936522 
L 678.488936 764.869727 
Q 679.877386 764.302096 679.309755 762.913645 
L 677.478554 758.434445 
Q 676.910923 757.045995 675.522473 757.613626 
L 623.992153 778.680421 
Q 622.603703 779.248052 623.171334 780.636502 
L 625.002535 785.115702 
Q 625.570166 786.504153 626.958616 785.936522 
z
" clip-path="url(#pffe7caa103)" style="fill: #ffffff; stroke: #ffffff; stroke-linejoin: miter"/>
    </g>
    <g clip-path="url(#pffe7caa103)">
     <!-- 0.9998292638080765 -->
     <g transform="translate(625.997487 783.585557) rotate(-22.235888) scale(0.05 -0.05)">
      <defs>
       <path id="DejaVuSans-30" d="M 2034 4250 
Q 1547 4250 1301 3770 
Q 1056 3291 1056 2328 
Q 1056 1369 1301 889 
Q 1547 409 2034 409 
Q 2525 409 2770 889 
Q 3016 1369 3016 2328 
Q 3016 3291 2770 3770 
Q 2525 4250 2034 4250 
z
M 2034 4750 
Q 2819 4750 3233 4129 
Q 3647 3509 3647 2328 
Q 3647 1150 3233 529 
Q 2819 -91 2034 -91 
Q 1250 -91 836 529 
Q 422 1150 422 2328 
Q 422 3509 836 4129 
Q 1250 4750 2034 4750 
z
" transform="scale(0.015625)"/>
       <path id="DejaVuSans-2e" d="M 684 794 
L 1344 794 
L 1344 0 
L 684 0 
L 684 794 
z
" transform="scale(0.015625)"/>
       <path id="DejaVuSans-39" d="M 703 97 
L 703 672 
Q 941 559 1184 500 
Q 1428 441 1663 441 
Q 2288 441 2617 861 
Q 2947 1281 2994 2138 
Q 2813 1869 2534 1725 
Q 2256 1581 1919 1581 
Q 1219 1581 811 2004 
Q 403 2428 403 3163 
Q 403 3881 828 4315 
Q 1253 4750 1959 4750 
Q 2769 4750 3195 4129 
Q 3622 3509 3622 2328 
Q 3622 1225 3098 567 
Q 2575 -91 1691 -91 
Q 1453 -91 1209 -44 
Q 966 3 703 97 
z
M 1959 2075 
Q 2384 2075 2632 2365 
Q 2881 2656 2881 3163 
Q 2881 3666 2632 3958 
Q 2384 4250 1959 4250 
Q 1534 4250 1286 3958 
Q 1038 3666 1038 3163 
Q 1038 2656 1286 2365 
Q 1534 2075 1959 2075 
z
" transform="scale(0.015625)"/>
       <path id="DejaVuSans-38" d="M 2034 2216 
Q 1584 2216 1326 1975 
Q 1069 1734 1069 1313 
Q 1069 891 1326 650 
Q 1584 409 2034 409 
Q 2484 409 2743 651 
Q 3003 894 3003 1313 
Q 3003 1734 2745 1975 
Q 2488 2216 2034 2216 
z
M 1403 2484 
Q 997 2584 770 2862 
Q 544 3141 544 3541 
Q 544 4100 942 4425 
Q 1341 4750 2034 4750 
Q 2731 4750 3128 4425 
Q 3525 4100 3525 3541 
Q 3525 3141 3298 2862 
Q 3072 2584 2669 2484 
Q 3125 2378 3379 2068 
Q 3634 1759 3634 1313 
Q 3634 634 3220 271 
Q 2806 -91 2034 -91 
Q 1263 -91 848 271 
Q 434 634 434 1313 
Q 434 1759 690 2068 
Q 947 2378 1403 2484 
z
M 1172 3481 
Q 1172 3119 1398 2916 
Q 1625 2713 2034 2713 
Q 2441 2713 2670 2916 
Q 2900 3119 2900 3481 
Q 2900 3844 2670 4047 
Q 2441 4250 2034 4250 
Q 1625 4250 1398 4047 
Q 1172 3844 1172 3481 
z
" transform="scale(0.015625)"/>
       <path id="DejaVuSans-32" d="M 1228 531 
L 3431 531 
L 3431 0 
L 469 0 
L 469 531 
Q 828 903 1448 1529 
Q 2069 2156 2228 2338 
Q 2531 2678 2651 2914 
Q 2772 3150 2772 3378 
Q 2772 3750 2511 3984 
Q 2250 4219 1831 4219 
Q 1534 4219 1204 4116 
Q 875 4013 500 3803 
L 500 4441 
Q 881 4594 1212 4672 
Q 1544 4750 1819 4750 
Q 2544 4750 2975 4387 
Q 3406 4025 3406 3419 
Q 3406 3131 3298 2873 
Q 3191 2616 2906 2266 
Q 2828 2175 2409 1742 
Q 1991 1309 1228 531 
z
" transform="scale(0.015625)"/>
       <path id="DejaVuSans-36" d="M 2113 2584 
Q 1688 2584 1439 2293 
Q 1191 2003 1191 1497 
Q 1191 994 1439 701 
Q 1688 409 2113 409 
Q 2538 409 2786 701 
Q 3034 994 3034 1497 
Q 3034 2003 2786 2293 
Q 2538 2584 2113 2584 
z
M 3366 4563 
L 3366 3988 
Q 3128 4100 2886 4159 
Q 2644 4219 2406 4219 
Q 1781 4219 1451 3797 
Q 1122 3375 1075 2522 
Q 1259 2794 1537 2939 
Q 1816 3084 2150 3084 
Q 2853 3084 3261 2657 
Q 3669 2231 3669 1497 
Q 3669 778 3244 343 
Q 2819 -91 2113 -91 
Q 1303 -91 875 529 
Q 447 1150 447 2328 
Q 447 3434 972 4092 
Q 1497 4750 2381 4750 
Q 2619 4750 2861 4703 
Q 3103 4656 3366 4563 
z
" transform="scale(0.015625)"/>
       <path id="DejaVuSans-33" d="M 2597 2516 
Q 3050 2419 3304 2112 
Q 3559 1806 3559 1356 
Q 3559 666 3084 287 
Q 2609 -91 1734 -91 
Q 1441 -91 1130 -33 
Q 819 25 488 141 
L 488 750 
Q 750 597 1062 519 
Q 1375 441 1716 441 
Q 2309 441 2620 675 
Q 2931 909 2931 1356 
Q 2931 1769 2642 2001 
Q 2353 2234 1838 2234 
L 1294 2234 
L 1294 2753 
L 1863 2753 
Q 2328 2753 2575 2939 
Q 2822 3125 2822 3475 
Q 2822 3834 2567 4026 
Q 2313 4219 1838 4219 
Q 1578 4219 1281 4162 
Q 984 4106 628 3988 
L 628 4550 
Q 988 4650 1302 4700 
Q 1616 4750 1894 4750 
Q 2613 4750 3031 4423 
Q 3450 4097 3450 3541 
Q 3450 3153 3228 2886 
Q 3006 2619 2597 2516 
z
" transform="scale(0.015625)"/>
       <path id="DejaVuSans-37" d="M 525 4666 
L 3525 4666 
L 3525 4397 
L 1831 0 
L 1172 0 
L 2766 4134 
L 525 4134 
L 525 4666 
z
" transform="scale(0.015625)"/>
       <path id="DejaVuSans-35" d="M 691 4666 
L 3169 4666 
L 3169 4134 
L 1269 4134 
L 1269 2991 
Q 1406 3038 1543 3061 
Q 1681 3084 1819 3084 
Q 2600 3084 3056 2656 
Q 3513 2228 3513 1497 
Q 3513 744 3044 326 
Q 2575 -91 1722 -91 
Q 1428 -91 1123 -41 
Q 819 9 494 109 
L 494 744 
Q 775 591 1075 516 
Q 1375 441 1709 441 
Q 2250 441 2565 725 
Q 2881 1009 2881 1497 
Q 2881 1984 2565 2268 
Q 2250 2553 1709 2553 
Q 1456 2553 1204 2497 
Q 953 2441 691 2322 
L 691 4666 
z
" transform="scale(0.015625)"/>
      </defs>
      <use xlink:href="#DejaVuSans-30"/>
      <use xlink:href="#DejaVuSans-2e" transform="translate(63.623047 0)"/>
      <use xlink:href="#DejaVuSans-39" transform="translate(95.410156 0)"/>
      <use xlink:href="#DejaVuSans-39" transform="translate(159.033203 0)"/>
      <use xlink:href="#DejaVuSans-39" transform="translate(222.65625 0)"/>
      <use xlink:href="#DejaVuSans-38" transform="translate(286.279297 0)"/>
      <use xlink:href="#DejaVuSans-32" transform="translate(349.902344 0)"/>
      <use xlink:href="#DejaVuSans-39" transform="translate(413.525391 0)"/>
      <use xlink:href="#DejaVuSans-32" transform="translate(477.148438 0)"/>
      <use xlink:href="#DejaVuSans-36" transform="translate(540.771484 0)"/>
      <use xlink:href="#DejaVuSans-33" transform="translate(604.394531 0)"/>
      <use xlink:href="#DejaVuSans-38" transform="translate(668.017578 0)"/>
      <use xlink:href="#DejaVuSans-30" transform="translate(731.640625 0)"/>
      <use xlink:href="#DejaVuSans-38" transform="translate(795.263672 0)"/>
      <use xlink:href="#DejaVuSans-30" transform="translate(858.886719 0)"/>
      <use xlink:href="#DejaVuSans-37" transform="translate(922.509766 0)"/>
      <use xlink:href="#DejaVuSans-36" transform="translate(986.132812 0)"/>
      <use xlink:href="#DejaVuSans-35" transform="translate(1049.755859 0)"/>
     </g>
    </g>
   </g>
   <g id="text_2">
    <g id="patch_4">
     <path d="M 562.301567 581.324641 
L 617.161906 590.786505 
Q 618.640082 591.041449 618.895026 589.563273 
L 619.717485 584.794617 
Q 619.972429 583.316441 618.494253 583.061497 
L 563.633914 573.599632 
Q 562.155738 573.344689 561.900794 574.822864 
L 561.078335 579.591521 
Q 560.823391 581.069697 562.301567 581.324641 
z
" clip-path="url(#pffe7caa103)" style="fill: #ffffff; stroke: #ffffff; stroke-linejoin: miter"/>
    </g>
    <g clip-path="url(#pffe7caa103)">
     <!-- 0.9996254711055674 -->
     <g transform="translate(562.733245 578.82175) rotate(-350.214362) scale(0.05 -0.05)">
      <defs>
       <path id="DejaVuSans-34" d="M 2419 4116 
L 825 1625 
L 2419 1625 
L 2419 4116 
z
M 2253 4666 
L 3047 4666 
L 3047 1625 
L 3713 1625 
L 3713 1100 
L 3047 1100 
L 3047 0 
L 2419 0 
L 2419 1100 
L 313 1100 
L 313 1709 
L 2253 4666 
z
" transform="scale(0.015625)"/>
       <path id="DejaVuSans-31" d="M 794 531 
L 1825 531 
L 1825 4091 
L 703 3866 
L 703 4441 
L 1819 4666 
L 2450 4666 
L 2450 531 
L 3481 531 
L 3481 0 
L 794 0 
L 794 531 
z
" transform="scale(0.015625)"/>
      </defs>
      <use xlink:href="#DejaVuSans-30"/>
      <use xlink:href="#DejaVuSans-2e" transform="translate(63.623047 0)"/>
      <use xlink:href="#DejaVuSans-39" transform="translate(95.410156 0)"/>
      <use xlink:href="#DejaVuSans-39" transform="translate(159.033203 0)"/>
      <use xlink:href="#DejaVuSans-39" transform="translate(222.65625 0)"/>
      <use xlink:href="#DejaVuSans-36" transform="translate(286.279297 0)"/>
      <use xlink:href="#DejaVuSans-32" transform="translate(349.902344 0)"/>
      <use xlink:href="#DejaVuSans-35" transform="translate(413.525391 0)"/>
      <use xlink:href="#DejaVuSans-34" transform="translate(477.148438 0)"/>
      <use xlink:href="#DejaVuSans-37" transform="translate(540.771484 0)"/>
      <use xlink:href="#DejaVuSans-31" transform="translate(604.394531 0)"/>
      <use xlink:href="#DejaVuSans-31" transform="translate(668.017578 0)"/>
      <use xlink:href="#DejaVuSans-30" transform="translate(731.640625 0)"/>
      <use xlink:href="#DejaVuSans-35" transform="translate(795.263672 0)"/>
      <use xlink:href="#DejaVuSans-35" transform="translate(858.886719 0)"/>
      <use xlink:href="#DejaVuSans-36" transform="translate(922.509766 0)"/>
      <use xlink:href="#DejaVuSans-37" transform="translate(986.132812 0)"/>
      <use xlink:href="#DejaVuSans-34" transform="translate(1049.755859 0)"/>
     </g>
    </g>
   </g>
   <g id="text_3">
    <g id="patch_5">
     <path d="M 742.961167 618.636327 
L 798.063478 626.568473 
Q 799.548174 626.782199 799.7619 625.297504 
L 800.451391 620.507814 
Q 800.665117 619.023118 799.180422 618.809392 
L 744.07811 610.877246 
Q 742.593415 610.663519 742.379688 612.148215 
L 741.690198 616.937905 
Q 741.476471 618.4226 742.961167 618.636327 
z
" clip-path="url(#pffe7caa103)" style="fill: #ffffff; stroke: #ffffff; stroke-linejoin: miter"/>
    </g>
    <g clip-path="url(#pffe7caa103)">
     <!-- 0.9994341888167964 -->
     <g transform="translate(743.323055 616.122397) rotate(-351.808371) scale(0.05 -0.05)">
      <use xlink:href="#DejaVuSans-30"/>
      <use xlink:href="#DejaVuSans-2e" transform="translate(63.623047 0)"/>
      <use xlink:href="#DejaVuSans-39" transform="translate(95.410156 0)"/>
      <use xlink:href="#DejaVuSans-39" transform="translate(159.033203 0)"/>
      <use xlink:href="#DejaVuSans-39" transform="translate(222.65625 0)"/>
      <use xlink:href="#DejaVuSans-34" transform="translate(286.279297 0)"/>
      <use xlink:href="#DejaVuSans-33" transform="translate(349.902344 0)"/>
      <use xlink:href="#DejaVuSans-34" transform="translate(413.525391 0)"/>
      <use xlink:href="#DejaVuSans-31" transform="translate(477.148438 0)"/>
      <use xlink:href="#DejaVuSans-38" transform="translate(540.771484 0)"/>
      <use xlink:href="#DejaVuSans-38" transform="translate(604.394531 0)"/>
      <use xlink:href="#DejaVuSans-38" transform="translate(668.017578 0)"/>
      <use xlink:href="#DejaVuSans-31" transform="translate(731.640625 0)"/>
      <use xlink:href="#DejaVuSans-36" transform="translate(795.263672 0)"/>
      <use xlink:href="#DejaVuSans-37" transform="translate(858.886719 0)"/>
      <use xlink:href="#DejaVuSans-39" transform="translate(922.509766 0)"/>
      <use xlink:href="#DejaVuSans-36" transform="translate(986.132812 0)"/>
      <use xlink:href="#DejaVuSans-34" transform="translate(1049.755859 0)"/>
     </g>
    </g>
   </g>
   <g id="text_4">
    <g id="patch_6">
     <path d="M 880.059729 438.451841 
L 899.015471 490.795547 
Q 899.526221 492.205913 900.936588 491.695163 
L 905.48649 490.047463 
Q 906.896857 489.536713 906.386107 488.126346 
L 887.430364 435.78264 
Q 886.919614 434.372273 885.509247 434.883023 
L 880.959345 436.530724 
Q 879.548978 437.041474 880.059729 438.451841 
z
" clip-path="url(#pffe7caa103)" style="fill: #ffffff; stroke: #ffffff; stroke-linejoin: miter"/>
    </g>
    <g clip-path="url(#pffe7caa103)">
     <!-- 0.9988493901372268 -->
     <g transform="translate(882.447803 437.587024) rotate(-289.907341) scale(0.05 -0.05)">
      <use xlink:href="#DejaVuSans-30"/>
      <use xlink:href="#DejaVuSans-2e" transform="translate(63.623047 0)"/>
      <use xlink:href="#DejaVuSans-39" transform="translate(95.410156 0)"/>
      <use xlink:href="#DejaVuSans-39" transform="translate(159.033203 0)"/>
      <use xlink:href="#DejaVuSans-38" transform="translate(222.65625 0)"/>
      <use xlink:href="#DejaVuSans-38" transform="translate(286.279297 0)"/>
      <use xlink:href="#DejaVuSans-34" transform="translate(349.902344 0)"/>
      <use xlink:href="#DejaVuSans-39" transform="translate(413.525391 0)"/>
      <use xlink:href="#DejaVuSans-33" transform="translate(477.148438 0)"/>
      <use xlink:href="#DejaVuSans-39" transform="translate(540.771484 0)"/>
      <use xlink:href="#DejaVuSans-30" transform="translate(604.394531 0)"/>
      <use xlink:href="#DejaVuSans-31" transform="translate(668.017578 0)"/>
      <use xlink:href="#DejaVuSans-33" transform="translate(731.640625 0)"/>
      <use xlink:href="#DejaVuSans-37" transform="translate(795.263672 0)"/>
      <use xlink:href="#DejaVuSans-32" transform="translate(858.886719 0)"/>
      <use xlink:href="#DejaVuSans-32" transform="translate(922.509766 0)"/>
      <use xlink:href="#DejaVuSans-36" transform="translate(986.132812 0)"/>
      <use xlink:href="#DejaVuSans-38" transform="translate(1049.755859 0)"/>
     </g>
    </g>
   </g>
   <g id="text_5">
    <g id="patch_7">
     <path d="M 827.141843 821.41332 
L 861.411398 777.54099 
Q 862.334768 776.358879 861.152657 775.435508 
L 857.339118 772.456676 
Q 856.157007 771.533305 855.233636 772.715416 
L 820.964081 816.587746 
Q 820.04071 817.769857 821.222822 818.693228 
L 825.036361 821.67206 
Q 826.218472 822.595431 827.141843 821.41332 
z
" clip-path="url(#pffe7caa103)" style="fill: #ffffff; stroke: #ffffff; stroke-linejoin: miter"/>
    </g>
    <g clip-path="url(#pffe7caa103)">
     <!-- 0.9986383561469651 -->
     <g transform="translate(825.140258 819.849841) rotate(-52.005893) scale(0.05 -0.05)">
      <use xlink:href="#DejaVuSans-30"/>
      <use xlink:href="#DejaVuSans-2e" transform="translate(63.623047 0)"/>
      <use xlink:href="#DejaVuSans-39" transform="translate(95.410156 0)"/>
      <use xlink:href="#DejaVuSans-39" transform="translate(159.033203 0)"/>
      <use xlink:href="#DejaVuSans-38" transform="translate(222.65625 0)"/>
      <use xlink:href="#DejaVuSans-36" transform="translate(286.279297 0)"/>
      <use xlink:href="#DejaVuSans-33" transform="translate(349.902344 0)"/>
      <use xlink:href="#DejaVuSans-38" transform="translate(413.525391 0)"/>
      <use xlink:href="#DejaVuSans-33" transform="translate(477.148438 0)"/>
      <use xlink:href="#DejaVuSans-35" transform="translate(540.771484 0)"/>
      <use xlink:href="#DejaVuSans-36" transform="translate(604.394531 0)"/>
      <use xlink:href="#DejaVuSans-31" transform="translate(668.017578 0)"/>
      <use xlink:href="#DejaVuSans-34" transform="translate(731.640625 0)"/>
      <use xlink:href="#DejaVuSans-36" transform="translate(795.263672 0)"/>
      <use xlink:href="#DejaVuSans-39" transform="translate(858.886719 0)"/>
      <use xlink:href="#DejaVuSans-36" transform="translate(922.509766 0)"/>
      <use xlink:href="#DejaVuSans-35" transform="translate(986.132812 0)"/>
      <use xlink:href="#DejaVuSans-31" transform="translate(1049.755859 0)"/>
     </g>
    </g>
   </g>
   <g id="text_6">
    <g id="patch_8">
     <path d="M 685.172727 415.346505 
L 727.390788 451.634506 
Q 728.528326 452.612262 729.506083 451.474724 
L 732.660365 447.80498 
Q 733.638122 446.667442 732.500584 445.689685 
L 690.282523 409.401685 
Q 689.144985 408.423928 688.167228 409.561466 
L 685.012946 413.231211 
Q 684.035189 414.368749 685.172727 415.346505 
z
" clip-path="url(#pffe7caa103)" style="fill: #ffffff; stroke: #ffffff; stroke-linejoin: miter"/>
    </g>
    <g clip-path="url(#pffe7caa103)">
     <!-- 0.9966275451908894 -->
     <g transform="translate(686.828293 413.420393) rotate(-319.31971) scale(0.05 -0.05)">
      <use xlink:href="#DejaVuSans-30"/>
      <use xlink:href="#DejaVuSans-2e" transform="translate(63.623047 0)"/>
      <use xlink:href="#DejaVuSans-39" transform="translate(95.410156 0)"/>
      <use xlink:href="#DejaVuSans-39" transform="translate(159.033203 0)"/>
      <use xlink:href="#DejaVuSans-36" transform="translate(222.65625 0)"/>
      <use xlink:href="#DejaVuSans-36" transform="translate(286.279297 0)"/>
      <use xlink:href="#DejaVuSans-32" transform="translate(349.902344 0)"/>
      <use xlink:href="#DejaVuSans-37" transform="translate(413.525391 0)"/>
      <use xlink:href="#DejaVuSans-35" transform="translate(477.148438 0)"/>
      <use xlink:href="#DejaVuSans-34" transform="translate(540.771484 0)"/>
      <use xlink:href="#DejaVuSans-35" transform="translate(604.394531 0)"/>
      <use xlink:href="#DejaVuSans-31" transform="translate(668.017578 0)"/>
      <use xlink:href="#DejaVuSans-39" transform="translate(731.640625 0)"/>
      <use xlink:href="#DejaVuSans-30" transform="translate(795.263672 0)"/>
      <use xlink:href="#DejaVuSans-38" transform="translate(858.886719 0)"/>
      <use xlink:href="#DejaVuSans-38" transform="translate(922.509766 0)"/>
      <use xlink:href="#DejaVuSans-39" transform="translate(986.132812 0)"/>
      <use xlink:href="#DejaVuSans-34" transform="translate(1049.755859 0)"/>
     </g>
    </g>
   </g>
   <g id="text_7">
    <g id="patch_9">
     <path d="M 504.992831 923.227375 
L 560.176193 930.574495 
Q 561.663073 930.772458 561.861036 929.285579 
L 562.499674 924.488843 
Q 562.697637 923.001964 561.210758 922.804001 
L 506.027395 915.456881 
Q 504.540516 915.258918 504.342552 916.745797 
L 503.703914 921.542532 
Q 503.505951 923.029412 504.992831 923.227375 
z
" clip-path="url(#pffe7caa103)" style="fill: #ffffff; stroke: #ffffff; stroke-linejoin: miter"/>
    </g>
    <g clip-path="url(#pffe7caa103)">
     <!-- 0.9993318511906564 -->
     <g transform="translate(505.328028 920.709748) rotate(-352.416234) scale(0.05 -0.05)">
      <use xlink:href="#DejaVuSans-30"/>
      <use xlink:href="#DejaVuSans-2e" transform="translate(63.623047 0)"/>
      <use xlink:href="#DejaVuSans-39" transform="translate(95.410156 0)"/>
      <use xlink:href="#DejaVuSans-39" transform="translate(159.033203 0)"/>
      <use xlink:href="#DejaVuSans-39" transform="translate(222.65625 0)"/>
      <use xlink:href="#DejaVuSans-33" transform="translate(286.279297 0)"/>
      <use xlink:href="#DejaVuSans-33" transform="translate(349.902344 0)"/>
      <use xlink:href="#DejaVuSans-31" transform="translate(413.525391 0)"/>
      <use xlink:href="#DejaVuSans-38" transform="translate(477.148438 0)"/>
      <use xlink:href="#DejaVuSans-35" transform="translate(540.771484 0)"/>
      <use xlink:href="#DejaVuSans-31" transform="translate(604.394531 0)"/>
      <use xlink:href="#DejaVuSans-31" transform="translate(668.017578 0)"/>
      <use xlink:href="#DejaVuSans-39" transform="translate(731.640625 0)"/>
      <use xlink:href="#DejaVuSans-30" transform="translate(795.263672 0)"/>
      <use xlink:href="#DejaVuSans-36" transform="translate(858.886719 0)"/>
      <use xlink:href="#DejaVuSans-35" transform="translate(922.509766 0)"/>
      <use xlink:href="#DejaVuSans-36" transform="translate(986.132812 0)"/>
      <use xlink:href="#DejaVuSans-34" transform="translate(1049.755859 0)"/>
     </g>
    </g>
   </g>
   <g id="text_8">
    <g id="patch_10">
     <path d="M 448.914179 769.009803 
L 483.233476 725.176373 
Q 484.158187 723.99531 482.977124 723.070599 
L 479.166966 720.087443 
Q 477.985903 719.162732 477.061192 720.343795 
L 442.741895 764.177225 
Q 441.817184 765.358288 442.998247 766.282999 
L 446.808405 769.266155 
Q 447.989468 770.190866 448.914179 769.009803 
z
" clip-path="url(#pffe7caa103)" style="fill: #ffffff; stroke: #ffffff; stroke-linejoin: miter"/>
    </g>
    <g clip-path="url(#pffe7caa103)">
     <!-- 0.9992769893818771 -->
     <g transform="translate(446.914369 767.444055) rotate(-51.940902) scale(0.05 -0.05)">
      <use xlink:href="#DejaVuSans-30"/>
      <use xlink:href="#DejaVuSans-2e" transform="translate(63.623047 0)"/>
      <use xlink:href="#DejaVuSans-39" transform="translate(95.410156 0)"/>
      <use xlink:href="#DejaVuSans-39" transform="translate(159.033203 0)"/>
      <use xlink:href="#DejaVuSans-39" transform="translate(222.65625 0)"/>
      <use xlink:href="#DejaVuSans-32" transform="translate(286.279297 0)"/>
      <use xlink:href="#DejaVuSans-37" transform="translate(349.902344 0)"/>
      <use xlink:href="#DejaVuSans-36" transform="translate(413.525391 0)"/>
      <use xlink:href="#DejaVuSans-39" transform="translate(477.148438 0)"/>
      <use xlink:href="#DejaVuSans-38" transform="translate(540.771484 0)"/>
      <use xlink:href="#DejaVuSans-39" transform="translate(604.394531 0)"/>
      <use xlink:href="#DejaVuSans-33" transform="translate(668.017578 0)"/>
      <use xlink:href="#DejaVuSans-38" transform="translate(731.640625 0)"/>
      <use xlink:href="#DejaVuSans-31" transform="translate(795.263672 0)"/>
      <use xlink:href="#DejaVuSans-38" transform="translate(858.886719 0)"/>
      <use xlink:href="#DejaVuSans-37" transform="translate(922.509766 0)"/>
      <use xlink:href="#DejaVuSans-37" transform="translate(986.132812 0)"/>
      <use xlink:href="#DejaVuSans-31" transform="translate(1049.755859 0)"/>
     </g>
    </g>
   </g>
   <g id="text_9">
    <g id="patch_11">
     <path d="M 270.077608 682.837335 
L 287.089122 735.844807 
Q 287.547487 737.273059 288.975738 736.814695 
L 293.583337 735.335993 
Q 295.011588 734.877629 294.553224 733.449377 
L 277.54171 680.441905 
Q 277.083346 679.013654 275.655095 679.472018 
L 271.047496 680.95072 
Q 269.619244 681.409084 270.077608 682.837335 
z
" clip-path="url(#pffe7caa103)" style="fill: #ffffff; stroke: #ffffff; stroke-linejoin: miter"/>
    </g>
    <g clip-path="url(#pffe7caa103)">
     <!-- 0.9991497078624159 -->
     <g transform="translate(272.495965 682.06122) rotate(-287.792824) scale(0.05 -0.05)">
      <use xlink:href="#DejaVuSans-30"/>
      <use xlink:href="#DejaVuSans-2e" transform="translate(63.623047 0)"/>
      <use xlink:href="#DejaVuSans-39" transform="translate(95.410156 0)"/>
      <use xlink:href="#DejaVuSans-39" transform="translate(159.033203 0)"/>
      <use xlink:href="#DejaVuSans-39" transform="translate(222.65625 0)"/>
      <use xlink:href="#DejaVuSans-31" transform="translate(286.279297 0)"/>
      <use xlink:href="#DejaVuSans-34" transform="translate(349.902344 0)"/>
      <use xlink:href="#DejaVuSans-39" transform="translate(413.525391 0)"/>
      <use xlink:href="#DejaVuSans-37" transform="translate(477.148438 0)"/>
      <use xlink:href="#DejaVuSans-30" transform="translate(540.771484 0)"/>
      <use xlink:href="#DejaVuSans-37" transform="translate(604.394531 0)"/>
      <use xlink:href="#DejaVuSans-38" transform="translate(668.017578 0)"/>
      <use xlink:href="#DejaVuSans-36" transform="translate(731.640625 0)"/>
      <use xlink:href="#DejaVuSans-32" transform="translate(795.263672 0)"/>
      <use xlink:href="#DejaVuSans-34" transform="translate(858.886719 0)"/>
      <use xlink:href="#DejaVuSans-31" transform="translate(922.509766 0)"/>
      <use xlink:href="#DejaVuSans-35" transform="translate(986.132812 0)"/>
      <use xlink:href="#DejaVuSans-39" transform="translate(1049.755859 0)"/>
     </g>
    </g>
   </g>
   <g id="text_10">
    <g id="patch_12">
     <path d="M 571.043069 613.559046 
L 605.402057 569.756721 
Q 606.327837 568.576496 605.147612 567.650716 
L 601.340158 564.66411 
Q 600.159933 563.738329 599.234153 564.918554 
L 564.875164 608.720879 
Q 563.949384 609.901104 565.129609 610.826884 
L 568.937063 613.81349 
Q 570.117288 614.73927 571.043069 613.559046 
z
" clip-path="url(#pffe7caa103)" style="fill: #ffffff; stroke: #ffffff; stroke-linejoin: miter"/>
    </g>
    <g clip-path="url(#pffe7caa103)">
     <!-- 0.9991032502962944 -->
     <g transform="translate(569.044678 611.991487) rotate(-51.889002) scale(0.05 -0.05)">
      <use xlink:href="#DejaVuSans-30"/>
      <use xlink:href="#DejaVuSans-2e" transform="translate(63.623047 0)"/>
      <use xlink:href="#DejaVuSans-39" transform="translate(95.410156 0)"/>
      <use xlink:href="#DejaVuSans-39" transform="translate(159.033203 0)"/>
      <use xlink:href="#DejaVuSans-39" transform="translate(222.65625 0)"/>
      <use xlink:href="#DejaVuSans-31" transform="translate(286.279297 0)"/>
      <use xlink:href="#DejaVuSans-30" transform="translate(349.902344 0)"/>
      <use xlink:href="#DejaVuSans-33" transform="translate(413.525391 0)"/>
      <use xlink:href="#DejaVuSans-32" transform="translate(477.148438 0)"/>
      <use xlink:href="#DejaVuSans-35" transform="translate(540.771484 0)"/>
      <use xlink:href="#DejaVuSans-30" transform="translate(604.394531 0)"/>
      <use xlink:href="#DejaVuSans-32" transform="translate(668.017578 0)"/>
      <use xlink:href="#DejaVuSans-39" transform="translate(731.640625 0)"/>
      <use xlink:href="#DejaVuSans-36" transform="translate(795.263672 0)"/>
      <use xlink:href="#DejaVuSans-32" transform="translate(858.886719 0)"/>
      <use xlink:href="#DejaVuSans-39" transform="translate(922.509766 0)"/>
      <use xlink:href="#DejaVuSans-34" transform="translate(986.132812 0)"/>
      <use xlink:href="#DejaVuSans-34" transform="translate(1049.755859 0)"/>
     </g>
    </g>
   </g>
   <g id="text_11">
    <g id="patch_13">
     <path d="M 399.985723 584.570407 
L 409.250475 529.676436 
Q 409.500107 528.197354 408.021025 527.947722 
L 403.249445 527.142396 
Q 401.770363 526.892764 401.52073 528.371846 
L 392.255979 583.265817 
Q 392.006346 584.744899 393.485428 584.994532 
L 398.257009 585.799857 
Q 399.736091 586.049489 399.985723 584.570407 
z
" clip-path="url(#pffe7caa103)" style="fill: #ffffff; stroke: #ffffff; stroke-linejoin: miter"/>
    </g>
    <g clip-path="url(#pffe7caa103)">
     <!-- 0.9977227742904977 -->
     <g transform="translate(397.481298 584.147722) rotate(-80.420163) scale(0.05 -0.05)">
      <use xlink:href="#DejaVuSans-30"/>
      <use xlink:href="#DejaVuSans-2e" transform="translate(63.623047 0)"/>
      <use xlink:href="#DejaVuSans-39" transform="translate(95.410156 0)"/>
      <use xlink:href="#DejaVuSans-39" transform="translate(159.033203 0)"/>
      <use xlink:href="#DejaVuSans-37" transform="translate(222.65625 0)"/>
      <use xlink:href="#DejaVuSans-37" transform="translate(286.279297 0)"/>
      <use xlink:href="#DejaVuSans-32" transform="translate(349.902344 0)"/>
      <use xlink:href="#DejaVuSans-32" transform="translate(413.525391 0)"/>
      <use xlink:href="#DejaVuSans-37" transform="translate(477.148438 0)"/>
      <use xlink:href="#DejaVuSans-37" transform="translate(540.771484 0)"/>
      <use xlink:href="#DejaVuSans-34" transform="translate(604.394531 0)"/>
      <use xlink:href="#DejaVuSans-32" transform="translate(668.017578 0)"/>
      <use xlink:href="#DejaVuSans-39" transform="translate(731.640625 0)"/>
      <use xlink:href="#DejaVuSans-30" transform="translate(795.263672 0)"/>
      <use xlink:href="#DejaVuSans-34" transform="translate(858.886719 0)"/>
      <use xlink:href="#DejaVuSans-39" transform="translate(922.509766 0)"/>
      <use xlink:href="#DejaVuSans-37" transform="translate(986.132812 0)"/>
      <use xlink:href="#DejaVuSans-37" transform="translate(1049.755859 0)"/>
     </g>
    </g>
   </g>
   <g id="text_12">
    <g id="patch_14">
     <path d="M 374.08762 553.419411 
L 428.653782 564.451985 
Q 430.124031 564.74925 430.421296 563.279001 
L 431.380287 558.535915 
Q 431.677553 557.065666 430.207303 556.7684 
L 375.641141 545.735827 
Q 374.170892 545.438561 373.873627 546.908811 
L 372.914636 551.651896 
Q 372.61737 553.122146 374.08762 553.419411 
z
" clip-path="url(#pffe7caa103)" style="fill: #ffffff; stroke: #ffffff; stroke-linejoin: miter"/>
    </g>
    <g clip-path="url(#pffe7caa103)">
     <!-- 0.9992563008315787 -->
     <g transform="translate(374.590958 550.929942) rotate(-348.569627) scale(0.05 -0.05)">
      <use xlink:href="#DejaVuSans-30"/>
      <use xlink:href="#DejaVuSans-2e" transform="translate(63.623047 0)"/>
      <use xlink:href="#DejaVuSans-39" transform="translate(95.410156 0)"/>
      <use xlink:href="#DejaVuSans-39" transform="translate(159.033203 0)"/>
      <use xlink:href="#DejaVuSans-39" transform="translate(222.65625 0)"/>
      <use xlink:href="#DejaVuSans-32" transform="translate(286.279297 0)"/>
      <use xlink:href="#DejaVuSans-35" transform="translate(349.902344 0)"/>
      <use xlink:href="#DejaVuSans-36" transform="translate(413.525391 0)"/>
      <use xlink:href="#DejaVuSans-33" transform="translate(477.148438 0)"/>
      <use xlink:href="#DejaVuSans-30" transform="translate(540.771484 0)"/>
      <use xlink:href="#DejaVuSans-30" transform="translate(604.394531 0)"/>
      <use xlink:href="#DejaVuSans-38" transform="translate(668.017578 0)"/>
      <use xlink:href="#DejaVuSans-33" transform="translate(731.640625 0)"/>
      <use xlink:href="#DejaVuSans-31" transform="translate(795.263672 0)"/>
      <use xlink:href="#DejaVuSans-35" transform="translate(858.886719 0)"/>
      <use xlink:href="#DejaVuSans-37" transform="translate(922.509766 0)"/>
      <use xlink:href="#DejaVuSans-38" transform="translate(986.132812 0)"/>
      <use xlink:href="#DejaVuSans-37" transform="translate(1049.755859 0)"/>
     </g>
    </g>
   </g>
   <g id="text_13">
    <g id="patch_15">
     <path d="M 499.818816 413.480321 
L 551.637521 393.133196 
Q 553.033742 392.584956 552.485502 391.188735 
L 550.716857 386.684468 
Q 550.168617 385.288247 548.772396 385.836487 
L 496.953691 406.183612 
Q 495.55747 406.731852 496.10571 408.128073 
L 497.874355 412.63234 
Q 498.422595 414.028561 499.818816 413.480321 
z
" clip-path="url(#pffe7caa103)" style="fill: #ffffff; stroke: #ffffff; stroke-linejoin: miter"/>
    </g>
    <g clip-path="url(#pffe7caa103)">
     <!-- 0.9987984262938981 -->
     <g transform="translate(498.89052 411.116199) rotate(-21.437943) scale(0.05 -0.05)">
      <use xlink:href="#DejaVuSans-30"/>
      <use xlink:href="#DejaVuSans-2e" transform="translate(63.623047 0)"/>
      <use xlink:href="#DejaVuSans-39" transform="translate(95.410156 0)"/>
      <use xlink:href="#DejaVuSans-39" transform="translate(159.033203 0)"/>
      <use xlink:href="#DejaVuSans-38" transform="translate(222.65625 0)"/>
      <use xlink:href="#DejaVuSans-37" transform="translate(286.279297 0)"/>
      <use xlink:href="#DejaVuSans-39" transform="translate(349.902344 0)"/>
      <use xlink:href="#DejaVuSans-38" transform="translate(413.525391 0)"/>
      <use xlink:href="#DejaVuSans-34" transform="translate(477.148438 0)"/>
      <use xlink:href="#DejaVuSans-32" transform="translate(540.771484 0)"/>
      <use xlink:href="#DejaVuSans-36" transform="translate(604.394531 0)"/>
      <use xlink:href="#DejaVuSans-32" transform="translate(668.017578 0)"/>
      <use xlink:href="#DejaVuSans-39" transform="translate(731.640625 0)"/>
      <use xlink:href="#DejaVuSans-33" transform="translate(795.263672 0)"/>
      <use xlink:href="#DejaVuSans-38" transform="translate(858.886719 0)"/>
      <use xlink:href="#DejaVuSans-39" transform="translate(922.509766 0)"/>
      <use xlink:href="#DejaVuSans-38" transform="translate(986.132812 0)"/>
      <use xlink:href="#DejaVuSans-31" transform="translate(1049.755859 0)"/>
     </g>
    </g>
   </g>
   <g id="text_14">
    <g id="patch_16">
     <path d="M 448.574994 718.301309 
L 490.850579 754.522278 
Q 491.989667 755.498228 492.965617 754.35914 
L 496.114073 750.684395 
Q 497.090023 749.545307 495.950935 748.569357 
L 453.67535 712.348388 
Q 452.536262 711.372438 451.560312 712.511526 
L 448.411856 716.186271 
Q 447.435906 717.325359 448.574994 718.301309 
z
" clip-path="url(#pffe7caa103)" style="fill: #ffffff; stroke: #ffffff; stroke-linejoin: miter"/>
    </g>
    <g clip-path="url(#pffe7caa103)">
     <!-- 0.9975207549332945 -->
     <g transform="translate(450.227501 716.372572) rotate(-319.41062) scale(0.05 -0.05)">
      <use xlink:href="#DejaVuSans-30"/>
      <use xlink:href="#DejaVuSans-2e" transform="translate(63.623047 0)"/>
      <use xlink:href="#DejaVuSans-39" transform="translate(95.410156 0)"/>
      <use xlink:href="#DejaVuSans-39" transform="translate(159.033203 0)"/>
      <use xlink:href="#DejaVuSans-37" transform="translate(222.65625 0)"/>
      <use xlink:href="#DejaVuSans-35" transform="translate(286.279297 0)"/>
      <use xlink:href="#DejaVuSans-32" transform="translate(349.902344 0)"/>
      <use xlink:href="#DejaVuSans-30" transform="translate(413.525391 0)"/>
      <use xlink:href="#DejaVuSans-37" transform="translate(477.148438 0)"/>
      <use xlink:href="#DejaVuSans-35" transform="translate(540.771484 0)"/>
      <use xlink:href="#DejaVuSans-34" transform="translate(604.394531 0)"/>
      <use xlink:href="#DejaVuSans-39" transform="translate(668.017578 0)"/>
      <use xlink:href="#DejaVuSans-33" transform="translate(731.640625 0)"/>
      <use xlink:href="#DejaVuSans-33" transform="translate(795.263672 0)"/>
      <use xlink:href="#DejaVuSans-32" transform="translate(858.886719 0)"/>
      <use xlink:href="#DejaVuSans-39" transform="translate(922.509766 0)"/>
      <use xlink:href="#DejaVuSans-34" transform="translate(986.132812 0)"/>
      <use xlink:href="#DejaVuSans-35" transform="translate(1049.755859 0)"/>
     </g>
    </g>
   </g>
   <g id="text_15">
    <g id="patch_17">
     <path d="M 325.869538 391.240674 
L 360.132096 347.362879 
Q 361.055278 346.180621 359.873019 345.257439 
L 356.059005 342.279215 
Q 354.876746 341.356033 353.953564 342.538291 
L 319.691006 386.416085 
Q 318.767824 387.598344 319.950082 388.521526 
L 323.764097 391.49975 
Q 324.946355 392.422932 325.869538 391.240674 
z
" clip-path="url(#pffe7caa103)" style="fill: #ffffff; stroke: #ffffff; stroke-linejoin: miter"/>
    </g>
    <g clip-path="url(#pffe7caa103)">
     <!-- 0.9952813338032032 -->
     <g transform="translate(323.867703 389.677515) rotate(-52.01503) scale(0.05 -0.05)">
      <use xlink:href="#DejaVuSans-30"/>
      <use xlink:href="#DejaVuSans-2e" transform="translate(63.623047 0)"/>
      <use xlink:href="#DejaVuSans-39" transform="translate(95.410156 0)"/>
      <use xlink:href="#DejaVuSans-39" transform="translate(159.033203 0)"/>
      <use xlink:href="#DejaVuSans-35" transform="translate(222.65625 0)"/>
      <use xlink:href="#DejaVuSans-32" transform="translate(286.279297 0)"/>
      <use xlink:href="#DejaVuSans-38" transform="translate(349.902344 0)"/>
      <use xlink:href="#DejaVuSans-31" transform="translate(413.525391 0)"/>
      <use xlink:href="#DejaVuSans-33" transform="translate(477.148438 0)"/>
      <use xlink:href="#DejaVuSans-33" transform="translate(540.771484 0)"/>
      <use xlink:href="#DejaVuSans-33" transform="translate(604.394531 0)"/>
      <use xlink:href="#DejaVuSans-38" transform="translate(668.017578 0)"/>
      <use xlink:href="#DejaVuSans-30" transform="translate(731.640625 0)"/>
      <use xlink:href="#DejaVuSans-33" transform="translate(795.263672 0)"/>
      <use xlink:href="#DejaVuSans-32" transform="translate(858.886719 0)"/>
      <use xlink:href="#DejaVuSans-30" transform="translate(922.509766 0)"/>
      <use xlink:href="#DejaVuSans-33" transform="translate(986.132812 0)"/>
      <use xlink:href="#DejaVuSans-32" transform="translate(1049.755859 0)"/>
     </g>
    </g>
   </g>
   <g id="text_16">
    <g id="patch_18">
     <path d="M 691.83553 459.244427 
L 724.267864 417.974033 
Q 725.194695 416.794633 724.015295 415.867802 
L 720.210502 412.877806 
Q 719.031102 411.950975 718.104271 413.130375 
L 685.671938 454.400769 
Q 684.745106 455.580169 685.924506 456.507 
L 689.729299 459.496996 
Q 690.908699 460.423827 691.83553 459.244427 
z
" clip-path="url(#pffe7caa103)" style="fill: #ffffff; stroke: #ffffff; stroke-linejoin: miter"/>
    </g>
    <g clip-path="url(#pffe7caa103)">
     <!-- 0.998907091156167 -->
     <g transform="translate(689.838536 457.67509) rotate(-51.837971) scale(0.05 -0.05)">
      <use xlink:href="#DejaVuSans-30"/>
      <use xlink:href="#DejaVuSans-2e" transform="translate(63.623047 0)"/>
      <use xlink:href="#DejaVuSans-39" transform="translate(95.410156 0)"/>
      <use xlink:href="#DejaVuSans-39" transform="translate(159.033203 0)"/>
      <use xlink:href="#DejaVuSans-38" transform="translate(222.65625 0)"/>
      <use xlink:href="#DejaVuSans-39" transform="translate(286.279297 0)"/>
      <use xlink:href="#DejaVuSans-30" transform="translate(349.902344 0)"/>
      <use xlink:href="#DejaVuSans-37" transform="translate(413.525391 0)"/>
      <use xlink:href="#DejaVuSans-30" transform="translate(477.148438 0)"/>
      <use xlink:href="#DejaVuSans-39" transform="translate(540.771484 0)"/>
      <use xlink:href="#DejaVuSans-31" transform="translate(604.394531 0)"/>
      <use xlink:href="#DejaVuSans-31" transform="translate(668.017578 0)"/>
      <use xlink:href="#DejaVuSans-35" transform="translate(731.640625 0)"/>
      <use xlink:href="#DejaVuSans-36" transform="translate(795.263672 0)"/>
      <use xlink:href="#DejaVuSans-31" transform="translate(858.886719 0)"/>
      <use xlink:href="#DejaVuSans-36" transform="translate(922.509766 0)"/>
      <use xlink:href="#DejaVuSans-37" transform="translate(986.132812 0)"/>
     </g>
    </g>
   </g>
   <g id="text_17">
    <g id="patch_19">
     <path d="M 639.102175 745.491562 
L 659.471361 797.301599 
Q 660.020195 798.697587 661.416183 798.148752 
L 665.919696 796.37819 
Q 667.315684 795.829355 666.766849 794.433368 
L 646.397663 742.623331 
Q 645.848829 741.227343 644.452841 741.776178 
L 639.949328 743.54674 
Q 638.55334 744.095575 639.102175 745.491562 
z
" clip-path="url(#pffe7caa103)" style="fill: #ffffff; stroke: #ffffff; stroke-linejoin: miter"/>
    </g>
    <g clip-path="url(#pffe7caa103)">
     <!-- 0.9983869371816085 -->
     <g transform="translate(641.465901 744.56226) rotate(-291.462338) scale(0.05 -0.05)">
      <use xlink:href="#DejaVuSans-30"/>
      <use xlink:href="#DejaVuSans-2e" transform="translate(63.623047 0)"/>
      <use xlink:href="#DejaVuSans-39" transform="translate(95.410156 0)"/>
      <use xlink:href="#DejaVuSans-39" transform="translate(159.033203 0)"/>
      <use xlink:href="#DejaVuSans-38" transform="translate(222.65625 0)"/>
      <use xlink:href="#DejaVuSans-33" transform="translate(286.279297 0)"/>
      <use xlink:href="#DejaVuSans-38" transform="translate(349.902344 0)"/>
      <use xlink:href="#DejaVuSans-36" transform="translate(413.525391 0)"/>
      <use xlink:href="#DejaVuSans-39" transform="translate(477.148438 0)"/>
      <use xlink:href="#DejaVuSans-33" transform="translate(540.771484 0)"/>
      <use xlink:href="#DejaVuSans-37" transform="translate(604.394531 0)"/>
      <use xlink:href="#DejaVuSans-31" transform="translate(668.017578 0)"/>
      <use xlink:href="#DejaVuSans-38" transform="translate(731.640625 0)"/>
      <use xlink:href="#DejaVuSans-31" transform="translate(795.263672 0)"/>
      <use xlink:href="#DejaVuSans-36" transform="translate(858.886719 0)"/>
      <use xlink:href="#DejaVuSans-30" transform="translate(922.509766 0)"/>
      <use xlink:href="#DejaVuSans-38" transform="translate(986.132812 0)"/>
      <use xlink:href="#DejaVuSans-35" transform="translate(1049.755859 0)"/>
     </g>
    </g>
   </g>
   <g id="text_18">
    <g id="patch_20">
     <path d="M 508.623586 379.73226 
L 525.103086 429.567265 
Q 525.574027 430.991419 526.998181 430.520478 
L 531.592561 429.001202 
Q 533.016715 428.530261 532.545774 427.106107 
L 516.066274 377.271102 
Q 515.595333 375.846948 514.171179 376.317889 
L 509.576799 377.837165 
Q 508.152645 378.308106 508.623586 379.73226 
z
" clip-path="url(#pffe7caa103)" style="fill: #ffffff; stroke: #ffffff; stroke-linejoin: miter"/>
    </g>
    <g clip-path="url(#pffe7caa103)">
     <!-- 0.995062493780109 -->
     <g transform="translate(511.035005 378.934849) rotate(-288.298081) scale(0.05 -0.05)">
      <use xlink:href="#DejaVuSans-30"/>
      <use xlink:href="#DejaVuSans-2e" transform="translate(63.623047 0)"/>
      <use xlink:href="#DejaVuSans-39" transform="translate(95.410156 0)"/>
      <use xlink:href="#DejaVuSans-39" transform="translate(159.033203 0)"/>
      <use xlink:href="#DejaVuSans-35" transform="translate(222.65625 0)"/>
      <use xlink:href="#DejaVuSans-30" transform="translate(286.279297 0)"/>
      <use xlink:href="#DejaVuSans-36" transform="translate(349.902344 0)"/>
      <use xlink:href="#DejaVuSans-32" transform="translate(413.525391 0)"/>
      <use xlink:href="#DejaVuSans-34" transform="translate(477.148438 0)"/>
      <use xlink:href="#DejaVuSans-39" transform="translate(540.771484 0)"/>
      <use xlink:href="#DejaVuSans-33" transform="translate(604.394531 0)"/>
      <use xlink:href="#DejaVuSans-37" transform="translate(668.017578 0)"/>
      <use xlink:href="#DejaVuSans-38" transform="translate(731.640625 0)"/>
      <use xlink:href="#DejaVuSans-30" transform="translate(795.263672 0)"/>
      <use xlink:href="#DejaVuSans-31" transform="translate(858.886719 0)"/>
      <use xlink:href="#DejaVuSans-30" transform="translate(922.509766 0)"/>
      <use xlink:href="#DejaVuSans-39" transform="translate(986.132812 0)"/>
     </g>
    </g>
   </g>
   <g id="text_19">
    <g id="patch_21">
     <path d="M 774.670092 642.633277 
L 783.245266 587.627368 
Q 783.476319 586.145269 781.994221 585.914217 
L 777.212911 585.168832 
Q 775.730812 584.93778 775.49976 586.419878 
L 766.924586 641.425787 
Q 766.693534 642.907886 768.175632 643.138938 
L 772.956942 643.884323 
Q 774.43904 644.115375 774.670092 642.633277 
z
" clip-path="url(#pffe7caa103)" style="fill: #ffffff; stroke: #ffffff; stroke-linejoin: miter"/>
    </g>
    <g clip-path="url(#pffe7caa103)">
     <!-- 0.9990906666515457 -->
     <g transform="translate(772.160561 642.242052) rotate(-81.139169) scale(0.05 -0.05)">
      <use xlink:href="#DejaVuSans-30"/>
      <use xlink:href="#DejaVuSans-2e" transform="translate(63.623047 0)"/>
      <use xlink:href="#DejaVuSans-39" transform="translate(95.410156 0)"/>
      <use xlink:href="#DejaVuSans-39" transform="translate(159.033203 0)"/>
      <use xlink:href="#DejaVuSans-39" transform="translate(222.65625 0)"/>
      <use xlink:href="#DejaVuSans-30" transform="translate(286.279297 0)"/>
      <use xlink:href="#DejaVuSans-39" transform="translate(349.902344 0)"/>
      <use xlink:href="#DejaVuSans-30" transform="translate(413.525391 0)"/>
      <use xlink:href="#DejaVuSans-36" transform="translate(477.148438 0)"/>
      <use xlink:href="#DejaVuSans-36" transform="translate(540.771484 0)"/>
      <use xlink:href="#DejaVuSans-36" transform="translate(604.394531 0)"/>
      <use xlink:href="#DejaVuSans-36" transform="translate(668.017578 0)"/>
      <use xlink:href="#DejaVuSans-35" transform="translate(731.640625 0)"/>
      <use xlink:href="#DejaVuSans-31" transform="translate(795.263672 0)"/>
      <use xlink:href="#DejaVuSans-35" transform="translate(858.886719 0)"/>
      <use xlink:href="#DejaVuSans-34" transform="translate(922.509766 0)"/>
      <use xlink:href="#DejaVuSans-35" transform="translate(986.132812 0)"/>
      <use xlink:href="#DejaVuSans-37" transform="translate(1049.755859 0)"/>
     </g>
    </g>
   </g>
   <g id="text_20">
    <g id="patch_22">
     <path d="M 577.559443 556.909357 
L 596.465919 609.270878 
Q 596.975342 610.681725 598.386188 610.172302 
L 602.937639 608.528884 
Q 604.348486 608.019461 603.839063 606.608614 
L 584.932587 554.247093 
Q 584.423164 552.836247 583.012318 553.345669 
L 578.460867 554.989088 
Q 577.05002 555.49851 577.559443 556.909357 
z
" clip-path="url(#pffe7caa103)" style="fill: #ffffff; stroke: #ffffff; stroke-linejoin: miter"/>
    </g>
    <g clip-path="url(#pffe7caa103)">
     <!-- 0.9978547376944826 -->
     <g transform="translate(579.94833 556.046788) rotate(-289.853423) scale(0.05 -0.05)">
      <use xlink:href="#DejaVuSans-30"/>
      <use xlink:href="#DejaVuSans-2e" transform="translate(63.623047 0)"/>
      <use xlink:href="#DejaVuSans-39" transform="translate(95.410156 0)"/>
      <use xlink:href="#DejaVuSans-39" transform="translate(159.033203 0)"/>
      <use xlink:href="#DejaVuSans-37" transform="translate(222.65625 0)"/>
      <use xlink:href="#DejaVuSans-38" transform="translate(286.279297 0)"/>
      <use xlink:href="#DejaVuSans-35" transform="translate(349.902344 0)"/>
      <use xlink:href="#DejaVuSans-34" transform="translate(413.525391 0)"/>
      <use xlink:href="#DejaVuSans-37" transform="translate(477.148438 0)"/>
      <use xlink:href="#DejaVuSans-33" transform="translate(540.771484 0)"/>
      <use xlink:href="#DejaVuSans-37" transform="translate(604.394531 0)"/>
      <use xlink:href="#DejaVuSans-36" transform="translate(668.017578 0)"/>
      <use xlink:href="#DejaVuSans-39" transform="translate(731.640625 0)"/>
      <use xlink:href="#DejaVuSans-34" transform="translate(795.263672 0)"/>
      <use xlink:href="#DejaVuSans-34" transform="translate(858.886719 0)"/>
      <use xlink:href="#DejaVuSans-38" transform="translate(922.509766 0)"/>
      <use xlink:href="#DejaVuSans-32" transform="translate(986.132812 0)"/>
      <use xlink:href="#DejaVuSans-36" transform="translate(1049.755859 0)"/>
     </g>
    </g>
   </g>
   <g id="text_21">
    <g id="patch_23">
     <path d="M 614.642708 246.971813 
L 669.454168 256.712833 
Q 670.931027 256.975298 671.193493 255.498439 
L 672.040217 250.734031 
Q 672.302682 249.257172 670.825823 248.994707 
L 616.014363 239.253687 
Q 614.537504 238.991222 614.275038 240.468081 
L 613.428314 245.232489 
Q 613.165849 246.709348 614.642708 246.971813 
z
" clip-path="url(#pffe7caa103)" style="fill: #ffffff; stroke: #ffffff; stroke-linejoin: miter"/>
    </g>
    <g clip-path="url(#pffe7caa103)">
     <!-- 0.9969288538331201 -->
     <g transform="translate(615.087122 244.471153) rotate(-349.922685) scale(0.05 -0.05)">
      <use xlink:href="#DejaVuSans-30"/>
      <use xlink:href="#DejaVuSans-2e" transform="translate(63.623047 0)"/>
      <use xlink:href="#DejaVuSans-39" transform="translate(95.410156 0)"/>
      <use xlink:href="#DejaVuSans-39" transform="translate(159.033203 0)"/>
      <use xlink:href="#DejaVuSans-36" transform="translate(222.65625 0)"/>
      <use xlink:href="#DejaVuSans-39" transform="translate(286.279297 0)"/>
      <use xlink:href="#DejaVuSans-32" transform="translate(349.902344 0)"/>
      <use xlink:href="#DejaVuSans-38" transform="translate(413.525391 0)"/>
      <use xlink:href="#DejaVuSans-38" transform="translate(477.148438 0)"/>
      <use xlink:href="#DejaVuSans-35" transform="translate(540.771484 0)"/>
      <use xlink:href="#DejaVuSans-33" transform="translate(604.394531 0)"/>
      <use xlink:href="#DejaVuSans-38" transform="translate(668.017578 0)"/>
      <use xlink:href="#DejaVuSans-33" transform="translate(731.640625 0)"/>
      <use xlink:href="#DejaVuSans-33" transform="translate(795.263672 0)"/>
      <use xlink:href="#DejaVuSans-31" transform="translate(858.886719 0)"/>
      <use xlink:href="#DejaVuSans-32" transform="translate(922.509766 0)"/>
      <use xlink:href="#DejaVuSans-30" transform="translate(986.132812 0)"/>
      <use xlink:href="#DejaVuSans-31" transform="translate(1049.755859 0)"/>
     </g>
    </g>
   </g>
   <g id="matplotlib.axis_1">
    <g id="xtick_1"/>
    <g id="xtick_2"/>
    <g id="xtick_3"/>
    <g id="xtick_4"/>
    <g id="xtick_5"/>
   </g>
   <g id="matplotlib.axis_2">
    <g id="ytick_1"/>
    <g id="ytick_2"/>
    <g id="ytick_3"/>
    <g id="ytick_4"/>
    <g id="ytick_5"/>
   </g>
   <g id="PathCollection_1">
    <defs>
     <path id="mf5ccef20a3" d="M 0 10 
C 2.652031 10 5.195799 8.946337 7.071068 7.071068 
C 8.946337 5.195799 10 2.652031 10 0 
C 10 -2.652031 8.946337 -5.195799 7.071068 -7.071068 
C 5.195799 -8.946337 2.652031 -10 0 -10 
C -2.652031 -10 -5.195799 -8.946337 -7.071068 -7.071068 
C -8.946337 -5.195799 -10 -2.652031 -10 0 
C -10 2.652031 -8.946337 5.195799 -7.071068 7.071068 
C -5.195799 8.946337 -2.652031 10 0 10 
z
" style="stroke: #1f78b4"/>
    </defs>
    <g clip-path="url(#pffe7caa103)">
     <use xlink:href="#mf5ccef20a3" x="959.32562" y="645.822718" style="fill: #1f78b4; stroke: #1f78b4"/>
     <use xlink:href="#mf5ccef20a3" x="343.157717" y="897.726511" style="fill: #1f78b4; stroke: #1f78b4"/>
     <use xlink:href="#mf5ccef20a3" x="221.47438" y="518.564141" style="fill: #1f78b4; stroke: #1f78b4"/>
     <use xlink:href="#mf5ccef20a3" x="582.820359" y="591.623633" style="fill: #1f78b4; stroke: #1f78b4"/>
     <use xlink:href="#mf5ccef20a3" x="723.0503" y="948.305455" style="fill: #1f78b4; stroke: #1f78b4"/>
     <use xlink:href="#mf5ccef20a3" x="827.118905" y="280.751853" style="fill: #1f78b4; stroke: #1f78b4"/>
     <use xlink:href="#mf5ccef20a3" x="458.348939" y="215.214545" style="fill: #1f78b4; stroke: #1f78b4"/>
    </g>
   </g>
   <g id="patch_24">
    <path d="M 144 1025.28 
L 144 138.24 
" style="fill: none; stroke: #000000; stroke-width: 0.8; stroke-linejoin: miter; stroke-linecap: square"/>
   </g>
   <g id="patch_25">
    <path d="M 1036.8 1025.28 
L 1036.8 138.24 
" style="fill: none; stroke: #000000; stroke-width: 0.8; stroke-linejoin: miter; stroke-linecap: square"/>
   </g>
   <g id="patch_26">
    <path d="M 144 1025.28 
L 1036.8 1025.28 
" style="fill: none; stroke: #000000; stroke-width: 0.8; stroke-linejoin: miter; stroke-linecap: square"/>
   </g>
   <g id="patch_27">
    <path d="M 144 138.24 
L 1036.8 138.24 
" style="fill: none; stroke: #000000; stroke-width: 0.8; stroke-linejoin: miter; stroke-linecap: square"/>
   </g>
   <g id="text_22">
    <g clip-path="url(#pffe7caa103)">
     <!-- hamlet -->
     <g transform="translate(935.758745 649.133968) scale(0.12 -0.12)">
      <defs>
       <path id="DejaVuSans-Bold-68" d="M 4056 2131 
L 4056 0 
L 2931 0 
L 2931 347 
L 2931 1625 
Q 2931 2084 2911 2256 
Q 2891 2428 2841 2509 
Q 2775 2619 2662 2680 
Q 2550 2741 2406 2741 
Q 2056 2741 1856 2470 
Q 1656 2200 1656 1722 
L 1656 0 
L 538 0 
L 538 4863 
L 1656 4863 
L 1656 2988 
Q 1909 3294 2193 3439 
Q 2478 3584 2822 3584 
Q 3428 3584 3742 3212 
Q 4056 2841 4056 2131 
z
" transform="scale(0.015625)"/>
       <path id="DejaVuSans-Bold-61" d="M 2106 1575 
Q 1756 1575 1579 1456 
Q 1403 1338 1403 1106 
Q 1403 894 1545 773 
Q 1688 653 1941 653 
Q 2256 653 2472 879 
Q 2688 1106 2688 1447 
L 2688 1575 
L 2106 1575 
z
M 3816 1997 
L 3816 0 
L 2688 0 
L 2688 519 
Q 2463 200 2181 54 
Q 1900 -91 1497 -91 
Q 953 -91 614 226 
Q 275 544 275 1050 
Q 275 1666 698 1953 
Q 1122 2241 2028 2241 
L 2688 2241 
L 2688 2328 
Q 2688 2594 2478 2717 
Q 2269 2841 1825 2841 
Q 1466 2841 1156 2769 
Q 847 2697 581 2553 
L 581 3406 
Q 941 3494 1303 3539 
Q 1666 3584 2028 3584 
Q 2975 3584 3395 3211 
Q 3816 2838 3816 1997 
z
" transform="scale(0.015625)"/>
       <path id="DejaVuSans-Bold-6d" d="M 3781 2919 
Q 3994 3244 4286 3414 
Q 4578 3584 4928 3584 
Q 5531 3584 5847 3212 
Q 6163 2841 6163 2131 
L 6163 0 
L 5038 0 
L 5038 1825 
Q 5041 1866 5042 1909 
Q 5044 1953 5044 2034 
Q 5044 2406 4934 2573 
Q 4825 2741 4581 2741 
Q 4263 2741 4089 2478 
Q 3916 2216 3909 1719 
L 3909 0 
L 2784 0 
L 2784 1825 
Q 2784 2406 2684 2573 
Q 2584 2741 2328 2741 
Q 2006 2741 1831 2477 
Q 1656 2213 1656 1722 
L 1656 0 
L 531 0 
L 531 3500 
L 1656 3500 
L 1656 2988 
Q 1863 3284 2130 3434 
Q 2397 3584 2719 3584 
Q 3081 3584 3359 3409 
Q 3638 3234 3781 2919 
z
" transform="scale(0.015625)"/>
       <path id="DejaVuSans-Bold-6c" d="M 538 4863 
L 1656 4863 
L 1656 0 
L 538 0 
L 538 4863 
z
" transform="scale(0.015625)"/>
       <path id="DejaVuSans-Bold-65" d="M 4031 1759 
L 4031 1441 
L 1416 1441 
Q 1456 1047 1700 850 
Q 1944 653 2381 653 
Q 2734 653 3104 758 
Q 3475 863 3866 1075 
L 3866 213 
Q 3469 63 3072 -14 
Q 2675 -91 2278 -91 
Q 1328 -91 801 392 
Q 275 875 275 1747 
Q 275 2603 792 3093 
Q 1309 3584 2216 3584 
Q 3041 3584 3536 3087 
Q 4031 2591 4031 1759 
z
M 2881 2131 
Q 2881 2450 2695 2645 
Q 2509 2841 2209 2841 
Q 1884 2841 1681 2658 
Q 1478 2475 1428 2131 
L 2881 2131 
z
" transform="scale(0.015625)"/>
       <path id="DejaVuSans-Bold-74" d="M 1759 4494 
L 1759 3500 
L 2913 3500 
L 2913 2700 
L 1759 2700 
L 1759 1216 
Q 1759 972 1856 886 
Q 1953 800 2241 800 
L 2816 800 
L 2816 0 
L 1856 0 
Q 1194 0 917 276 
Q 641 553 641 1216 
L 641 2700 
L 84 2700 
L 84 3500 
L 641 3500 
L 641 4494 
L 1759 4494 
z
" transform="scale(0.015625)"/>
      </defs>
      <use xlink:href="#DejaVuSans-Bold-68"/>
      <use xlink:href="#DejaVuSans-Bold-61" transform="translate(71.191406 0)"/>
      <use xlink:href="#DejaVuSans-Bold-6d" transform="translate(138.671875 0)"/>
      <use xlink:href="#DejaVuSans-Bold-6c" transform="translate(242.871094 0)"/>
      <use xlink:href="#DejaVuSans-Bold-65" transform="translate(277.148438 0)"/>
      <use xlink:href="#DejaVuSans-Bold-74" transform="translate(344.970703 0)"/>
     </g>
    </g>
   </g>
   <g id="text_23">
    <g clip-path="url(#pffe7caa103)">
     <!-- king -->
     <g transform="translate(328.544904 900.990886) scale(0.12 -0.12)">
      <defs>
       <path id="DejaVuSans-Bold-6b" d="M 538 4863 
L 1656 4863 
L 1656 2216 
L 2944 3500 
L 4244 3500 
L 2534 1894 
L 4378 0 
L 3022 0 
L 1656 1459 
L 1656 0 
L 538 0 
L 538 4863 
z
" transform="scale(0.015625)"/>
       <path id="DejaVuSans-Bold-69" d="M 538 3500 
L 1656 3500 
L 1656 0 
L 538 0 
L 538 3500 
z
M 538 4863 
L 1656 4863 
L 1656 3950 
L 538 3950 
L 538 4863 
z
" transform="scale(0.015625)"/>
       <path id="DejaVuSans-Bold-6e" d="M 4056 2131 
L 4056 0 
L 2931 0 
L 2931 347 
L 2931 1631 
Q 2931 2084 2911 2256 
Q 2891 2428 2841 2509 
Q 2775 2619 2662 2680 
Q 2550 2741 2406 2741 
Q 2056 2741 1856 2470 
Q 1656 2200 1656 1722 
L 1656 0 
L 538 0 
L 538 3500 
L 1656 3500 
L 1656 2988 
Q 1909 3294 2193 3439 
Q 2478 3584 2822 3584 
Q 3428 3584 3742 3212 
Q 4056 2841 4056 2131 
z
" transform="scale(0.015625)"/>
       <path id="DejaVuSans-Bold-67" d="M 2919 594 
Q 2688 288 2409 144 
Q 2131 0 1766 0 
Q 1125 0 706 504 
Q 288 1009 288 1791 
Q 288 2575 706 3076 
Q 1125 3578 1766 3578 
Q 2131 3578 2409 3434 
Q 2688 3291 2919 2981 
L 2919 3500 
L 4044 3500 
L 4044 353 
Q 4044 -491 3511 -936 
Q 2978 -1381 1966 -1381 
Q 1638 -1381 1331 -1331 
Q 1025 -1281 716 -1178 
L 716 -306 
Q 1009 -475 1290 -558 
Q 1572 -641 1856 -641 
Q 2406 -641 2662 -400 
Q 2919 -159 2919 353 
L 2919 594 
z
M 2181 2772 
Q 1834 2772 1640 2515 
Q 1447 2259 1447 1791 
Q 1447 1309 1634 1061 
Q 1822 813 2181 813 
Q 2531 813 2725 1069 
Q 2919 1325 2919 1791 
Q 2919 2259 2725 2515 
Q 2531 2772 2181 2772 
z
" transform="scale(0.015625)"/>
      </defs>
      <use xlink:href="#DejaVuSans-Bold-6b"/>
      <use xlink:href="#DejaVuSans-Bold-69" transform="translate(66.503906 0)"/>
      <use xlink:href="#DejaVuSans-Bold-6e" transform="translate(100.78125 0)"/>
      <use xlink:href="#DejaVuSans-Bold-67" transform="translate(171.972656 0)"/>
     </g>
    </g>
   </g>
   <g id="text_24">
    <g clip-path="url(#pffe7caa103)">
     <!-- horatio -->
     <g transform="translate(197.026255 521.875391) scale(0.12 -0.12)">
      <defs>
       <path id="DejaVuSans-Bold-6f" d="M 2203 2784 
Q 1831 2784 1636 2517 
Q 1441 2250 1441 1747 
Q 1441 1244 1636 976 
Q 1831 709 2203 709 
Q 2569 709 2762 976 
Q 2956 1244 2956 1747 
Q 2956 2250 2762 2517 
Q 2569 2784 2203 2784 
z
M 2203 3584 
Q 3106 3584 3614 3096 
Q 4122 2609 4122 1747 
Q 4122 884 3614 396 
Q 3106 -91 2203 -91 
Q 1297 -91 786 396 
Q 275 884 275 1747 
Q 275 2609 786 3096 
Q 1297 3584 2203 3584 
z
" transform="scale(0.015625)"/>
       <path id="DejaVuSans-Bold-72" d="M 3138 2547 
Q 2991 2616 2845 2648 
Q 2700 2681 2553 2681 
Q 2122 2681 1889 2404 
Q 1656 2128 1656 1613 
L 1656 0 
L 538 0 
L 538 3500 
L 1656 3500 
L 1656 2925 
Q 1872 3269 2151 3426 
Q 2431 3584 2822 3584 
Q 2878 3584 2943 3579 
Q 3009 3575 3134 3559 
L 3138 2547 
z
" transform="scale(0.015625)"/>
      </defs>
      <use xlink:href="#DejaVuSans-Bold-68"/>
      <use xlink:href="#DejaVuSans-Bold-6f" transform="translate(71.191406 0)"/>
      <use xlink:href="#DejaVuSans-Bold-72" transform="translate(139.892578 0)"/>
      <use xlink:href="#DejaVuSans-Bold-61" transform="translate(189.208984 0)"/>
      <use xlink:href="#DejaVuSans-Bold-74" transform="translate(256.689453 0)"/>
      <use xlink:href="#DejaVuSans-Bold-69" transform="translate(304.492188 0)"/>
      <use xlink:href="#DejaVuSans-Bold-6f" transform="translate(338.769531 0)"/>
     </g>
    </g>
   </g>
   <g id="text_25">
    <g clip-path="url(#pffe7caa103)">
     <!-- polonius -->
     <g transform="translate(554.054109 594.934883) scale(0.12 -0.12)">
      <defs>
       <path id="DejaVuSans-Bold-70" d="M 1656 506 
L 1656 -1331 
L 538 -1331 
L 538 3500 
L 1656 3500 
L 1656 2988 
Q 1888 3294 2169 3439 
Q 2450 3584 2816 3584 
Q 3463 3584 3878 3070 
Q 4294 2556 4294 1747 
Q 4294 938 3878 423 
Q 3463 -91 2816 -91 
Q 2450 -91 2169 54 
Q 1888 200 1656 506 
z
M 2400 2772 
Q 2041 2772 1848 2508 
Q 1656 2244 1656 1747 
Q 1656 1250 1848 986 
Q 2041 722 2400 722 
Q 2759 722 2948 984 
Q 3138 1247 3138 1747 
Q 3138 2247 2948 2509 
Q 2759 2772 2400 2772 
z
" transform="scale(0.015625)"/>
       <path id="DejaVuSans-Bold-75" d="M 500 1363 
L 500 3500 
L 1625 3500 
L 1625 3150 
Q 1625 2866 1622 2436 
Q 1619 2006 1619 1863 
Q 1619 1441 1641 1255 
Q 1663 1069 1716 984 
Q 1784 875 1895 815 
Q 2006 756 2150 756 
Q 2500 756 2700 1025 
Q 2900 1294 2900 1772 
L 2900 3500 
L 4019 3500 
L 4019 0 
L 2900 0 
L 2900 506 
Q 2647 200 2364 54 
Q 2081 -91 1741 -91 
Q 1134 -91 817 281 
Q 500 653 500 1363 
z
" transform="scale(0.015625)"/>
       <path id="DejaVuSans-Bold-73" d="M 3272 3391 
L 3272 2541 
Q 2913 2691 2578 2766 
Q 2244 2841 1947 2841 
Q 1628 2841 1473 2761 
Q 1319 2681 1319 2516 
Q 1319 2381 1436 2309 
Q 1553 2238 1856 2203 
L 2053 2175 
Q 2913 2066 3209 1816 
Q 3506 1566 3506 1031 
Q 3506 472 3093 190 
Q 2681 -91 1863 -91 
Q 1516 -91 1145 -36 
Q 775 19 384 128 
L 384 978 
Q 719 816 1070 734 
Q 1422 653 1784 653 
Q 2113 653 2278 743 
Q 2444 834 2444 1013 
Q 2444 1163 2330 1236 
Q 2216 1309 1875 1350 
L 1678 1375 
Q 931 1469 631 1722 
Q 331 1975 331 2491 
Q 331 3047 712 3315 
Q 1094 3584 1881 3584 
Q 2191 3584 2531 3537 
Q 2872 3491 3272 3391 
z
" transform="scale(0.015625)"/>
      </defs>
      <use xlink:href="#DejaVuSans-Bold-70"/>
      <use xlink:href="#DejaVuSans-Bold-6f" transform="translate(71.582031 0)"/>
      <use xlink:href="#DejaVuSans-Bold-6c" transform="translate(140.283203 0)"/>
      <use xlink:href="#DejaVuSans-Bold-6f" transform="translate(174.560547 0)"/>
      <use xlink:href="#DejaVuSans-Bold-6e" transform="translate(243.261719 0)"/>
      <use xlink:href="#DejaVuSans-Bold-69" transform="translate(314.453125 0)"/>
      <use xlink:href="#DejaVuSans-Bold-75" transform="translate(348.730469 0)"/>
      <use xlink:href="#DejaVuSans-Bold-73" transform="translate(419.921875 0)"/>
     </g>
    </g>
   </g>
   <g id="text_26">
    <g clip-path="url(#pffe7caa103)">
     <!-- queen -->
     <g transform="translate(702.073737 951.616705) scale(0.12 -0.12)">
      <defs>
       <path id="DejaVuSans-Bold-71" d="M 2181 2772 
Q 1825 2772 1636 2509 
Q 1447 2247 1447 1747 
Q 1447 1247 1636 984 
Q 1825 722 2181 722 
Q 2541 722 2730 984 
Q 2919 1247 2919 1747 
Q 2919 2247 2730 2509 
Q 2541 2772 2181 2772 
z
M 2919 506 
Q 2688 197 2409 53 
Q 2131 -91 1766 -91 
Q 1119 -91 703 423 
Q 288 938 288 1747 
Q 288 2556 703 3067 
Q 1119 3578 1766 3578 
Q 2131 3578 2409 3434 
Q 2688 3291 2919 2981 
L 2919 3500 
L 4044 3500 
L 4044 -1331 
L 2919 -1331 
L 2919 506 
z
" transform="scale(0.015625)"/>
      </defs>
      <use xlink:href="#DejaVuSans-Bold-71"/>
      <use xlink:href="#DejaVuSans-Bold-75" transform="translate(71.582031 0)"/>
      <use xlink:href="#DejaVuSans-Bold-65" transform="translate(142.773438 0)"/>
      <use xlink:href="#DejaVuSans-Bold-65" transform="translate(210.595703 0)"/>
      <use xlink:href="#DejaVuSans-Bold-6e" transform="translate(278.417969 0)"/>
     </g>
    </g>
   </g>
   <g id="text_27">
    <g clip-path="url(#pffe7caa103)">
     <!-- ophelia -->
     <g transform="translate(802.19828 284.063103) scale(0.12 -0.12)">
      <use xlink:href="#DejaVuSans-Bold-6f"/>
      <use xlink:href="#DejaVuSans-Bold-70" transform="translate(68.701172 0)"/>
      <use xlink:href="#DejaVuSans-Bold-68" transform="translate(140.283203 0)"/>
      <use xlink:href="#DejaVuSans-Bold-65" transform="translate(211.474609 0)"/>
      <use xlink:href="#DejaVuSans-Bold-6c" transform="translate(279.296875 0)"/>
      <use xlink:href="#DejaVuSans-Bold-69" transform="translate(313.574219 0)"/>
      <use xlink:href="#DejaVuSans-Bold-61" transform="translate(347.851562 0)"/>
     </g>
    </g>
   </g>
   <g id="text_28">
    <g clip-path="url(#pffe7caa103)">
     <!-- laertes -->
     <g transform="translate(434.706126 218.525795) scale(0.12 -0.12)">
      <use xlink:href="#DejaVuSans-Bold-6c"/>
      <use xlink:href="#DejaVuSans-Bold-61" transform="translate(34.277344 0)"/>
      <use xlink:href="#DejaVuSans-Bold-65" transform="translate(101.757812 0)"/>
      <use xlink:href="#DejaVuSans-Bold-72" transform="translate(169.580078 0)"/>
      <use xlink:href="#DejaVuSans-Bold-74" transform="translate(218.896484 0)"/>
      <use xlink:href="#DejaVuSans-Bold-65" transform="translate(266.699219 0)"/>
      <use xlink:href="#DejaVuSans-Bold-73" transform="translate(334.521484 0)"/>
     </g>
    </g>
   </g>
   <g id="text_29">
    <!-- Hamlet W2V Cosine Similarity -->
    <g transform="translate(500.565 132.24) scale(0.12 -0.12)">
     <defs>
      <path id="DejaVuSans-48" d="M 628 4666 
L 1259 4666 
L 1259 2753 
L 3553 2753 
L 3553 4666 
L 4184 4666 
L 4184 0 
L 3553 0 
L 3553 2222 
L 1259 2222 
L 1259 0 
L 628 0 
L 628 4666 
z
" transform="scale(0.015625)"/>
      <path id="DejaVuSans-61" d="M 2194 1759 
Q 1497 1759 1228 1600 
Q 959 1441 959 1056 
Q 959 750 1161 570 
Q 1363 391 1709 391 
Q 2188 391 2477 730 
Q 2766 1069 2766 1631 
L 2766 1759 
L 2194 1759 
z
M 3341 1997 
L 3341 0 
L 2766 0 
L 2766 531 
Q 2569 213 2275 61 
Q 1981 -91 1556 -91 
Q 1019 -91 701 211 
Q 384 513 384 1019 
Q 384 1609 779 1909 
Q 1175 2209 1959 2209 
L 2766 2209 
L 2766 2266 
Q 2766 2663 2505 2880 
Q 2244 3097 1772 3097 
Q 1472 3097 1187 3025 
Q 903 2953 641 2809 
L 641 3341 
Q 956 3463 1253 3523 
Q 1550 3584 1831 3584 
Q 2591 3584 2966 3190 
Q 3341 2797 3341 1997 
z
" transform="scale(0.015625)"/>
      <path id="DejaVuSans-6d" d="M 3328 2828 
Q 3544 3216 3844 3400 
Q 4144 3584 4550 3584 
Q 5097 3584 5394 3201 
Q 5691 2819 5691 2113 
L 5691 0 
L 5113 0 
L 5113 2094 
Q 5113 2597 4934 2840 
Q 4756 3084 4391 3084 
Q 3944 3084 3684 2787 
Q 3425 2491 3425 1978 
L 3425 0 
L 2847 0 
L 2847 2094 
Q 2847 2600 2669 2842 
Q 2491 3084 2119 3084 
Q 1678 3084 1418 2786 
Q 1159 2488 1159 1978 
L 1159 0 
L 581 0 
L 581 3500 
L 1159 3500 
L 1159 2956 
Q 1356 3278 1631 3431 
Q 1906 3584 2284 3584 
Q 2666 3584 2933 3390 
Q 3200 3197 3328 2828 
z
" transform="scale(0.015625)"/>
      <path id="DejaVuSans-6c" d="M 603 4863 
L 1178 4863 
L 1178 0 
L 603 0 
L 603 4863 
z
" transform="scale(0.015625)"/>
      <path id="DejaVuSans-65" d="M 3597 1894 
L 3597 1613 
L 953 1613 
Q 991 1019 1311 708 
Q 1631 397 2203 397 
Q 2534 397 2845 478 
Q 3156 559 3463 722 
L 3463 178 
Q 3153 47 2828 -22 
Q 2503 -91 2169 -91 
Q 1331 -91 842 396 
Q 353 884 353 1716 
Q 353 2575 817 3079 
Q 1281 3584 2069 3584 
Q 2775 3584 3186 3129 
Q 3597 2675 3597 1894 
z
M 3022 2063 
Q 3016 2534 2758 2815 
Q 2500 3097 2075 3097 
Q 1594 3097 1305 2825 
Q 1016 2553 972 2059 
L 3022 2063 
z
" transform="scale(0.015625)"/>
      <path id="DejaVuSans-74" d="M 1172 4494 
L 1172 3500 
L 2356 3500 
L 2356 3053 
L 1172 3053 
L 1172 1153 
Q 1172 725 1289 603 
Q 1406 481 1766 481 
L 2356 481 
L 2356 0 
L 1766 0 
Q 1100 0 847 248 
Q 594 497 594 1153 
L 594 3053 
L 172 3053 
L 172 3500 
L 594 3500 
L 594 4494 
L 1172 4494 
z
" transform="scale(0.015625)"/>
      <path id="DejaVuSans-20" transform="scale(0.015625)"/>
      <path id="DejaVuSans-57" d="M 213 4666 
L 850 4666 
L 1831 722 
L 2809 4666 
L 3519 4666 
L 4500 722 
L 5478 4666 
L 6119 4666 
L 4947 0 
L 4153 0 
L 3169 4050 
L 2175 0 
L 1381 0 
L 213 4666 
z
" transform="scale(0.015625)"/>
      <path id="DejaVuSans-56" d="M 1831 0 
L 50 4666 
L 709 4666 
L 2188 738 
L 3669 4666 
L 4325 4666 
L 2547 0 
L 1831 0 
z
" transform="scale(0.015625)"/>
      <path id="DejaVuSans-43" d="M 4122 4306 
L 4122 3641 
Q 3803 3938 3442 4084 
Q 3081 4231 2675 4231 
Q 1875 4231 1450 3742 
Q 1025 3253 1025 2328 
Q 1025 1406 1450 917 
Q 1875 428 2675 428 
Q 3081 428 3442 575 
Q 3803 722 4122 1019 
L 4122 359 
Q 3791 134 3420 21 
Q 3050 -91 2638 -91 
Q 1578 -91 968 557 
Q 359 1206 359 2328 
Q 359 3453 968 4101 
Q 1578 4750 2638 4750 
Q 3056 4750 3426 4639 
Q 3797 4528 4122 4306 
z
" transform="scale(0.015625)"/>
      <path id="DejaVuSans-6f" d="M 1959 3097 
Q 1497 3097 1228 2736 
Q 959 2375 959 1747 
Q 959 1119 1226 758 
Q 1494 397 1959 397 
Q 2419 397 2687 759 
Q 2956 1122 2956 1747 
Q 2956 2369 2687 2733 
Q 2419 3097 1959 3097 
z
M 1959 3584 
Q 2709 3584 3137 3096 
Q 3566 2609 3566 1747 
Q 3566 888 3137 398 
Q 2709 -91 1959 -91 
Q 1206 -91 779 398 
Q 353 888 353 1747 
Q 353 2609 779 3096 
Q 1206 3584 1959 3584 
z
" transform="scale(0.015625)"/>
      <path id="DejaVuSans-73" d="M 2834 3397 
L 2834 2853 
Q 2591 2978 2328 3040 
Q 2066 3103 1784 3103 
Q 1356 3103 1142 2972 
Q 928 2841 928 2578 
Q 928 2378 1081 2264 
Q 1234 2150 1697 2047 
L 1894 2003 
Q 2506 1872 2764 1633 
Q 3022 1394 3022 966 
Q 3022 478 2636 193 
Q 2250 -91 1575 -91 
Q 1294 -91 989 -36 
Q 684 19 347 128 
L 347 722 
Q 666 556 975 473 
Q 1284 391 1588 391 
Q 1994 391 2212 530 
Q 2431 669 2431 922 
Q 2431 1156 2273 1281 
Q 2116 1406 1581 1522 
L 1381 1569 
Q 847 1681 609 1914 
Q 372 2147 372 2553 
Q 372 3047 722 3315 
Q 1072 3584 1716 3584 
Q 2034 3584 2315 3537 
Q 2597 3491 2834 3397 
z
" transform="scale(0.015625)"/>
      <path id="DejaVuSans-69" d="M 603 3500 
L 1178 3500 
L 1178 0 
L 603 0 
L 603 3500 
z
M 603 4863 
L 1178 4863 
L 1178 4134 
L 603 4134 
L 603 4863 
z
" transform="scale(0.015625)"/>
      <path id="DejaVuSans-6e" d="M 3513 2113 
L 3513 0 
L 2938 0 
L 2938 2094 
Q 2938 2591 2744 2837 
Q 2550 3084 2163 3084 
Q 1697 3084 1428 2787 
Q 1159 2491 1159 1978 
L 1159 0 
L 581 0 
L 581 3500 
L 1159 3500 
L 1159 2956 
Q 1366 3272 1645 3428 
Q 1925 3584 2291 3584 
Q 2894 3584 3203 3211 
Q 3513 2838 3513 2113 
z
" transform="scale(0.015625)"/>
      <path id="DejaVuSans-53" d="M 3425 4513 
L 3425 3897 
Q 3066 4069 2747 4153 
Q 2428 4238 2131 4238 
Q 1616 4238 1336 4038 
Q 1056 3838 1056 3469 
Q 1056 3159 1242 3001 
Q 1428 2844 1947 2747 
L 2328 2669 
Q 3034 2534 3370 2195 
Q 3706 1856 3706 1288 
Q 3706 609 3251 259 
Q 2797 -91 1919 -91 
Q 1588 -91 1214 -16 
Q 841 59 441 206 
L 441 856 
Q 825 641 1194 531 
Q 1563 422 1919 422 
Q 2459 422 2753 634 
Q 3047 847 3047 1241 
Q 3047 1584 2836 1778 
Q 2625 1972 2144 2069 
L 1759 2144 
Q 1053 2284 737 2584 
Q 422 2884 422 3419 
Q 422 4038 858 4394 
Q 1294 4750 2059 4750 
Q 2388 4750 2728 4690 
Q 3069 4631 3425 4513 
z
" transform="scale(0.015625)"/>
      <path id="DejaVuSans-72" d="M 2631 2963 
Q 2534 3019 2420 3045 
Q 2306 3072 2169 3072 
Q 1681 3072 1420 2755 
Q 1159 2438 1159 1844 
L 1159 0 
L 581 0 
L 581 3500 
L 1159 3500 
L 1159 2956 
Q 1341 3275 1631 3429 
Q 1922 3584 2338 3584 
Q 2397 3584 2469 3576 
Q 2541 3569 2628 3553 
L 2631 2963 
z
" transform="scale(0.015625)"/>
      <path id="DejaVuSans-79" d="M 2059 -325 
Q 1816 -950 1584 -1140 
Q 1353 -1331 966 -1331 
L 506 -1331 
L 506 -850 
L 844 -850 
Q 1081 -850 1212 -737 
Q 1344 -625 1503 -206 
L 1606 56 
L 191 3500 
L 800 3500 
L 1894 763 
L 2988 3500 
L 3597 3500 
L 2059 -325 
z
" transform="scale(0.015625)"/>
     </defs>
     <use xlink:href="#DejaVuSans-48"/>
     <use xlink:href="#DejaVuSans-61" transform="translate(75.195312 0)"/>
     <use xlink:href="#DejaVuSans-6d" transform="translate(136.474609 0)"/>
     <use xlink:href="#DejaVuSans-6c" transform="translate(233.886719 0)"/>
     <use xlink:href="#DejaVuSans-65" transform="translate(261.669922 0)"/>
     <use xlink:href="#DejaVuSans-74" transform="translate(323.193359 0)"/>
     <use xlink:href="#DejaVuSans-20" transform="translate(362.402344 0)"/>
     <use xlink:href="#DejaVuSans-57" transform="translate(394.189453 0)"/>
     <use xlink:href="#DejaVuSans-32" transform="translate(493.066406 0)"/>
     <use xlink:href="#DejaVuSans-56" transform="translate(556.689453 0)"/>
     <use xlink:href="#DejaVuSans-20" transform="translate(625.097656 0)"/>
     <use xlink:href="#DejaVuSans-43" transform="translate(656.884766 0)"/>
     <use xlink:href="#DejaVuSans-6f" transform="translate(726.708984 0)"/>
     <use xlink:href="#DejaVuSans-73" transform="translate(787.890625 0)"/>
     <use xlink:href="#DejaVuSans-69" transform="translate(839.990234 0)"/>
     <use xlink:href="#DejaVuSans-6e" transform="translate(867.773438 0)"/>
     <use xlink:href="#DejaVuSans-65" transform="translate(931.152344 0)"/>
     <use xlink:href="#DejaVuSans-20" transform="translate(992.675781 0)"/>
     <use xlink:href="#DejaVuSans-53" transform="translate(1024.462891 0)"/>
     <use xlink:href="#DejaVuSans-69" transform="translate(1087.939453 0)"/>
     <use xlink:href="#DejaVuSans-6d" transform="translate(1115.722656 0)"/>
     <use xlink:href="#DejaVuSans-69" transform="translate(1213.134766 0)"/>
     <use xlink:href="#DejaVuSans-6c" transform="translate(1240.917969 0)"/>
     <use xlink:href="#DejaVuSans-61" transform="translate(1268.701172 0)"/>
     <use xlink:href="#DejaVuSans-72" transform="translate(1329.980469 0)"/>
     <use xlink:href="#DejaVuSans-69" transform="translate(1371.09375 0)"/>
     <use xlink:href="#DejaVuSans-74" transform="translate(1398.876953 0)"/>
     <use xlink:href="#DejaVuSans-79" transform="translate(1438.085938 0)"/>
    </g>
   </g>
  </g>
 </g>
 <defs>
  <clipPath id="pffe7caa103">
   <rect x="144" y="138.24" width="892.8" height="887.04"/>
  </clipPath>
 </defs>
</svg>
