<?xml version="1.0" encoding="utf-8" standalone="no"?>
<!DOCTYPE svg PUBLIC "-//W3C//DTD SVG 1.1//EN"
  "http://www.w3.org/Graphics/SVG/1.1/DTD/svg11.dtd">
<svg xmlns:xlink="http://www.w3.org/1999/xlink" width="1152pt" height="1152pt" viewBox="0 0 1152 1152" xmlns="http://www.w3.org/2000/svg" version="1.1">
 <metadata>
  <rdf:RDF xmlns:dc="http://purl.org/dc/elements/1.1/" xmlns:cc="http://creativecommons.org/ns#" xmlns:rdf="http://www.w3.org/1999/02/22-rdf-syntax-ns#">
   <cc:Work>
    <dc:type rdf:resource="http://purl.org/dc/dcmitype/StillImage"/>
    <dc:date>2025-12-16T13:48:24.470992</dc:date>
    <dc:format>image/svg+xml</dc:format>
    <dc:creator>
     <cc:Agent>
      <dc:title>Matplotlib v3.10.7, https://matplotlib.org/</dc:title>
     </cc:Agent>
    </dc:creator>
   </cc:Work>
  </rdf:RDF>
 </metadata>
 <defs>
  <style type="text/css">*{stroke-linejoin: round; stroke-linecap: butt}</style>
 </defs>
 <g id="figure_1">
  <g id="patch_1">
   <path d="M 0 1152 
L 1152 1152 
L 1152 0 
L 0 0 
z
" style="fill: #ffffff"/>
  </g>
  <g id="axes_1">
   <g id="patch_2">
    <path d="M 144 1025.28 
L 1036.8 1025.28 
L 1036.8 138.24 
L 144 138.24 
z
" style="fill: #ffffff"/>
   </g>
   <g id="LineCollection_1">
    <path d="M 360.6776 260.360937 
L 459.056565 948.305455 
" clip-path="url(#p0a0c8b8de5)" style="fill: none; stroke: #808080; stroke-width: 2"/>
    <path d="M 360.6776 260.360937 
L 639.639501 215.214545 
" clip-path="url(#p0a0c8b8de5)" style="fill: none; stroke: #808080; stroke-width: 2"/>
    <path d="M 360.6776 260.360937 
L 227.518047 426.438847 
" clip-path="url(#p0a0c8b8de5)" style="fill: none; stroke: #808080; stroke-width: 2"/>
    <path d="M 360.6776 260.360937 
L 959.32562 500.377438 
" clip-path="url(#p0a0c8b8de5)" style="fill: none; stroke: #808080; stroke-width: 2"/>
    <path d="M 360.6776 260.360937 
L 749.198778 889.750145 
" clip-path="url(#p0a0c8b8de5)" style="fill: none; stroke: #808080; stroke-width: 2"/>
    <path d="M 360.6776 260.360937 
L 886.705992 838.578966 
" clip-path="url(#p0a0c8b8de5)" style="fill: none; stroke: #808080; stroke-width: 2"/>
    <path d="M 459.056565 948.305455 
L 221.47438 554.349062 
" clip-path="url(#p0a0c8b8de5)" style="fill: none; stroke: #808080; stroke-width: 2"/>
    <path d="M 459.056565 948.305455 
L 749.198778 889.750145 
" clip-path="url(#p0a0c8b8de5)" style="fill: none; stroke: #808080; stroke-width: 2"/>
    <path d="M 459.056565 948.305455 
L 227.518047 426.438847 
" clip-path="url(#p0a0c8b8de5)" style="fill: none; stroke: #808080; stroke-width: 2"/>
    <path d="M 459.056565 948.305455 
L 959.32562 500.377438 
" clip-path="url(#p0a0c8b8de5)" style="fill: none; stroke: #808080; stroke-width: 2"/>
    <path d="M 459.056565 948.305455 
L 639.639501 215.214545 
" clip-path="url(#p0a0c8b8de5)" style="fill: none; stroke: #808080; stroke-width: 2"/>
    <path d="M 459.056565 948.305455 
L 886.705992 838.578966 
" clip-path="url(#p0a0c8b8de5)" style="fill: none; stroke: #808080; stroke-width: 2"/>
    <path d="M 639.639501 215.214545 
L 959.32562 500.377438 
" clip-path="url(#p0a0c8b8de5)" style="fill: none; stroke: #808080; stroke-width: 2"/>
    <path d="M 639.639501 215.214545 
L 227.518047 426.438847 
" clip-path="url(#p0a0c8b8de5)" style="fill: none; stroke: #808080; stroke-width: 2"/>
    <path d="M 639.639501 215.214545 
L 221.47438 554.349062 
" clip-path="url(#p0a0c8b8de5)" style="fill: none; stroke: #808080; stroke-width: 2"/>
    <path d="M 639.639501 215.214545 
L 749.198778 889.750145 
" clip-path="url(#p0a0c8b8de5)" style="fill: none; stroke: #808080; stroke-width: 2"/>
    <path d="M 639.639501 215.214545 
L 886.705992 838.578966 
" clip-path="url(#p0a0c8b8de5)" style="fill: none; stroke: #808080; stroke-width: 2"/>
    <path d="M 959.32562 500.377438 
L 227.518047 426.438847 
" clip-path="url(#p0a0c8b8de5)" style="fill: none; stroke: #808080; stroke-width: 2"/>
    <path d="M 959.32562 500.377438 
L 749.198778 889.750145 
" clip-path="url(#p0a0c8b8de5)" style="fill: none; stroke: #808080; stroke-width: 2"/>
    <path d="M 959.32562 500.377438 
L 886.705992 838.578966 
" clip-path="url(#p0a0c8b8de5)" style="fill: none; stroke: #808080; stroke-width: 2"/>
    <path d="M 227.518047 426.438847 
L 749.198778 889.750145 
" clip-path="url(#p0a0c8b8de5)" style="fill: none; stroke: #808080; stroke-width: 2"/>
    <path d="M 227.518047 426.438847 
L 886.705992 838.578966 
" clip-path="url(#p0a0c8b8de5)" style="fill: none; stroke: #808080; stroke-width: 2"/>
    <path d="M 749.198778 889.750145 
L 886.705992 838.578966 
" clip-path="url(#p0a0c8b8de5)" style="fill: none; stroke: #808080; stroke-width: 2"/>
   </g>
   <g id="text_1">
    <g id="patch_3">
     <path d="M 401.91874 576.439361 
L 410.055022 633.334762 
Q 410.267368 634.819656 411.752262 634.60731 
L 416.542591 633.922273 
Q 418.027484 633.709927 417.815138 632.225033 
L 409.678856 575.329631 
Q 409.46651 573.844738 407.981616 574.057084 
L 403.191288 574.742121 
Q 401.706394 574.954467 401.91874 576.439361 
z
" clip-path="url(#p0a0c8b8de5)" style="fill: #ffffff; stroke: #ffffff; stroke-linejoin: miter"/>
    </g>
    <g clip-path="url(#p0a0c8b8de5)">
     <!-- -0.9897486525382421 -->
     <g transform="translate(404.433005 576.07981) rotate(-278.13836) scale(0.05 -0.05)">
      <defs>
       <path id="DejaVuSans-2d" d="M 313 2009 
L 1997 2009 
L 1997 1497 
L 313 1497 
L 313 2009 
z
" transform="scale(0.015625)"/>
       <path id="DejaVuSans-30" d="M 2034 4250 
Q 1547 4250 1301 3770 
Q 1056 3291 1056 2328 
Q 1056 1369 1301 889 
Q 1547 409 2034 409 
Q 2525 409 2770 889 
Q 3016 1369 3016 2328 
Q 3016 3291 2770 3770 
Q 2525 4250 2034 4250 
z
M 2034 4750 
Q 2819 4750 3233 4129 
Q 3647 3509 3647 2328 
Q 3647 1150 3233 529 
Q 2819 -91 2034 -91 
Q 1250 -91 836 529 
Q 422 1150 422 2328 
Q 422 3509 836 4129 
Q 1250 4750 2034 4750 
z
" transform="scale(0.015625)"/>
       <path id="DejaVuSans-2e" d="M 684 794 
L 1344 794 
L 1344 0 
L 684 0 
L 684 794 
z
" transform="scale(0.015625)"/>
       <path id="DejaVuSans-39" d="M 703 97 
L 703 672 
Q 941 559 1184 500 
Q 1428 441 1663 441 
Q 2288 441 2617 861 
Q 2947 1281 2994 2138 
Q 2813 1869 2534 1725 
Q 2256 1581 1919 1581 
Q 1219 1581 811 2004 
Q 403 2428 403 3163 
Q 403 3881 828 4315 
Q 1253 4750 1959 4750 
Q 2769 4750 3195 4129 
Q 3622 3509 3622 2328 
Q 3622 1225 3098 567 
Q 2575 -91 1691 -91 
Q 1453 -91 1209 -44 
Q 966 3 703 97 
z
M 1959 2075 
Q 2384 2075 2632 2365 
Q 2881 2656 2881 3163 
Q 2881 3666 2632 3958 
Q 2384 4250 1959 4250 
Q 1534 4250 1286 3958 
Q 1038 3666 1038 3163 
Q 1038 2656 1286 2365 
Q 1534 2075 1959 2075 
z
" transform="scale(0.015625)"/>
       <path id="DejaVuSans-38" d="M 2034 2216 
Q 1584 2216 1326 1975 
Q 1069 1734 1069 1313 
Q 1069 891 1326 650 
Q 1584 409 2034 409 
Q 2484 409 2743 651 
Q 3003 894 3003 1313 
Q 3003 1734 2745 1975 
Q 2488 2216 2034 2216 
z
M 1403 2484 
Q 997 2584 770 2862 
Q 544 3141 544 3541 
Q 544 4100 942 4425 
Q 1341 4750 2034 4750 
Q 2731 4750 3128 4425 
Q 3525 4100 3525 3541 
Q 3525 3141 3298 2862 
Q 3072 2584 2669 2484 
Q 3125 2378 3379 2068 
Q 3634 1759 3634 1313 
Q 3634 634 3220 271 
Q 2806 -91 2034 -91 
Q 1263 -91 848 271 
Q 434 634 434 1313 
Q 434 1759 690 2068 
Q 947 2378 1403 2484 
z
M 1172 3481 
Q 1172 3119 1398 2916 
Q 1625 2713 2034 2713 
Q 2441 2713 2670 2916 
Q 2900 3119 2900 3481 
Q 2900 3844 2670 4047 
Q 2441 4250 2034 4250 
Q 1625 4250 1398 4047 
Q 1172 3844 1172 3481 
z
" transform="scale(0.015625)"/>
       <path id="DejaVuSans-37" d="M 525 4666 
L 3525 4666 
L 3525 4397 
L 1831 0 
L 1172 0 
L 2766 4134 
L 525 4134 
L 525 4666 
z
" transform="scale(0.015625)"/>
       <path id="DejaVuSans-34" d="M 2419 4116 
L 825 1625 
L 2419 1625 
L 2419 4116 
z
M 2253 4666 
L 3047 4666 
L 3047 1625 
L 3713 1625 
L 3713 1100 
L 3047 1100 
L 3047 0 
L 2419 0 
L 2419 1100 
L 313 1100 
L 313 1709 
L 2253 4666 
z
" transform="scale(0.015625)"/>
       <path id="DejaVuSans-36" d="M 2113 2584 
Q 1688 2584 1439 2293 
Q 1191 2003 1191 1497 
Q 1191 994 1439 701 
Q 1688 409 2113 409 
Q 2538 409 2786 701 
Q 3034 994 3034 1497 
Q 3034 2003 2786 2293 
Q 2538 2584 2113 2584 
z
M 3366 4563 
L 3366 3988 
Q 3128 4100 2886 4159 
Q 2644 4219 2406 4219 
Q 1781 4219 1451 3797 
Q 1122 3375 1075 2522 
Q 1259 2794 1537 2939 
Q 1816 3084 2150 3084 
Q 2853 3084 3261 2657 
Q 3669 2231 3669 1497 
Q 3669 778 3244 343 
Q 2819 -91 2113 -91 
Q 1303 -91 875 529 
Q 447 1150 447 2328 
Q 447 3434 972 4092 
Q 1497 4750 2381 4750 
Q 2619 4750 2861 4703 
Q 3103 4656 3366 4563 
z
" transform="scale(0.015625)"/>
       <path id="DejaVuSans-35" d="M 691 4666 
L 3169 4666 
L 3169 4134 
L 1269 4134 
L 1269 2991 
Q 1406 3038 1543 3061 
Q 1681 3084 1819 3084 
Q 2600 3084 3056 2656 
Q 3513 2228 3513 1497 
Q 3513 744 3044 326 
Q 2575 -91 1722 -91 
Q 1428 -91 1123 -41 
Q 819 9 494 109 
L 494 744 
Q 775 591 1075 516 
Q 1375 441 1709 441 
Q 2250 441 2565 725 
Q 2881 1009 2881 1497 
Q 2881 1984 2565 2268 
Q 2250 2553 1709 2553 
Q 1456 2553 1204 2497 
Q 953 2441 691 2322 
L 691 4666 
z
" transform="scale(0.015625)"/>
       <path id="DejaVuSans-32" d="M 1228 531 
L 3431 531 
L 3431 0 
L 469 0 
L 469 531 
Q 828 903 1448 1529 
Q 2069 2156 2228 2338 
Q 2531 2678 2651 2914 
Q 2772 3150 2772 3378 
Q 2772 3750 2511 3984 
Q 2250 4219 1831 4219 
Q 1534 4219 1204 4116 
Q 875 4013 500 3803 
L 500 4441 
Q 881 4594 1212 4672 
Q 1544 4750 1819 4750 
Q 2544 4750 2975 4387 
Q 3406 4025 3406 3419 
Q 3406 3131 3298 2873 
Q 3191 2616 2906 2266 
Q 2828 2175 2409 1742 
Q 1991 1309 1228 531 
z
" transform="scale(0.015625)"/>
       <path id="DejaVuSans-33" d="M 2597 2516 
Q 3050 2419 3304 2112 
Q 3559 1806 3559 1356 
Q 3559 666 3084 287 
Q 2609 -91 1734 -91 
Q 1441 -91 1130 -33 
Q 819 25 488 141 
L 488 750 
Q 750 597 1062 519 
Q 1375 441 1716 441 
Q 2309 441 2620 675 
Q 2931 909 2931 1356 
Q 2931 1769 2642 2001 
Q 2353 2234 1838 2234 
L 1294 2234 
L 1294 2753 
L 1863 2753 
Q 2328 2753 2575 2939 
Q 2822 3125 2822 3475 
Q 2822 3834 2567 4026 
Q 2313 4219 1838 4219 
Q 1578 4219 1281 4162 
Q 984 4106 628 3988 
L 628 4550 
Q 988 4650 1302 4700 
Q 1616 4750 1894 4750 
Q 2613 4750 3031 4423 
Q 3450 4097 3450 3541 
Q 3450 3153 3228 2886 
Q 3006 2619 2597 2516 
z
" transform="scale(0.015625)"/>
       <path id="DejaVuSans-31" d="M 794 531 
L 1825 531 
L 1825 4091 
L 703 3866 
L 703 4441 
L 1819 4666 
L 2450 4666 
L 2450 531 
L 3481 531 
L 3481 0 
L 794 0 
L 794 531 
z
" transform="scale(0.015625)"/>
      </defs>
      <use xlink:href="#DejaVuSans-2d"/>
      <use xlink:href="#DejaVuSans-30" transform="translate(36.083984 0)"/>
      <use xlink:href="#DejaVuSans-2e" transform="translate(99.707031 0)"/>
      <use xlink:href="#DejaVuSans-39" transform="translate(131.494141 0)"/>
      <use xlink:href="#DejaVuSans-38" transform="translate(195.117188 0)"/>
      <use xlink:href="#DejaVuSans-39" transform="translate(258.740234 0)"/>
      <use xlink:href="#DejaVuSans-37" transform="translate(322.363281 0)"/>
      <use xlink:href="#DejaVuSans-34" transform="translate(385.986328 0)"/>
      <use xlink:href="#DejaVuSans-38" transform="translate(449.609375 0)"/>
      <use xlink:href="#DejaVuSans-36" transform="translate(513.232422 0)"/>
      <use xlink:href="#DejaVuSans-35" transform="translate(576.855469 0)"/>
      <use xlink:href="#DejaVuSans-32" transform="translate(640.478516 0)"/>
      <use xlink:href="#DejaVuSans-35" transform="translate(704.101562 0)"/>
      <use xlink:href="#DejaVuSans-33" transform="translate(767.724609 0)"/>
      <use xlink:href="#DejaVuSans-38" transform="translate(831.347656 0)"/>
      <use xlink:href="#DejaVuSans-32" transform="translate(894.970703 0)"/>
      <use xlink:href="#DejaVuSans-34" transform="translate(958.59375 0)"/>
      <use xlink:href="#DejaVuSans-32" transform="translate(1022.216797 0)"/>
      <use xlink:href="#DejaVuSans-31" transform="translate(1085.839844 0)"/>
     </g>
    </g>
   </g>
   <g id="text_2">
    <g id="patch_4">
     <path d="M 472.419878 246.247416 
L 529.155905 237.065421 
Q 530.63664 236.825783 530.397002 235.345049 
L 529.623921 230.568139 
Q 529.384283 229.087405 527.903549 229.327042 
L 471.167521 238.509038 
Q 469.686787 238.748675 469.926425 240.22941 
L 470.699506 245.00632 
Q 470.939144 246.487054 472.419878 246.247416 
z
" clip-path="url(#p0a0c8b8de5)" style="fill: #ffffff; stroke: #ffffff; stroke-linejoin: miter"/>
    </g>
    <g clip-path="url(#p0a0c8b8de5)">
     <!-- -0.9766318664424384 -->
     <g transform="translate(472.014117 243.740194) rotate(-9.192879) scale(0.05 -0.05)">
      <use xlink:href="#DejaVuSans-2d"/>
      <use xlink:href="#DejaVuSans-30" transform="translate(36.083984 0)"/>
      <use xlink:href="#DejaVuSans-2e" transform="translate(99.707031 0)"/>
      <use xlink:href="#DejaVuSans-39" transform="translate(131.494141 0)"/>
      <use xlink:href="#DejaVuSans-37" transform="translate(195.117188 0)"/>
      <use xlink:href="#DejaVuSans-36" transform="translate(258.740234 0)"/>
      <use xlink:href="#DejaVuSans-36" transform="translate(322.363281 0)"/>
      <use xlink:href="#DejaVuSans-33" transform="translate(385.986328 0)"/>
      <use xlink:href="#DejaVuSans-31" transform="translate(449.609375 0)"/>
      <use xlink:href="#DejaVuSans-38" transform="translate(513.232422 0)"/>
      <use xlink:href="#DejaVuSans-36" transform="translate(576.855469 0)"/>
      <use xlink:href="#DejaVuSans-36" transform="translate(640.478516 0)"/>
      <use xlink:href="#DejaVuSans-34" transform="translate(704.101562 0)"/>
      <use xlink:href="#DejaVuSans-34" transform="translate(767.724609 0)"/>
      <use xlink:href="#DejaVuSans-32" transform="translate(831.347656 0)"/>
      <use xlink:href="#DejaVuSans-34" transform="translate(894.970703 0)"/>
      <use xlink:href="#DejaVuSans-33" transform="translate(958.59375 0)"/>
      <use xlink:href="#DejaVuSans-38" transform="translate(1022.216797 0)"/>
      <use xlink:href="#DejaVuSans-34" transform="translate(1085.839844 0)"/>
     </g>
    </g>
   </g>
   <g id="text_3">
    <g id="patch_5">
     <path d="M 280.173306 367.032463 
L 314.136059 324.673782 
Q 315.074378 323.503501 313.904097 322.565182 
L 310.128722 319.538126 
Q 308.958441 318.599807 308.020122 319.770088 
L 274.057369 362.128769 
Q 273.11905 363.299049 274.289331 364.237369 
L 278.064706 367.264425 
Q 279.234986 368.202744 280.173306 367.032463 
z
" clip-path="url(#p0a0c8b8de5)" style="fill: #ffffff; stroke: #ffffff; stroke-linejoin: miter"/>
    </g>
    <g clip-path="url(#p0a0c8b8de5)">
     <!-- -0.952271886155014 -->
     <g transform="translate(278.191752 365.443674) rotate(-51.277721) scale(0.05 -0.05)">
      <use xlink:href="#DejaVuSans-2d"/>
      <use xlink:href="#DejaVuSans-30" transform="translate(36.083984 0)"/>
      <use xlink:href="#DejaVuSans-2e" transform="translate(99.707031 0)"/>
      <use xlink:href="#DejaVuSans-39" transform="translate(131.494141 0)"/>
      <use xlink:href="#DejaVuSans-35" transform="translate(195.117188 0)"/>
      <use xlink:href="#DejaVuSans-32" transform="translate(258.740234 0)"/>
      <use xlink:href="#DejaVuSans-32" transform="translate(322.363281 0)"/>
      <use xlink:href="#DejaVuSans-37" transform="translate(385.986328 0)"/>
      <use xlink:href="#DejaVuSans-31" transform="translate(449.609375 0)"/>
      <use xlink:href="#DejaVuSans-38" transform="translate(513.232422 0)"/>
      <use xlink:href="#DejaVuSans-38" transform="translate(576.855469 0)"/>
      <use xlink:href="#DejaVuSans-36" transform="translate(640.478516 0)"/>
      <use xlink:href="#DejaVuSans-31" transform="translate(704.101562 0)"/>
      <use xlink:href="#DejaVuSans-35" transform="translate(767.724609 0)"/>
      <use xlink:href="#DejaVuSans-35" transform="translate(831.347656 0)"/>
      <use xlink:href="#DejaVuSans-30" transform="translate(894.970703 0)"/>
      <use xlink:href="#DejaVuSans-31" transform="translate(958.59375 0)"/>
      <use xlink:href="#DejaVuSans-34" transform="translate(1022.216797 0)"/>
     </g>
    </g>
   </g>
   <g id="text_4">
    <g id="patch_6">
     <path d="M 631.869684 373.313049 
L 685.216014 394.701243 
Q 686.608282 395.259446 687.166485 393.867178 
L 688.967272 389.375665 
Q 689.525475 387.983397 688.133207 387.425194 
L 634.786876 366.037001 
Q 633.394609 365.478797 632.836406 366.871065 
L 631.035619 371.362579 
Q 630.477416 372.754846 631.869684 373.313049 
z
" clip-path="url(#p0a0c8b8de5)" style="fill: #ffffff; stroke: #ffffff; stroke-linejoin: miter"/>
    </g>
    <g clip-path="url(#p0a0c8b8de5)">
     <!-- -0.9500324650249227 -->
     <g transform="translate(632.814849 370.955621) rotate(-338.152624) scale(0.05 -0.05)">
      <use xlink:href="#DejaVuSans-2d"/>
      <use xlink:href="#DejaVuSans-30" transform="translate(36.083984 0)"/>
      <use xlink:href="#DejaVuSans-2e" transform="translate(99.707031 0)"/>
      <use xlink:href="#DejaVuSans-39" transform="translate(131.494141 0)"/>
      <use xlink:href="#DejaVuSans-35" transform="translate(195.117188 0)"/>
      <use xlink:href="#DejaVuSans-30" transform="translate(258.740234 0)"/>
      <use xlink:href="#DejaVuSans-30" transform="translate(322.363281 0)"/>
      <use xlink:href="#DejaVuSans-33" transform="translate(385.986328 0)"/>
      <use xlink:href="#DejaVuSans-32" transform="translate(449.609375 0)"/>
      <use xlink:href="#DejaVuSans-34" transform="translate(513.232422 0)"/>
      <use xlink:href="#DejaVuSans-36" transform="translate(576.855469 0)"/>
      <use xlink:href="#DejaVuSans-35" transform="translate(640.478516 0)"/>
      <use xlink:href="#DejaVuSans-30" transform="translate(704.101562 0)"/>
      <use xlink:href="#DejaVuSans-32" transform="translate(767.724609 0)"/>
      <use xlink:href="#DejaVuSans-34" transform="translate(831.347656 0)"/>
      <use xlink:href="#DejaVuSans-39" transform="translate(894.970703 0)"/>
      <use xlink:href="#DejaVuSans-32" transform="translate(958.59375 0)"/>
      <use xlink:href="#DejaVuSans-32" transform="translate(1022.216797 0)"/>
      <use xlink:href="#DejaVuSans-37" transform="translate(1085.839844 0)"/>
     </g>
    </g>
   </g>
   <g id="text_5">
    <g id="patch_7">
     <path d="M 536.508219 552.661525 
L 566.698181 601.568089 
Q 567.486098 602.844485 568.762494 602.056568 
L 572.8802 599.514713 
Q 574.156596 598.726796 573.368678 597.4504 
L 543.178717 548.543835 
Q 542.390799 547.26744 541.114403 548.055357 
L 536.996698 550.597212 
Q 535.720302 551.385129 536.508219 552.661525 
z
" clip-path="url(#p0a0c8b8de5)" style="fill: #ffffff; stroke: #ffffff; stroke-linejoin: miter"/>
    </g>
    <g clip-path="url(#p0a0c8b8de5)">
     <!-- -0.8362537802606059 -->
     <g transform="translate(538.66945 551.3274) rotate(-301.686982) scale(0.05 -0.05)">
      <use xlink:href="#DejaVuSans-2d"/>
      <use xlink:href="#DejaVuSans-30" transform="translate(36.083984 0)"/>
      <use xlink:href="#DejaVuSans-2e" transform="translate(99.707031 0)"/>
      <use xlink:href="#DejaVuSans-38" transform="translate(131.494141 0)"/>
      <use xlink:href="#DejaVuSans-33" transform="translate(195.117188 0)"/>
      <use xlink:href="#DejaVuSans-36" transform="translate(258.740234 0)"/>
      <use xlink:href="#DejaVuSans-32" transform="translate(322.363281 0)"/>
      <use xlink:href="#DejaVuSans-35" transform="translate(385.986328 0)"/>
      <use xlink:href="#DejaVuSans-33" transform="translate(449.609375 0)"/>
      <use xlink:href="#DejaVuSans-37" transform="translate(513.232422 0)"/>
      <use xlink:href="#DejaVuSans-38" transform="translate(576.855469 0)"/>
      <use xlink:href="#DejaVuSans-30" transform="translate(640.478516 0)"/>
      <use xlink:href="#DejaVuSans-32" transform="translate(704.101562 0)"/>
      <use xlink:href="#DejaVuSans-36" transform="translate(767.724609 0)"/>
      <use xlink:href="#DejaVuSans-30" transform="translate(831.347656 0)"/>
      <use xlink:href="#DejaVuSans-36" transform="translate(894.970703 0)"/>
      <use xlink:href="#DejaVuSans-30" transform="translate(958.59375 0)"/>
      <use xlink:href="#DejaVuSans-35" transform="translate(1022.216797 0)"/>
      <use xlink:href="#DejaVuSans-39" transform="translate(1085.839844 0)"/>
     </g>
    </g>
   </g>
   <g id="text_6">
    <g id="patch_8">
     <path d="M 597.780235 526.812113 
L 643.805893 577.404183 
Q 644.815297 578.513734 645.924848 577.504331 
L 649.504307 574.247952 
Q 650.613858 573.238548 649.604454 572.128997 
L 603.578796 521.536927 
Q 602.569392 520.427375 601.459841 521.436779 
L 597.880383 524.693158 
Q 596.770831 525.702562 597.780235 526.812113 
z
" clip-path="url(#p0a0c8b8de5)" style="fill: #ffffff; stroke: #ffffff; stroke-linejoin: miter"/>
    </g>
    <g clip-path="url(#p0a0c8b8de5)">
     <!-- 0.00037452889443256865 -->
     <g transform="translate(599.65896 525.102961) rotate(-312.294062) scale(0.05 -0.05)">
      <use xlink:href="#DejaVuSans-30"/>
      <use xlink:href="#DejaVuSans-2e" transform="translate(63.623047 0)"/>
      <use xlink:href="#DejaVuSans-30" transform="translate(95.410156 0)"/>
      <use xlink:href="#DejaVuSans-30" transform="translate(159.033203 0)"/>
      <use xlink:href="#DejaVuSans-30" transform="translate(222.65625 0)"/>
      <use xlink:href="#DejaVuSans-33" transform="translate(286.279297 0)"/>
      <use xlink:href="#DejaVuSans-37" transform="translate(349.902344 0)"/>
      <use xlink:href="#DejaVuSans-34" transform="translate(413.525391 0)"/>
      <use xlink:href="#DejaVuSans-35" transform="translate(477.148438 0)"/>
      <use xlink:href="#DejaVuSans-32" transform="translate(540.771484 0)"/>
      <use xlink:href="#DejaVuSans-38" transform="translate(604.394531 0)"/>
      <use xlink:href="#DejaVuSans-38" transform="translate(668.017578 0)"/>
      <use xlink:href="#DejaVuSans-39" transform="translate(731.640625 0)"/>
      <use xlink:href="#DejaVuSans-34" transform="translate(795.263672 0)"/>
      <use xlink:href="#DejaVuSans-34" transform="translate(858.886719 0)"/>
      <use xlink:href="#DejaVuSans-33" transform="translate(922.509766 0)"/>
      <use xlink:href="#DejaVuSans-32" transform="translate(986.132812 0)"/>
      <use xlink:href="#DejaVuSans-35" transform="translate(1049.755859 0)"/>
      <use xlink:href="#DejaVuSans-36" transform="translate(1113.378906 0)"/>
      <use xlink:href="#DejaVuSans-38" transform="translate(1177.001953 0)"/>
      <use xlink:href="#DejaVuSans-36" transform="translate(1240.625 0)"/>
      <use xlink:href="#DejaVuSans-35" transform="translate(1304.248047 0)"/>
     </g>
    </g>
   </g>
   <g id="text_7">
    <g id="patch_9">
     <path d="M 322.069071 728.743896 
L 351.750237 777.960908 
Q 352.524875 779.245406 353.809373 778.470767 
L 357.953217 775.971751 
Q 359.237715 775.197112 358.463077 773.912614 
L 328.781911 724.695603 
Q 328.007272 723.411105 326.722774 724.185743 
L 322.57893 726.68476 
Q 321.294432 727.459398 322.069071 728.743896 
z
" clip-path="url(#p0a0c8b8de5)" style="fill: #ffffff; stroke: #ffffff; stroke-linejoin: miter"/>
    </g>
    <g clip-path="url(#p0a0c8b8de5)">
     <!-- -0.9704136432655972 -->
     <g transform="translate(324.24402 727.432256) rotate(-301.092801) scale(0.05 -0.05)">
      <use xlink:href="#DejaVuSans-2d"/>
      <use xlink:href="#DejaVuSans-30" transform="translate(36.083984 0)"/>
      <use xlink:href="#DejaVuSans-2e" transform="translate(99.707031 0)"/>
      <use xlink:href="#DejaVuSans-39" transform="translate(131.494141 0)"/>
      <use xlink:href="#DejaVuSans-37" transform="translate(195.117188 0)"/>
      <use xlink:href="#DejaVuSans-30" transform="translate(258.740234 0)"/>
      <use xlink:href="#DejaVuSans-34" transform="translate(322.363281 0)"/>
      <use xlink:href="#DejaVuSans-31" transform="translate(385.986328 0)"/>
      <use xlink:href="#DejaVuSans-33" transform="translate(449.609375 0)"/>
      <use xlink:href="#DejaVuSans-36" transform="translate(513.232422 0)"/>
      <use xlink:href="#DejaVuSans-34" transform="translate(576.855469 0)"/>
      <use xlink:href="#DejaVuSans-33" transform="translate(640.478516 0)"/>
      <use xlink:href="#DejaVuSans-32" transform="translate(704.101562 0)"/>
      <use xlink:href="#DejaVuSans-36" transform="translate(767.724609 0)"/>
      <use xlink:href="#DejaVuSans-35" transform="translate(831.347656 0)"/>
      <use xlink:href="#DejaVuSans-35" transform="translate(894.970703 0)"/>
      <use xlink:href="#DejaVuSans-39" transform="translate(958.59375 0)"/>
      <use xlink:href="#DejaVuSans-37" transform="translate(1022.216797 0)"/>
      <use xlink:href="#DejaVuSans-32" transform="translate(1085.839844 0)"/>
     </g>
    </g>
   </g>
   <g id="text_8">
    <g id="patch_10">
     <path d="M 578.29257 928.240289 
L 631.51254 917.499653 
Q 632.982895 917.202912 632.686154 915.732557 
L 631.728855 910.989129 
Q 631.432114 909.518774 629.961758 909.815515 
L 576.741788 920.556151 
Q 575.271433 920.852892 575.568174 922.323247 
L 576.525473 927.066675 
Q 576.822214 928.53703 578.29257 928.240289 
z
" clip-path="url(#p0a0c8b8de5)" style="fill: #ffffff; stroke: #ffffff; stroke-linejoin: miter"/>
    </g>
    <g clip-path="url(#p0a0c8b8de5)">
     <!-- -0.876931304594937 -->
     <g transform="translate(577.790119 925.75064) rotate(-11.409939) scale(0.05 -0.05)">
      <use xlink:href="#DejaVuSans-2d"/>
      <use xlink:href="#DejaVuSans-30" transform="translate(36.083984 0)"/>
      <use xlink:href="#DejaVuSans-2e" transform="translate(99.707031 0)"/>
      <use xlink:href="#DejaVuSans-38" transform="translate(131.494141 0)"/>
      <use xlink:href="#DejaVuSans-37" transform="translate(195.117188 0)"/>
      <use xlink:href="#DejaVuSans-36" transform="translate(258.740234 0)"/>
      <use xlink:href="#DejaVuSans-39" transform="translate(322.363281 0)"/>
      <use xlink:href="#DejaVuSans-33" transform="translate(385.986328 0)"/>
      <use xlink:href="#DejaVuSans-31" transform="translate(449.609375 0)"/>
      <use xlink:href="#DejaVuSans-33" transform="translate(513.232422 0)"/>
      <use xlink:href="#DejaVuSans-30" transform="translate(576.855469 0)"/>
      <use xlink:href="#DejaVuSans-34" transform="translate(640.478516 0)"/>
      <use xlink:href="#DejaVuSans-35" transform="translate(704.101562 0)"/>
      <use xlink:href="#DejaVuSans-39" transform="translate(767.724609 0)"/>
      <use xlink:href="#DejaVuSans-34" transform="translate(831.347656 0)"/>
      <use xlink:href="#DejaVuSans-39" transform="translate(894.970703 0)"/>
      <use xlink:href="#DejaVuSans-33" transform="translate(958.59375 0)"/>
      <use xlink:href="#DejaVuSans-37" transform="translate(1022.216797 0)"/>
     </g>
    </g>
   </g>
   <g id="text_9">
    <g id="patch_11">
     <path d="M 328.049667 662.692636 
L 351.358343 715.228257 
Q 351.966668 716.599366 353.337778 715.991041 
L 357.761033 714.028559 
Q 359.132142 713.420234 358.523817 712.049124 
L 335.215141 659.513504 
Q 334.606816 658.142394 333.235707 658.75072 
L 328.812451 660.713202 
Q 327.441342 661.321527 328.049667 662.692636 
z
" clip-path="url(#p0a0c8b8de5)" style="fill: #ffffff; stroke: #ffffff; stroke-linejoin: miter"/>
    </g>
    <g clip-path="url(#p0a0c8b8de5)">
     <!-- -0.8769187209501882 -->
     <g transform="translate(330.371269 661.662602) rotate(-293.925605) scale(0.05 -0.05)">
      <use xlink:href="#DejaVuSans-2d"/>
      <use xlink:href="#DejaVuSans-30" transform="translate(36.083984 0)"/>
      <use xlink:href="#DejaVuSans-2e" transform="translate(99.707031 0)"/>
      <use xlink:href="#DejaVuSans-38" transform="translate(131.494141 0)"/>
      <use xlink:href="#DejaVuSans-37" transform="translate(195.117188 0)"/>
      <use xlink:href="#DejaVuSans-36" transform="translate(258.740234 0)"/>
      <use xlink:href="#DejaVuSans-39" transform="translate(322.363281 0)"/>
      <use xlink:href="#DejaVuSans-31" transform="translate(385.986328 0)"/>
      <use xlink:href="#DejaVuSans-38" transform="translate(449.609375 0)"/>
      <use xlink:href="#DejaVuSans-37" transform="translate(513.232422 0)"/>
      <use xlink:href="#DejaVuSans-32" transform="translate(576.855469 0)"/>
      <use xlink:href="#DejaVuSans-30" transform="translate(640.478516 0)"/>
      <use xlink:href="#DejaVuSans-39" transform="translate(704.101562 0)"/>
      <use xlink:href="#DejaVuSans-35" transform="translate(767.724609 0)"/>
      <use xlink:href="#DejaVuSans-30" transform="translate(831.347656 0)"/>
      <use xlink:href="#DejaVuSans-31" transform="translate(894.970703 0)"/>
      <use xlink:href="#DejaVuSans-38" transform="translate(958.59375 0)"/>
      <use xlink:href="#DejaVuSans-38" transform="translate(1022.216797 0)"/>
      <use xlink:href="#DejaVuSans-32" transform="translate(1085.839844 0)"/>
     </g>
    </g>
   </g>
   <g id="text_10">
    <g id="patch_12">
     <path d="M 690.396516 746.430704 
L 733.215114 708.092035 
Q 734.332622 707.091447 733.332034 705.973939 
L 730.104096 702.368812 
Q 729.103508 701.251304 727.986 702.251892 
L 685.167402 740.590561 
Q 684.049895 741.591148 685.050482 742.708656 
L 688.27842 746.313784 
Q 689.279008 747.431291 690.396516 746.430704 
z
" clip-path="url(#p0a0c8b8de5)" style="fill: #ffffff; stroke: #ffffff; stroke-linejoin: miter"/>
    </g>
    <g clip-path="url(#p0a0c8b8de5)">
     <!-- -0.8702320212539346 -->
     <g transform="translate(688.702292 744.538507) rotate(-41.840446) scale(0.05 -0.05)">
      <use xlink:href="#DejaVuSans-2d"/>
      <use xlink:href="#DejaVuSans-30" transform="translate(36.083984 0)"/>
      <use xlink:href="#DejaVuSans-2e" transform="translate(99.707031 0)"/>
      <use xlink:href="#DejaVuSans-38" transform="translate(131.494141 0)"/>
      <use xlink:href="#DejaVuSans-37" transform="translate(195.117188 0)"/>
      <use xlink:href="#DejaVuSans-30" transform="translate(258.740234 0)"/>
      <use xlink:href="#DejaVuSans-32" transform="translate(322.363281 0)"/>
      <use xlink:href="#DejaVuSans-33" transform="translate(385.986328 0)"/>
      <use xlink:href="#DejaVuSans-32" transform="translate(449.609375 0)"/>
      <use xlink:href="#DejaVuSans-30" transform="translate(513.232422 0)"/>
      <use xlink:href="#DejaVuSans-32" transform="translate(576.855469 0)"/>
      <use xlink:href="#DejaVuSans-31" transform="translate(640.478516 0)"/>
      <use xlink:href="#DejaVuSans-32" transform="translate(704.101562 0)"/>
      <use xlink:href="#DejaVuSans-35" transform="translate(767.724609 0)"/>
      <use xlink:href="#DejaVuSans-33" transform="translate(831.347656 0)"/>
      <use xlink:href="#DejaVuSans-39" transform="translate(894.970703 0)"/>
      <use xlink:href="#DejaVuSans-33" transform="translate(958.59375 0)"/>
      <use xlink:href="#DejaVuSans-34" transform="translate(1022.216797 0)"/>
      <use xlink:href="#DejaVuSans-36" transform="translate(1085.839844 0)"/>
     </g>
    </g>
   </g>
   <g id="text_11">
    <g id="patch_13">
     <path d="M 546.280729 610.599258 
L 560.027478 554.79323 
Q 560.386249 553.336767 558.929787 552.977996 
L 554.231178 551.820583 
Q 552.774716 551.461812 552.415944 552.918274 
L 538.669196 608.724302 
Q 538.310424 610.180764 539.766886 610.539536 
L 544.465495 611.696948 
Q 545.921957 612.05572 546.280729 610.599258 
z
" clip-path="url(#p0a0c8b8de5)" style="fill: #ffffff; stroke: #ffffff; stroke-linejoin: miter"/>
    </g>
    <g clip-path="url(#p0a0c8b8de5)">
     <!-- -0.8314862766765291 -->
     <g transform="translate(543.814604 609.991775) rotate(-76.161785) scale(0.05 -0.05)">
      <use xlink:href="#DejaVuSans-2d"/>
      <use xlink:href="#DejaVuSans-30" transform="translate(36.083984 0)"/>
      <use xlink:href="#DejaVuSans-2e" transform="translate(99.707031 0)"/>
      <use xlink:href="#DejaVuSans-38" transform="translate(131.494141 0)"/>
      <use xlink:href="#DejaVuSans-33" transform="translate(195.117188 0)"/>
      <use xlink:href="#DejaVuSans-31" transform="translate(258.740234 0)"/>
      <use xlink:href="#DejaVuSans-34" transform="translate(322.363281 0)"/>
      <use xlink:href="#DejaVuSans-38" transform="translate(385.986328 0)"/>
      <use xlink:href="#DejaVuSans-36" transform="translate(449.609375 0)"/>
      <use xlink:href="#DejaVuSans-32" transform="translate(513.232422 0)"/>
      <use xlink:href="#DejaVuSans-37" transform="translate(576.855469 0)"/>
      <use xlink:href="#DejaVuSans-36" transform="translate(640.478516 0)"/>
      <use xlink:href="#DejaVuSans-36" transform="translate(704.101562 0)"/>
      <use xlink:href="#DejaVuSans-37" transform="translate(767.724609 0)"/>
      <use xlink:href="#DejaVuSans-36" transform="translate(831.347656 0)"/>
      <use xlink:href="#DejaVuSans-35" transform="translate(894.970703 0)"/>
      <use xlink:href="#DejaVuSans-32" transform="translate(958.59375 0)"/>
      <use xlink:href="#DejaVuSans-39" transform="translate(1022.216797 0)"/>
      <use xlink:href="#DejaVuSans-31" transform="translate(1085.839844 0)"/>
     </g>
    </g>
   </g>
   <g id="text_12">
    <g id="patch_14">
     <path d="M 646.019044 904.381028 
L 701.689963 890.096958 
Q 703.142899 889.724163 702.770104 888.271227 
L 701.567452 883.583994 
Q 701.194657 882.131058 699.74172 882.503853 
L 644.070802 896.787923 
Q 642.617865 897.160718 642.990661 898.613654 
L 644.193313 903.300887 
Q 644.566108 904.753823 646.019044 904.381028 
z
" clip-path="url(#p0a0c8b8de5)" style="fill: #ffffff; stroke: #ffffff; stroke-linejoin: miter"/>
    </g>
    <g clip-path="url(#p0a0c8b8de5)">
     <!-- -0.6413833267888105 -->
     <g transform="translate(645.387817 901.920874) rotate(-14.390545) scale(0.05 -0.05)">
      <use xlink:href="#DejaVuSans-2d"/>
      <use xlink:href="#DejaVuSans-30" transform="translate(36.083984 0)"/>
      <use xlink:href="#DejaVuSans-2e" transform="translate(99.707031 0)"/>
      <use xlink:href="#DejaVuSans-36" transform="translate(131.494141 0)"/>
      <use xlink:href="#DejaVuSans-34" transform="translate(195.117188 0)"/>
      <use xlink:href="#DejaVuSans-31" transform="translate(258.740234 0)"/>
      <use xlink:href="#DejaVuSans-33" transform="translate(322.363281 0)"/>
      <use xlink:href="#DejaVuSans-38" transform="translate(385.986328 0)"/>
      <use xlink:href="#DejaVuSans-33" transform="translate(449.609375 0)"/>
      <use xlink:href="#DejaVuSans-33" transform="translate(513.232422 0)"/>
      <use xlink:href="#DejaVuSans-32" transform="translate(576.855469 0)"/>
      <use xlink:href="#DejaVuSans-36" transform="translate(640.478516 0)"/>
      <use xlink:href="#DejaVuSans-37" transform="translate(704.101562 0)"/>
      <use xlink:href="#DejaVuSans-38" transform="translate(767.724609 0)"/>
      <use xlink:href="#DejaVuSans-38" transform="translate(831.347656 0)"/>
      <use xlink:href="#DejaVuSans-38" transform="translate(894.970703 0)"/>
      <use xlink:href="#DejaVuSans-31" transform="translate(958.59375 0)"/>
      <use xlink:href="#DejaVuSans-30" transform="translate(1022.216797 0)"/>
      <use xlink:href="#DejaVuSans-35" transform="translate(1085.839844 0)"/>
     </g>
    </g>
   </g>
   <g id="text_13">
    <g id="patch_15">
     <path d="M 775.426722 341.590257 
L 818.316974 379.848747 
Q 819.436352 380.847242 820.434847 379.727864 
L 823.656035 376.116704 
Q 824.65453 374.997326 823.535152 373.998831 
L 780.6449 335.74034 
Q 779.525522 334.741845 778.527026 335.861223 
L 775.305839 339.472383 
Q 774.307344 340.591761 775.426722 341.590257 
z
" clip-path="url(#p0a0c8b8de5)" style="fill: #ffffff; stroke: #ffffff; stroke-linejoin: miter"/>
    </g>
    <g clip-path="url(#p0a0c8b8de5)">
     <!-- -0.9543385118796566 -->
     <g transform="translate(777.117403 339.694893) rotate(-318.266751) scale(0.05 -0.05)">
      <use xlink:href="#DejaVuSans-2d"/>
      <use xlink:href="#DejaVuSans-30" transform="translate(36.083984 0)"/>
      <use xlink:href="#DejaVuSans-2e" transform="translate(99.707031 0)"/>
      <use xlink:href="#DejaVuSans-39" transform="translate(131.494141 0)"/>
      <use xlink:href="#DejaVuSans-35" transform="translate(195.117188 0)"/>
      <use xlink:href="#DejaVuSans-34" transform="translate(258.740234 0)"/>
      <use xlink:href="#DejaVuSans-33" transform="translate(322.363281 0)"/>
      <use xlink:href="#DejaVuSans-33" transform="translate(385.986328 0)"/>
      <use xlink:href="#DejaVuSans-38" transform="translate(449.609375 0)"/>
      <use xlink:href="#DejaVuSans-35" transform="translate(513.232422 0)"/>
      <use xlink:href="#DejaVuSans-31" transform="translate(576.855469 0)"/>
      <use xlink:href="#DejaVuSans-31" transform="translate(640.478516 0)"/>
      <use xlink:href="#DejaVuSans-38" transform="translate(704.101562 0)"/>
      <use xlink:href="#DejaVuSans-37" transform="translate(767.724609 0)"/>
      <use xlink:href="#DejaVuSans-39" transform="translate(831.347656 0)"/>
      <use xlink:href="#DejaVuSans-36" transform="translate(894.970703 0)"/>
      <use xlink:href="#DejaVuSans-35" transform="translate(958.59375 0)"/>
      <use xlink:href="#DejaVuSans-36" transform="translate(1022.216797 0)"/>
      <use xlink:href="#DejaVuSans-36" transform="translate(1085.839844 0)"/>
     </g>
    </g>
   </g>
   <g id="text_14">
    <g id="patch_16">
     <path d="M 409.791622 337.422658 
L 460.939233 311.208011 
Q 462.274117 310.523844 461.589949 309.18896 
L 459.382798 304.882568 
Q 458.698631 303.547684 457.363747 304.231851 
L 406.216136 330.446498 
Q 404.881252 331.130665 405.565419 332.465549 
L 407.77257 336.771941 
Q 408.456738 338.106825 409.791622 337.422658 
z
" clip-path="url(#p0a0c8b8de5)" style="fill: #ffffff; stroke: #ffffff; stroke-linejoin: miter"/>
    </g>
    <g clip-path="url(#p0a0c8b8de5)">
     <!-- -0.8309661227019706 -->
     <g transform="translate(408.63317 335.162393) rotate(-27.136467) scale(0.05 -0.05)">
      <use xlink:href="#DejaVuSans-2d"/>
      <use xlink:href="#DejaVuSans-30" transform="translate(36.083984 0)"/>
      <use xlink:href="#DejaVuSans-2e" transform="translate(99.707031 0)"/>
      <use xlink:href="#DejaVuSans-38" transform="translate(131.494141 0)"/>
      <use xlink:href="#DejaVuSans-33" transform="translate(195.117188 0)"/>
      <use xlink:href="#DejaVuSans-30" transform="translate(258.740234 0)"/>
      <use xlink:href="#DejaVuSans-39" transform="translate(322.363281 0)"/>
      <use xlink:href="#DejaVuSans-36" transform="translate(385.986328 0)"/>
      <use xlink:href="#DejaVuSans-36" transform="translate(449.609375 0)"/>
      <use xlink:href="#DejaVuSans-31" transform="translate(513.232422 0)"/>
      <use xlink:href="#DejaVuSans-32" transform="translate(576.855469 0)"/>
      <use xlink:href="#DejaVuSans-32" transform="translate(640.478516 0)"/>
      <use xlink:href="#DejaVuSans-37" transform="translate(704.101562 0)"/>
      <use xlink:href="#DejaVuSans-30" transform="translate(767.724609 0)"/>
      <use xlink:href="#DejaVuSans-31" transform="translate(831.347656 0)"/>
      <use xlink:href="#DejaVuSans-39" transform="translate(894.970703 0)"/>
      <use xlink:href="#DejaVuSans-37" transform="translate(958.59375 0)"/>
      <use xlink:href="#DejaVuSans-30" transform="translate(1022.216797 0)"/>
      <use xlink:href="#DejaVuSans-36" transform="translate(1085.839844 0)"/>
     </g>
    </g>
   </g>
   <g id="text_15">
    <g id="patch_17">
     <path d="M 410.705478 405.927973 
L 455.34464 369.725335 
Q 456.509663 368.780495 455.564822 367.615472 
L 452.516728 363.857062 
Q 451.571888 362.69204 450.406866 363.63688 
L 405.767704 399.839519 
Q 404.602681 400.784359 405.547522 401.949381 
L 408.595616 405.707791 
Q 409.540456 406.872814 410.705478 405.927973 
z
" clip-path="url(#p0a0c8b8de5)" style="fill: #ffffff; stroke: #ffffff; stroke-linejoin: miter"/>
    </g>
    <g clip-path="url(#p0a0c8b8de5)">
     <!-- -0.8114063145681677 -->
     <g transform="translate(409.105647 403.955324) rotate(-39.042268) scale(0.05 -0.05)">
      <use xlink:href="#DejaVuSans-2d"/>
      <use xlink:href="#DejaVuSans-30" transform="translate(36.083984 0)"/>
      <use xlink:href="#DejaVuSans-2e" transform="translate(99.707031 0)"/>
      <use xlink:href="#DejaVuSans-38" transform="translate(131.494141 0)"/>
      <use xlink:href="#DejaVuSans-31" transform="translate(195.117188 0)"/>
      <use xlink:href="#DejaVuSans-31" transform="translate(258.740234 0)"/>
      <use xlink:href="#DejaVuSans-34" transform="translate(322.363281 0)"/>
      <use xlink:href="#DejaVuSans-30" transform="translate(385.986328 0)"/>
      <use xlink:href="#DejaVuSans-36" transform="translate(449.609375 0)"/>
      <use xlink:href="#DejaVuSans-33" transform="translate(513.232422 0)"/>
      <use xlink:href="#DejaVuSans-31" transform="translate(576.855469 0)"/>
      <use xlink:href="#DejaVuSans-34" transform="translate(640.478516 0)"/>
      <use xlink:href="#DejaVuSans-35" transform="translate(704.101562 0)"/>
      <use xlink:href="#DejaVuSans-36" transform="translate(767.724609 0)"/>
      <use xlink:href="#DejaVuSans-38" transform="translate(831.347656 0)"/>
      <use xlink:href="#DejaVuSans-31" transform="translate(894.970703 0)"/>
      <use xlink:href="#DejaVuSans-36" transform="translate(958.59375 0)"/>
      <use xlink:href="#DejaVuSans-37" transform="translate(1022.216797 0)"/>
      <use xlink:href="#DejaVuSans-37" transform="translate(1085.839844 0)"/>
     </g>
    </g>
   </g>
   <g id="text_16">
    <g id="patch_18">
     <path d="M 685.943286 524.746177 
L 695.157602 581.476965 
Q 695.398083 582.957562 696.878681 582.717081 
L 701.65515 581.941278 
Q 703.135747 581.700797 702.895266 580.220199 
L 693.68095 523.489412 
Q 693.440469 522.008815 691.959871 522.249296 
L 687.183402 523.025099 
Q 685.702805 523.26558 685.943286 524.746177 
z
" clip-path="url(#p0a0c8b8de5)" style="fill: #ffffff; stroke: #ffffff; stroke-linejoin: miter"/>
    </g>
    <g clip-path="url(#p0a0c8b8de5)">
     <!-- -0.7504082111013342 -->
     <g transform="translate(688.450277 524.338988) rotate(-279.22552) scale(0.05 -0.05)">
      <use xlink:href="#DejaVuSans-2d"/>
      <use xlink:href="#DejaVuSans-30" transform="translate(36.083984 0)"/>
      <use xlink:href="#DejaVuSans-2e" transform="translate(99.707031 0)"/>
      <use xlink:href="#DejaVuSans-37" transform="translate(131.494141 0)"/>
      <use xlink:href="#DejaVuSans-35" transform="translate(195.117188 0)"/>
      <use xlink:href="#DejaVuSans-30" transform="translate(258.740234 0)"/>
      <use xlink:href="#DejaVuSans-34" transform="translate(322.363281 0)"/>
      <use xlink:href="#DejaVuSans-30" transform="translate(385.986328 0)"/>
      <use xlink:href="#DejaVuSans-38" transform="translate(449.609375 0)"/>
      <use xlink:href="#DejaVuSans-32" transform="translate(513.232422 0)"/>
      <use xlink:href="#DejaVuSans-31" transform="translate(576.855469 0)"/>
      <use xlink:href="#DejaVuSans-31" transform="translate(640.478516 0)"/>
      <use xlink:href="#DejaVuSans-31" transform="translate(704.101562 0)"/>
      <use xlink:href="#DejaVuSans-30" transform="translate(767.724609 0)"/>
      <use xlink:href="#DejaVuSans-31" transform="translate(831.347656 0)"/>
      <use xlink:href="#DejaVuSans-33" transform="translate(894.970703 0)"/>
      <use xlink:href="#DejaVuSans-33" transform="translate(958.59375 0)"/>
      <use xlink:href="#DejaVuSans-34" transform="translate(1022.216797 0)"/>
      <use xlink:href="#DejaVuSans-32" transform="translate(1085.839844 0)"/>
     </g>
    </g>
   </g>
   <g id="text_17">
    <g id="patch_19">
     <path d="M 748.354596 500.147269 
L 770.70362 556.535273 
Q 771.256308 557.929739 772.650774 557.377052 
L 777.14938 555.594058 
Q 778.543847 555.04137 777.991159 553.646904 
L 755.642135 497.258899 
Q 755.089447 495.864433 753.694981 496.417121 
L 749.196375 498.200115 
Q 747.801908 498.752803 748.354596 500.147269 
z
" clip-path="url(#p0a0c8b8de5)" style="fill: #ffffff; stroke: #ffffff; stroke-linejoin: miter"/>
    </g>
    <g clip-path="url(#p0a0c8b8de5)">
     <!-- -0.40667400782132124 -->
     <g transform="translate(750.715747 499.211442) rotate(-291.620581) scale(0.05 -0.05)">
      <use xlink:href="#DejaVuSans-2d"/>
      <use xlink:href="#DejaVuSans-30" transform="translate(36.083984 0)"/>
      <use xlink:href="#DejaVuSans-2e" transform="translate(99.707031 0)"/>
      <use xlink:href="#DejaVuSans-34" transform="translate(131.494141 0)"/>
      <use xlink:href="#DejaVuSans-30" transform="translate(195.117188 0)"/>
      <use xlink:href="#DejaVuSans-36" transform="translate(258.740234 0)"/>
      <use xlink:href="#DejaVuSans-36" transform="translate(322.363281 0)"/>
      <use xlink:href="#DejaVuSans-37" transform="translate(385.986328 0)"/>
      <use xlink:href="#DejaVuSans-34" transform="translate(449.609375 0)"/>
      <use xlink:href="#DejaVuSans-30" transform="translate(513.232422 0)"/>
      <use xlink:href="#DejaVuSans-30" transform="translate(576.855469 0)"/>
      <use xlink:href="#DejaVuSans-37" transform="translate(640.478516 0)"/>
      <use xlink:href="#DejaVuSans-38" transform="translate(704.101562 0)"/>
      <use xlink:href="#DejaVuSans-32" transform="translate(767.724609 0)"/>
      <use xlink:href="#DejaVuSans-31" transform="translate(831.347656 0)"/>
      <use xlink:href="#DejaVuSans-33" transform="translate(894.970703 0)"/>
      <use xlink:href="#DejaVuSans-32" transform="translate(958.59375 0)"/>
      <use xlink:href="#DejaVuSans-31" transform="translate(1022.216797 0)"/>
      <use xlink:href="#DejaVuSans-32" transform="translate(1085.839844 0)"/>
      <use xlink:href="#DejaVuSans-34" transform="translate(1149.462891 0)"/>
     </g>
    </g>
   </g>
   <g id="text_18">
    <g id="patch_20">
     <path d="M 564.435197 464.418947 
L 621.61829 470.196473 
Q 623.110692 470.347259 623.261477 468.854857 
L 623.747918 464.040306 
Q 623.898704 462.547904 622.406302 462.397118 
L 565.22321 456.619592 
Q 563.730808 456.468807 563.580022 457.961209 
L 563.093581 462.77576 
Q 562.942796 464.268162 564.435197 464.418947 
z
" clip-path="url(#p0a0c8b8de5)" style="fill: #ffffff; stroke: #ffffff; stroke-linejoin: miter"/>
    </g>
    <g clip-path="url(#p0a0c8b8de5)">
     <!-- -0.8259090363370165 -->
     <g transform="translate(564.690512 461.891969) rotate(-354.230667) scale(0.05 -0.05)">
      <use xlink:href="#DejaVuSans-2d"/>
      <use xlink:href="#DejaVuSans-30" transform="translate(36.083984 0)"/>
      <use xlink:href="#DejaVuSans-2e" transform="translate(99.707031 0)"/>
      <use xlink:href="#DejaVuSans-38" transform="translate(131.494141 0)"/>
      <use xlink:href="#DejaVuSans-32" transform="translate(195.117188 0)"/>
      <use xlink:href="#DejaVuSans-35" transform="translate(258.740234 0)"/>
      <use xlink:href="#DejaVuSans-39" transform="translate(322.363281 0)"/>
      <use xlink:href="#DejaVuSans-30" transform="translate(385.986328 0)"/>
      <use xlink:href="#DejaVuSans-39" transform="translate(449.609375 0)"/>
      <use xlink:href="#DejaVuSans-30" transform="translate(513.232422 0)"/>
      <use xlink:href="#DejaVuSans-33" transform="translate(576.855469 0)"/>
      <use xlink:href="#DejaVuSans-36" transform="translate(640.478516 0)"/>
      <use xlink:href="#DejaVuSans-33" transform="translate(704.101562 0)"/>
      <use xlink:href="#DejaVuSans-33" transform="translate(767.724609 0)"/>
      <use xlink:href="#DejaVuSans-37" transform="translate(831.347656 0)"/>
      <use xlink:href="#DejaVuSans-30" transform="translate(894.970703 0)"/>
      <use xlink:href="#DejaVuSans-31" transform="translate(958.59375 0)"/>
      <use xlink:href="#DejaVuSans-36" transform="translate(1022.216797 0)"/>
      <use xlink:href="#DejaVuSans-35" transform="translate(1085.839844 0)"/>
     </g>
    </g>
   </g>
   <g id="text_19">
    <g id="patch_21">
     <path d="M 844.064497 722.213648 
L 871.35979 671.634475 
Q 872.072161 670.314426 870.752112 669.602056 
L 866.493581 667.303919 
Q 865.173532 666.591548 864.461161 667.911597 
L 837.165869 718.49077 
Q 836.453498 719.810819 837.773547 720.52319 
L 842.032078 722.821327 
Q 843.352127 723.533697 844.064497 722.213648 
z
" clip-path="url(#p0a0c8b8de5)" style="fill: #ffffff; stroke: #ffffff; stroke-linejoin: miter"/>
    </g>
    <g clip-path="url(#p0a0c8b8de5)">
     <!-- -0.5814331815303166 -->
     <g transform="translate(841.829353 721.007442) rotate(-61.64627) scale(0.05 -0.05)">
      <use xlink:href="#DejaVuSans-2d"/>
      <use xlink:href="#DejaVuSans-30" transform="translate(36.083984 0)"/>
      <use xlink:href="#DejaVuSans-2e" transform="translate(99.707031 0)"/>
      <use xlink:href="#DejaVuSans-35" transform="translate(131.494141 0)"/>
      <use xlink:href="#DejaVuSans-38" transform="translate(195.117188 0)"/>
      <use xlink:href="#DejaVuSans-31" transform="translate(258.740234 0)"/>
      <use xlink:href="#DejaVuSans-34" transform="translate(322.363281 0)"/>
      <use xlink:href="#DejaVuSans-33" transform="translate(385.986328 0)"/>
      <use xlink:href="#DejaVuSans-33" transform="translate(449.609375 0)"/>
      <use xlink:href="#DejaVuSans-31" transform="translate(513.232422 0)"/>
      <use xlink:href="#DejaVuSans-38" transform="translate(576.855469 0)"/>
      <use xlink:href="#DejaVuSans-31" transform="translate(640.478516 0)"/>
      <use xlink:href="#DejaVuSans-35" transform="translate(704.101562 0)"/>
      <use xlink:href="#DejaVuSans-33" transform="translate(767.724609 0)"/>
      <use xlink:href="#DejaVuSans-30" transform="translate(831.347656 0)"/>
      <use xlink:href="#DejaVuSans-33" transform="translate(894.970703 0)"/>
      <use xlink:href="#DejaVuSans-31" transform="translate(958.59375 0)"/>
      <use xlink:href="#DejaVuSans-36" transform="translate(1022.216797 0)"/>
      <use xlink:href="#DejaVuSans-36" transform="translate(1085.839844 0)"/>
     </g>
    </g>
   </g>
   <g id="text_20">
    <g id="patch_22">
     <path d="M 920.81492 698.398056 
L 932.88093 642.204665 
Q 933.195837 640.738093 931.729265 640.423186 
L 926.998042 639.407284 
Q 925.53147 639.092377 925.216563 640.558949 
L 913.150553 696.752341 
Q 912.835646 698.218913 914.302218 698.533819 
L 919.033441 699.549721 
Q 920.500013 699.864628 920.81492 698.398056 
z
" clip-path="url(#p0a0c8b8de5)" style="fill: #ffffff; stroke: #ffffff; stroke-linejoin: miter"/>
    </g>
    <g clip-path="url(#p0a0c8b8de5)">
     <!-- -0.5758130655528804 -->
     <g transform="translate(918.331677 697.864847) rotate(-77.881294) scale(0.05 -0.05)">
      <use xlink:href="#DejaVuSans-2d"/>
      <use xlink:href="#DejaVuSans-30" transform="translate(36.083984 0)"/>
      <use xlink:href="#DejaVuSans-2e" transform="translate(99.707031 0)"/>
      <use xlink:href="#DejaVuSans-35" transform="translate(131.494141 0)"/>
      <use xlink:href="#DejaVuSans-37" transform="translate(195.117188 0)"/>
      <use xlink:href="#DejaVuSans-35" transform="translate(258.740234 0)"/>
      <use xlink:href="#DejaVuSans-38" transform="translate(322.363281 0)"/>
      <use xlink:href="#DejaVuSans-31" transform="translate(385.986328 0)"/>
      <use xlink:href="#DejaVuSans-33" transform="translate(449.609375 0)"/>
      <use xlink:href="#DejaVuSans-30" transform="translate(513.232422 0)"/>
      <use xlink:href="#DejaVuSans-36" transform="translate(576.855469 0)"/>
      <use xlink:href="#DejaVuSans-35" transform="translate(640.478516 0)"/>
      <use xlink:href="#DejaVuSans-35" transform="translate(704.101562 0)"/>
      <use xlink:href="#DejaVuSans-35" transform="translate(767.724609 0)"/>
      <use xlink:href="#DejaVuSans-32" transform="translate(831.347656 0)"/>
      <use xlink:href="#DejaVuSans-38" transform="translate(894.970703 0)"/>
      <use xlink:href="#DejaVuSans-38" transform="translate(958.59375 0)"/>
      <use xlink:href="#DejaVuSans-30" transform="translate(1022.216797 0)"/>
      <use xlink:href="#DejaVuSans-34" transform="translate(1085.839844 0)"/>
     </g>
    </g>
   </g>
   <g id="text_21">
    <g id="patch_23">
     <path d="M 464.26792 641.941558 
L 507.241244 680.106715 
Q 508.362791 681.102774 509.35885 679.981228 
L 512.572179 676.363074 
Q 513.568238 675.241528 512.446692 674.245468 
L 469.473368 636.080312 
Q 468.351821 635.084252 467.355762 636.205798 
L 464.142433 639.823953 
Q 463.146374 640.945499 464.26792 641.941558 
z
" clip-path="url(#p0a0c8b8de5)" style="fill: #ffffff; stroke: #ffffff; stroke-linejoin: miter"/>
    </g>
    <g clip-path="url(#p0a0c8b8de5)">
     <!-- -0.6509155615978962 -->
     <g transform="translate(465.954477 640.042524) rotate(-318.391312) scale(0.05 -0.05)">
      <use xlink:href="#DejaVuSans-2d"/>
      <use xlink:href="#DejaVuSans-30" transform="translate(36.083984 0)"/>
      <use xlink:href="#DejaVuSans-2e" transform="translate(99.707031 0)"/>
      <use xlink:href="#DejaVuSans-36" transform="translate(131.494141 0)"/>
      <use xlink:href="#DejaVuSans-35" transform="translate(195.117188 0)"/>
      <use xlink:href="#DejaVuSans-30" transform="translate(258.740234 0)"/>
      <use xlink:href="#DejaVuSans-39" transform="translate(322.363281 0)"/>
      <use xlink:href="#DejaVuSans-31" transform="translate(385.986328 0)"/>
      <use xlink:href="#DejaVuSans-35" transform="translate(449.609375 0)"/>
      <use xlink:href="#DejaVuSans-35" transform="translate(513.232422 0)"/>
      <use xlink:href="#DejaVuSans-36" transform="translate(576.855469 0)"/>
      <use xlink:href="#DejaVuSans-31" transform="translate(640.478516 0)"/>
      <use xlink:href="#DejaVuSans-35" transform="translate(704.101562 0)"/>
      <use xlink:href="#DejaVuSans-39" transform="translate(767.724609 0)"/>
      <use xlink:href="#DejaVuSans-37" transform="translate(831.347656 0)"/>
      <use xlink:href="#DejaVuSans-38" transform="translate(894.970703 0)"/>
      <use xlink:href="#DejaVuSans-39" transform="translate(958.59375 0)"/>
      <use xlink:href="#DejaVuSans-36" transform="translate(1022.216797 0)"/>
      <use xlink:href="#DejaVuSans-32" transform="translate(1085.839844 0)"/>
     </g>
    </g>
   </g>
   <g id="text_22">
    <g id="patch_24">
     <path d="M 530.668707 620.598477 
L 579.401841 651.067601 
Q 580.67371 651.862804 581.468913 650.590935 
L 584.034272 646.487831 
Q 584.829476 645.215962 583.557606 644.420758 
L 534.824473 613.951634 
Q 533.552603 613.156431 532.7574 614.4283 
L 530.192041 618.531404 
Q 529.396838 619.803273 530.668707 620.598477 
z
" clip-path="url(#p0a0c8b8de5)" style="fill: #ffffff; stroke: #ffffff; stroke-linejoin: miter"/>
    </g>
    <g clip-path="url(#p0a0c8b8de5)">
     <!-- -0.3425297588618972 -->
     <g transform="translate(532.015169 618.44491) rotate(-327.985389) scale(0.05 -0.05)">
      <use xlink:href="#DejaVuSans-2d"/>
      <use xlink:href="#DejaVuSans-30" transform="translate(36.083984 0)"/>
      <use xlink:href="#DejaVuSans-2e" transform="translate(99.707031 0)"/>
      <use xlink:href="#DejaVuSans-33" transform="translate(131.494141 0)"/>
      <use xlink:href="#DejaVuSans-34" transform="translate(195.117188 0)"/>
      <use xlink:href="#DejaVuSans-32" transform="translate(258.740234 0)"/>
      <use xlink:href="#DejaVuSans-35" transform="translate(322.363281 0)"/>
      <use xlink:href="#DejaVuSans-32" transform="translate(385.986328 0)"/>
      <use xlink:href="#DejaVuSans-39" transform="translate(449.609375 0)"/>
      <use xlink:href="#DejaVuSans-37" transform="translate(513.232422 0)"/>
      <use xlink:href="#DejaVuSans-35" transform="translate(576.855469 0)"/>
      <use xlink:href="#DejaVuSans-38" transform="translate(640.478516 0)"/>
      <use xlink:href="#DejaVuSans-38" transform="translate(704.101562 0)"/>
      <use xlink:href="#DejaVuSans-36" transform="translate(767.724609 0)"/>
      <use xlink:href="#DejaVuSans-31" transform="translate(831.347656 0)"/>
      <use xlink:href="#DejaVuSans-38" transform="translate(894.970703 0)"/>
      <use xlink:href="#DejaVuSans-39" transform="translate(958.59375 0)"/>
      <use xlink:href="#DejaVuSans-37" transform="translate(1022.216797 0)"/>
      <use xlink:href="#DejaVuSans-32" transform="translate(1085.839844 0)"/>
     </g>
    </g>
   </g>
   <g id="text_23">
    <g id="patch_25">
     <path d="M 790.898796 878.41426 
L 847.745656 857.259582 
Q 849.15147 856.736431 848.628318 855.330617 
L 846.940608 850.795403 
Q 846.417457 849.38959 845.011643 849.912741 
L 788.164783 871.067419 
Q 786.758969 871.590571 787.282121 872.996385 
L 788.96983 877.531598 
Q 789.492982 878.937412 790.898796 878.41426 
z
" clip-path="url(#p0a0c8b8de5)" style="fill: #ffffff; stroke: #ffffff; stroke-linejoin: miter"/>
    </g>
    <g clip-path="url(#p0a0c8b8de5)">
     <!-- -0.10842654887594971 -->
     <g transform="translate(790.01298 876.033895) rotate(-20.41197) scale(0.05 -0.05)">
      <use xlink:href="#DejaVuSans-2d"/>
      <use xlink:href="#DejaVuSans-30" transform="translate(36.083984 0)"/>
      <use xlink:href="#DejaVuSans-2e" transform="translate(99.707031 0)"/>
      <use xlink:href="#DejaVuSans-31" transform="translate(131.494141 0)"/>
      <use xlink:href="#DejaVuSans-30" transform="translate(195.117188 0)"/>
      <use xlink:href="#DejaVuSans-38" transform="translate(258.740234 0)"/>
      <use xlink:href="#DejaVuSans-34" transform="translate(322.363281 0)"/>
      <use xlink:href="#DejaVuSans-32" transform="translate(385.986328 0)"/>
      <use xlink:href="#DejaVuSans-36" transform="translate(449.609375 0)"/>
      <use xlink:href="#DejaVuSans-35" transform="translate(513.232422 0)"/>
      <use xlink:href="#DejaVuSans-34" transform="translate(576.855469 0)"/>
      <use xlink:href="#DejaVuSans-38" transform="translate(640.478516 0)"/>
      <use xlink:href="#DejaVuSans-38" transform="translate(704.101562 0)"/>
      <use xlink:href="#DejaVuSans-37" transform="translate(767.724609 0)"/>
      <use xlink:href="#DejaVuSans-35" transform="translate(831.347656 0)"/>
      <use xlink:href="#DejaVuSans-39" transform="translate(894.970703 0)"/>
      <use xlink:href="#DejaVuSans-34" transform="translate(958.59375 0)"/>
      <use xlink:href="#DejaVuSans-39" transform="translate(1022.216797 0)"/>
      <use xlink:href="#DejaVuSans-37" transform="translate(1085.839844 0)"/>
      <use xlink:href="#DejaVuSans-31" transform="translate(1149.462891 0)"/>
     </g>
    </g>
   </g>
   <g id="matplotlib.axis_1">
    <g id="xtick_1"/>
    <g id="xtick_2"/>
    <g id="xtick_3"/>
    <g id="xtick_4"/>
    <g id="xtick_5"/>
   </g>
   <g id="matplotlib.axis_2">
    <g id="ytick_1"/>
    <g id="ytick_2"/>
    <g id="ytick_3"/>
    <g id="ytick_4"/>
    <g id="ytick_5"/>
   </g>
   <g id="PathCollection_1">
    <defs>
     <path id="m90cef43c3a" d="M 0 10 
C 2.652031 10 5.195799 8.946337 7.071068 7.071068 
C 8.946337 5.195799 10 2.652031 10 0 
C 10 -2.652031 8.946337 -5.195799 7.071068 -7.071068 
C 5.195799 -8.946337 2.652031 -10 0 -10 
C -2.652031 -10 -5.195799 -8.946337 -7.071068 -7.071068 
C -8.946337 -5.195799 -10 -2.652031 -10 0 
C -10 2.652031 -8.946337 5.195799 -7.071068 7.071068 
C -5.195799 8.946337 -2.652031 10 0 10 
z
" style="stroke: #1f78b4"/>
    </defs>
    <g clip-path="url(#p0a0c8b8de5)">
     <use xlink:href="#m90cef43c3a" x="360.6776" y="260.360937" style="fill: #1f78b4; stroke: #1f78b4"/>
     <use xlink:href="#m90cef43c3a" x="459.056565" y="948.305455" style="fill: #1f78b4; stroke: #1f78b4"/>
     <use xlink:href="#m90cef43c3a" x="639.639501" y="215.214545" style="fill: #1f78b4; stroke: #1f78b4"/>
     <use xlink:href="#m90cef43c3a" x="221.47438" y="554.349062" style="fill: #1f78b4; stroke: #1f78b4"/>
     <use xlink:href="#m90cef43c3a" x="959.32562" y="500.377438" style="fill: #1f78b4; stroke: #1f78b4"/>
     <use xlink:href="#m90cef43c3a" x="227.518047" y="426.438847" style="fill: #1f78b4; stroke: #1f78b4"/>
     <use xlink:href="#m90cef43c3a" x="749.198778" y="889.750145" style="fill: #1f78b4; stroke: #1f78b4"/>
     <use xlink:href="#m90cef43c3a" x="886.705992" y="838.578966" style="fill: #1f78b4; stroke: #1f78b4"/>
    </g>
   </g>
   <g id="patch_26">
    <path d="M 144 1025.28 
L 144 138.24 
" style="fill: none; stroke: #000000; stroke-width: 0.8; stroke-linejoin: miter; stroke-linecap: square"/>
   </g>
   <g id="patch_27">
    <path d="M 1036.8 1025.28 
L 1036.8 138.24 
" style="fill: none; stroke: #000000; stroke-width: 0.8; stroke-linejoin: miter; stroke-linecap: square"/>
   </g>
   <g id="patch_28">
    <path d="M 144 1025.28 
L 1036.8 1025.28 
" style="fill: none; stroke: #000000; stroke-width: 0.8; stroke-linejoin: miter; stroke-linecap: square"/>
   </g>
   <g id="patch_29">
    <path d="M 144 138.24 
L 1036.8 138.24 
" style="fill: none; stroke: #000000; stroke-width: 0.8; stroke-linejoin: miter; stroke-linecap: square"/>
   </g>
   <g id="text_24">
    <g clip-path="url(#p0a0c8b8de5)">
     <!-- horatio -->
     <g transform="translate(336.229475 263.672187) scale(0.12 -0.12)">
      <defs>
       <path id="DejaVuSans-Bold-68" d="M 4056 2131 
L 4056 0 
L 2931 0 
L 2931 347 
L 2931 1625 
Q 2931 2084 2911 2256 
Q 2891 2428 2841 2509 
Q 2775 2619 2662 2680 
Q 2550 2741 2406 2741 
Q 2056 2741 1856 2470 
Q 1656 2200 1656 1722 
L 1656 0 
L 538 0 
L 538 4863 
L 1656 4863 
L 1656 2988 
Q 1909 3294 2193 3439 
Q 2478 3584 2822 3584 
Q 3428 3584 3742 3212 
Q 4056 2841 4056 2131 
z
" transform="scale(0.015625)"/>
       <path id="DejaVuSans-Bold-6f" d="M 2203 2784 
Q 1831 2784 1636 2517 
Q 1441 2250 1441 1747 
Q 1441 1244 1636 976 
Q 1831 709 2203 709 
Q 2569 709 2762 976 
Q 2956 1244 2956 1747 
Q 2956 2250 2762 2517 
Q 2569 2784 2203 2784 
z
M 2203 3584 
Q 3106 3584 3614 3096 
Q 4122 2609 4122 1747 
Q 4122 884 3614 396 
Q 3106 -91 2203 -91 
Q 1297 -91 786 396 
Q 275 884 275 1747 
Q 275 2609 786 3096 
Q 1297 3584 2203 3584 
z
" transform="scale(0.015625)"/>
       <path id="DejaVuSans-Bold-72" d="M 3138 2547 
Q 2991 2616 2845 2648 
Q 2700 2681 2553 2681 
Q 2122 2681 1889 2404 
Q 1656 2128 1656 1613 
L 1656 0 
L 538 0 
L 538 3500 
L 1656 3500 
L 1656 2925 
Q 1872 3269 2151 3426 
Q 2431 3584 2822 3584 
Q 2878 3584 2943 3579 
Q 3009 3575 3134 3559 
L 3138 2547 
z
" transform="scale(0.015625)"/>
       <path id="DejaVuSans-Bold-61" d="M 2106 1575 
Q 1756 1575 1579 1456 
Q 1403 1338 1403 1106 
Q 1403 894 1545 773 
Q 1688 653 1941 653 
Q 2256 653 2472 879 
Q 2688 1106 2688 1447 
L 2688 1575 
L 2106 1575 
z
M 3816 1997 
L 3816 0 
L 2688 0 
L 2688 519 
Q 2463 200 2181 54 
Q 1900 -91 1497 -91 
Q 953 -91 614 226 
Q 275 544 275 1050 
Q 275 1666 698 1953 
Q 1122 2241 2028 2241 
L 2688 2241 
L 2688 2328 
Q 2688 2594 2478 2717 
Q 2269 2841 1825 2841 
Q 1466 2841 1156 2769 
Q 847 2697 581 2553 
L 581 3406 
Q 941 3494 1303 3539 
Q 1666 3584 2028 3584 
Q 2975 3584 3395 3211 
Q 3816 2838 3816 1997 
z
" transform="scale(0.015625)"/>
       <path id="DejaVuSans-Bold-74" d="M 1759 4494 
L 1759 3500 
L 2913 3500 
L 2913 2700 
L 1759 2700 
L 1759 1216 
Q 1759 972 1856 886 
Q 1953 800 2241 800 
L 2816 800 
L 2816 0 
L 1856 0 
Q 1194 0 917 276 
Q 641 553 641 1216 
L 641 2700 
L 84 2700 
L 84 3500 
L 641 3500 
L 641 4494 
L 1759 4494 
z
" transform="scale(0.015625)"/>
       <path id="DejaVuSans-Bold-69" d="M 538 3500 
L 1656 3500 
L 1656 0 
L 538 0 
L 538 3500 
z
M 538 4863 
L 1656 4863 
L 1656 3950 
L 538 3950 
L 538 4863 
z
" transform="scale(0.015625)"/>
      </defs>
      <use xlink:href="#DejaVuSans-Bold-68"/>
      <use xlink:href="#DejaVuSans-Bold-6f" transform="translate(71.191406 0)"/>
      <use xlink:href="#DejaVuSans-Bold-72" transform="translate(139.892578 0)"/>
      <use xlink:href="#DejaVuSans-Bold-61" transform="translate(189.208984 0)"/>
      <use xlink:href="#DejaVuSans-Bold-74" transform="translate(256.689453 0)"/>
      <use xlink:href="#DejaVuSans-Bold-69" transform="translate(304.492188 0)"/>
      <use xlink:href="#DejaVuSans-Bold-6f" transform="translate(338.769531 0)"/>
     </g>
    </g>
   </g>
   <g id="text_25">
    <g clip-path="url(#p0a0c8b8de5)">
     <!-- ophelia -->
     <g transform="translate(434.13594 951.616705) scale(0.12 -0.12)">
      <defs>
       <path id="DejaVuSans-Bold-70" d="M 1656 506 
L 1656 -1331 
L 538 -1331 
L 538 3500 
L 1656 3500 
L 1656 2988 
Q 1888 3294 2169 3439 
Q 2450 3584 2816 3584 
Q 3463 3584 3878 3070 
Q 4294 2556 4294 1747 
Q 4294 938 3878 423 
Q 3463 -91 2816 -91 
Q 2450 -91 2169 54 
Q 1888 200 1656 506 
z
M 2400 2772 
Q 2041 2772 1848 2508 
Q 1656 2244 1656 1747 
Q 1656 1250 1848 986 
Q 2041 722 2400 722 
Q 2759 722 2948 984 
Q 3138 1247 3138 1747 
Q 3138 2247 2948 2509 
Q 2759 2772 2400 2772 
z
" transform="scale(0.015625)"/>
       <path id="DejaVuSans-Bold-65" d="M 4031 1759 
L 4031 1441 
L 1416 1441 
Q 1456 1047 1700 850 
Q 1944 653 2381 653 
Q 2734 653 3104 758 
Q 3475 863 3866 1075 
L 3866 213 
Q 3469 63 3072 -14 
Q 2675 -91 2278 -91 
Q 1328 -91 801 392 
Q 275 875 275 1747 
Q 275 2603 792 3093 
Q 1309 3584 2216 3584 
Q 3041 3584 3536 3087 
Q 4031 2591 4031 1759 
z
M 2881 2131 
Q 2881 2450 2695 2645 
Q 2509 2841 2209 2841 
Q 1884 2841 1681 2658 
Q 1478 2475 1428 2131 
L 2881 2131 
z
" transform="scale(0.015625)"/>
       <path id="DejaVuSans-Bold-6c" d="M 538 4863 
L 1656 4863 
L 1656 0 
L 538 0 
L 538 4863 
z
" transform="scale(0.015625)"/>
      </defs>
      <use xlink:href="#DejaVuSans-Bold-6f"/>
      <use xlink:href="#DejaVuSans-Bold-70" transform="translate(68.701172 0)"/>
      <use xlink:href="#DejaVuSans-Bold-68" transform="translate(140.283203 0)"/>
      <use xlink:href="#DejaVuSans-Bold-65" transform="translate(211.474609 0)"/>
      <use xlink:href="#DejaVuSans-Bold-6c" transform="translate(279.296875 0)"/>
      <use xlink:href="#DejaVuSans-Bold-69" transform="translate(313.574219 0)"/>
      <use xlink:href="#DejaVuSans-Bold-61" transform="translate(347.851562 0)"/>
     </g>
    </g>
   </g>
   <g id="text_26">
    <g clip-path="url(#p0a0c8b8de5)">
     <!-- polonius -->
     <g transform="translate(610.873251 218.525795) scale(0.12 -0.12)">
      <defs>
       <path id="DejaVuSans-Bold-6e" d="M 4056 2131 
L 4056 0 
L 2931 0 
L 2931 347 
L 2931 1631 
Q 2931 2084 2911 2256 
Q 2891 2428 2841 2509 
Q 2775 2619 2662 2680 
Q 2550 2741 2406 2741 
Q 2056 2741 1856 2470 
Q 1656 2200 1656 1722 
L 1656 0 
L 538 0 
L 538 3500 
L 1656 3500 
L 1656 2988 
Q 1909 3294 2193 3439 
Q 2478 3584 2822 3584 
Q 3428 3584 3742 3212 
Q 4056 2841 4056 2131 
z
" transform="scale(0.015625)"/>
       <path id="DejaVuSans-Bold-75" d="M 500 1363 
L 500 3500 
L 1625 3500 
L 1625 3150 
Q 1625 2866 1622 2436 
Q 1619 2006 1619 1863 
Q 1619 1441 1641 1255 
Q 1663 1069 1716 984 
Q 1784 875 1895 815 
Q 2006 756 2150 756 
Q 2500 756 2700 1025 
Q 2900 1294 2900 1772 
L 2900 3500 
L 4019 3500 
L 4019 0 
L 2900 0 
L 2900 506 
Q 2647 200 2364 54 
Q 2081 -91 1741 -91 
Q 1134 -91 817 281 
Q 500 653 500 1363 
z
" transform="scale(0.015625)"/>
       <path id="DejaVuSans-Bold-73" d="M 3272 3391 
L 3272 2541 
Q 2913 2691 2578 2766 
Q 2244 2841 1947 2841 
Q 1628 2841 1473 2761 
Q 1319 2681 1319 2516 
Q 1319 2381 1436 2309 
Q 1553 2238 1856 2203 
L 2053 2175 
Q 2913 2066 3209 1816 
Q 3506 1566 3506 1031 
Q 3506 472 3093 190 
Q 2681 -91 1863 -91 
Q 1516 -91 1145 -36 
Q 775 19 384 128 
L 384 978 
Q 719 816 1070 734 
Q 1422 653 1784 653 
Q 2113 653 2278 743 
Q 2444 834 2444 1013 
Q 2444 1163 2330 1236 
Q 2216 1309 1875 1350 
L 1678 1375 
Q 931 1469 631 1722 
Q 331 1975 331 2491 
Q 331 3047 712 3315 
Q 1094 3584 1881 3584 
Q 2191 3584 2531 3537 
Q 2872 3491 3272 3391 
z
" transform="scale(0.015625)"/>
      </defs>
      <use xlink:href="#DejaVuSans-Bold-70"/>
      <use xlink:href="#DejaVuSans-Bold-6f" transform="translate(71.582031 0)"/>
      <use xlink:href="#DejaVuSans-Bold-6c" transform="translate(140.283203 0)"/>
      <use xlink:href="#DejaVuSans-Bold-6f" transform="translate(174.560547 0)"/>
      <use xlink:href="#DejaVuSans-Bold-6e" transform="translate(243.261719 0)"/>
      <use xlink:href="#DejaVuSans-Bold-69" transform="translate(314.453125 0)"/>
      <use xlink:href="#DejaVuSans-Bold-75" transform="translate(348.730469 0)"/>
      <use xlink:href="#DejaVuSans-Bold-73" transform="translate(419.921875 0)"/>
     </g>
    </g>
   </g>
   <g id="text_27">
    <g clip-path="url(#p0a0c8b8de5)">
     <!-- reynaldo -->
     <g transform="translate(191.74063 557.613437) scale(0.12 -0.12)">
      <defs>
       <path id="DejaVuSans-Bold-79" d="M 78 3500 
L 1197 3500 
L 2138 1125 
L 2938 3500 
L 4056 3500 
L 2584 -331 
Q 2363 -916 2067 -1148 
Q 1772 -1381 1288 -1381 
L 641 -1381 
L 641 -647 
L 991 -647 
Q 1275 -647 1404 -556 
Q 1534 -466 1606 -231 
L 1638 -134 
L 78 3500 
z
" transform="scale(0.015625)"/>
       <path id="DejaVuSans-Bold-64" d="M 2919 2988 
L 2919 4863 
L 4044 4863 
L 4044 0 
L 2919 0 
L 2919 506 
Q 2688 197 2409 53 
Q 2131 -91 1766 -91 
Q 1119 -91 703 423 
Q 288 938 288 1747 
Q 288 2556 703 3070 
Q 1119 3584 1766 3584 
Q 2128 3584 2408 3439 
Q 2688 3294 2919 2988 
z
M 2181 722 
Q 2541 722 2730 984 
Q 2919 1247 2919 1747 
Q 2919 2247 2730 2509 
Q 2541 2772 2181 2772 
Q 1825 2772 1636 2509 
Q 1447 2247 1447 1747 
Q 1447 1247 1636 984 
Q 1825 722 2181 722 
z
" transform="scale(0.015625)"/>
      </defs>
      <use xlink:href="#DejaVuSans-Bold-72"/>
      <use xlink:href="#DejaVuSans-Bold-65" transform="translate(49.316406 0)"/>
      <use xlink:href="#DejaVuSans-Bold-79" transform="translate(117.138672 0)"/>
      <use xlink:href="#DejaVuSans-Bold-6e" transform="translate(182.324219 0)"/>
      <use xlink:href="#DejaVuSans-Bold-61" transform="translate(253.515625 0)"/>
      <use xlink:href="#DejaVuSans-Bold-6c" transform="translate(320.996094 0)"/>
      <use xlink:href="#DejaVuSans-Bold-64" transform="translate(355.273438 0)"/>
      <use xlink:href="#DejaVuSans-Bold-6f" transform="translate(426.855469 0)"/>
     </g>
    </g>
   </g>
   <g id="text_28">
    <g clip-path="url(#p0a0c8b8de5)">
     <!-- laertes -->
     <g transform="translate(935.682807 503.688688) scale(0.12 -0.12)">
      <use xlink:href="#DejaVuSans-Bold-6c"/>
      <use xlink:href="#DejaVuSans-Bold-61" transform="translate(34.277344 0)"/>
      <use xlink:href="#DejaVuSans-Bold-65" transform="translate(101.757812 0)"/>
      <use xlink:href="#DejaVuSans-Bold-72" transform="translate(169.580078 0)"/>
      <use xlink:href="#DejaVuSans-Bold-74" transform="translate(218.896484 0)"/>
      <use xlink:href="#DejaVuSans-Bold-65" transform="translate(266.699219 0)"/>
      <use xlink:href="#DejaVuSans-Bold-73" transform="translate(334.521484 0)"/>
     </g>
    </g>
   </g>
   <g id="text_29">
    <g clip-path="url(#p0a0c8b8de5)">
     <!-- queen -->
     <g transform="translate(206.541484 429.750097) scale(0.12 -0.12)">
      <defs>
       <path id="DejaVuSans-Bold-71" d="M 2181 2772 
Q 1825 2772 1636 2509 
Q 1447 2247 1447 1747 
Q 1447 1247 1636 984 
Q 1825 722 2181 722 
Q 2541 722 2730 984 
Q 2919 1247 2919 1747 
Q 2919 2247 2730 2509 
Q 2541 2772 2181 2772 
z
M 2919 506 
Q 2688 197 2409 53 
Q 2131 -91 1766 -91 
Q 1119 -91 703 423 
Q 288 938 288 1747 
Q 288 2556 703 3067 
Q 1119 3578 1766 3578 
Q 2131 3578 2409 3434 
Q 2688 3291 2919 2981 
L 2919 3500 
L 4044 3500 
L 4044 -1331 
L 2919 -1331 
L 2919 506 
z
" transform="scale(0.015625)"/>
      </defs>
      <use xlink:href="#DejaVuSans-Bold-71"/>
      <use xlink:href="#DejaVuSans-Bold-75" transform="translate(71.582031 0)"/>
      <use xlink:href="#DejaVuSans-Bold-65" transform="translate(142.773438 0)"/>
      <use xlink:href="#DejaVuSans-Bold-65" transform="translate(210.595703 0)"/>
      <use xlink:href="#DejaVuSans-Bold-6e" transform="translate(278.417969 0)"/>
     </g>
    </g>
   </g>
   <g id="text_30">
    <g clip-path="url(#p0a0c8b8de5)">
     <!-- king -->
     <g transform="translate(734.585965 893.01452) scale(0.12 -0.12)">
      <defs>
       <path id="DejaVuSans-Bold-6b" d="M 538 4863 
L 1656 4863 
L 1656 2216 
L 2944 3500 
L 4244 3500 
L 2534 1894 
L 4378 0 
L 3022 0 
L 1656 1459 
L 1656 0 
L 538 0 
L 538 4863 
z
" transform="scale(0.015625)"/>
       <path id="DejaVuSans-Bold-67" d="M 2919 594 
Q 2688 288 2409 144 
Q 2131 0 1766 0 
Q 1125 0 706 504 
Q 288 1009 288 1791 
Q 288 2575 706 3076 
Q 1125 3578 1766 3578 
Q 2131 3578 2409 3434 
Q 2688 3291 2919 2981 
L 2919 3500 
L 4044 3500 
L 4044 353 
Q 4044 -491 3511 -936 
Q 2978 -1381 1966 -1381 
Q 1638 -1381 1331 -1331 
Q 1025 -1281 716 -1178 
L 716 -306 
Q 1009 -475 1290 -558 
Q 1572 -641 1856 -641 
Q 2406 -641 2662 -400 
Q 2919 -159 2919 353 
L 2919 594 
z
M 2181 2772 
Q 1834 2772 1640 2515 
Q 1447 2259 1447 1791 
Q 1447 1309 1634 1061 
Q 1822 813 2181 813 
Q 2531 813 2725 1069 
Q 2919 1325 2919 1791 
Q 2919 2259 2725 2515 
Q 2531 2772 2181 2772 
z
" transform="scale(0.015625)"/>
      </defs>
      <use xlink:href="#DejaVuSans-Bold-6b"/>
      <use xlink:href="#DejaVuSans-Bold-69" transform="translate(66.503906 0)"/>
      <use xlink:href="#DejaVuSans-Bold-6e" transform="translate(100.78125 0)"/>
      <use xlink:href="#DejaVuSans-Bold-67" transform="translate(171.972656 0)"/>
     </g>
    </g>
   </g>
   <g id="text_31">
    <g clip-path="url(#p0a0c8b8de5)">
     <!-- hamlet -->
     <g transform="translate(863.139117 841.890216) scale(0.12 -0.12)">
      <defs>
       <path id="DejaVuSans-Bold-6d" d="M 3781 2919 
Q 3994 3244 4286 3414 
Q 4578 3584 4928 3584 
Q 5531 3584 5847 3212 
Q 6163 2841 6163 2131 
L 6163 0 
L 5038 0 
L 5038 1825 
Q 5041 1866 5042 1909 
Q 5044 1953 5044 2034 
Q 5044 2406 4934 2573 
Q 4825 2741 4581 2741 
Q 4263 2741 4089 2478 
Q 3916 2216 3909 1719 
L 3909 0 
L 2784 0 
L 2784 1825 
Q 2784 2406 2684 2573 
Q 2584 2741 2328 2741 
Q 2006 2741 1831 2477 
Q 1656 2213 1656 1722 
L 1656 0 
L 531 0 
L 531 3500 
L 1656 3500 
L 1656 2988 
Q 1863 3284 2130 3434 
Q 2397 3584 2719 3584 
Q 3081 3584 3359 3409 
Q 3638 3234 3781 2919 
z
" transform="scale(0.015625)"/>
      </defs>
      <use xlink:href="#DejaVuSans-Bold-68"/>
      <use xlink:href="#DejaVuSans-Bold-61" transform="translate(71.191406 0)"/>
      <use xlink:href="#DejaVuSans-Bold-6d" transform="translate(138.671875 0)"/>
      <use xlink:href="#DejaVuSans-Bold-6c" transform="translate(242.871094 0)"/>
      <use xlink:href="#DejaVuSans-Bold-65" transform="translate(277.148438 0)"/>
      <use xlink:href="#DejaVuSans-Bold-74" transform="translate(344.970703 0)"/>
     </g>
    </g>
   </g>
   <g id="text_32">
    <!-- Hamlet - Difference Between Co-Occurances and  W2V Cosine Similarity -->
    <g transform="translate(372.9075 132.24) scale(0.12 -0.12)">
     <defs>
      <path id="DejaVuSans-48" d="M 628 4666 
L 1259 4666 
L 1259 2753 
L 3553 2753 
L 3553 4666 
L 4184 4666 
L 4184 0 
L 3553 0 
L 3553 2222 
L 1259 2222 
L 1259 0 
L 628 0 
L 628 4666 
z
" transform="scale(0.015625)"/>
      <path id="DejaVuSans-61" d="M 2194 1759 
Q 1497 1759 1228 1600 
Q 959 1441 959 1056 
Q 959 750 1161 570 
Q 1363 391 1709 391 
Q 2188 391 2477 730 
Q 2766 1069 2766 1631 
L 2766 1759 
L 2194 1759 
z
M 3341 1997 
L 3341 0 
L 2766 0 
L 2766 531 
Q 2569 213 2275 61 
Q 1981 -91 1556 -91 
Q 1019 -91 701 211 
Q 384 513 384 1019 
Q 384 1609 779 1909 
Q 1175 2209 1959 2209 
L 2766 2209 
L 2766 2266 
Q 2766 2663 2505 2880 
Q 2244 3097 1772 3097 
Q 1472 3097 1187 3025 
Q 903 2953 641 2809 
L 641 3341 
Q 956 3463 1253 3523 
Q 1550 3584 1831 3584 
Q 2591 3584 2966 3190 
Q 3341 2797 3341 1997 
z
" transform="scale(0.015625)"/>
      <path id="DejaVuSans-6d" d="M 3328 2828 
Q 3544 3216 3844 3400 
Q 4144 3584 4550 3584 
Q 5097 3584 5394 3201 
Q 5691 2819 5691 2113 
L 5691 0 
L 5113 0 
L 5113 2094 
Q 5113 2597 4934 2840 
Q 4756 3084 4391 3084 
Q 3944 3084 3684 2787 
Q 3425 2491 3425 1978 
L 3425 0 
L 2847 0 
L 2847 2094 
Q 2847 2600 2669 2842 
Q 2491 3084 2119 3084 
Q 1678 3084 1418 2786 
Q 1159 2488 1159 1978 
L 1159 0 
L 581 0 
L 581 3500 
L 1159 3500 
L 1159 2956 
Q 1356 3278 1631 3431 
Q 1906 3584 2284 3584 
Q 2666 3584 2933 3390 
Q 3200 3197 3328 2828 
z
" transform="scale(0.015625)"/>
      <path id="DejaVuSans-6c" d="M 603 4863 
L 1178 4863 
L 1178 0 
L 603 0 
L 603 4863 
z
" transform="scale(0.015625)"/>
      <path id="DejaVuSans-65" d="M 3597 1894 
L 3597 1613 
L 953 1613 
Q 991 1019 1311 708 
Q 1631 397 2203 397 
Q 2534 397 2845 478 
Q 3156 559 3463 722 
L 3463 178 
Q 3153 47 2828 -22 
Q 2503 -91 2169 -91 
Q 1331 -91 842 396 
Q 353 884 353 1716 
Q 353 2575 817 3079 
Q 1281 3584 2069 3584 
Q 2775 3584 3186 3129 
Q 3597 2675 3597 1894 
z
M 3022 2063 
Q 3016 2534 2758 2815 
Q 2500 3097 2075 3097 
Q 1594 3097 1305 2825 
Q 1016 2553 972 2059 
L 3022 2063 
z
" transform="scale(0.015625)"/>
      <path id="DejaVuSans-74" d="M 1172 4494 
L 1172 3500 
L 2356 3500 
L 2356 3053 
L 1172 3053 
L 1172 1153 
Q 1172 725 1289 603 
Q 1406 481 1766 481 
L 2356 481 
L 2356 0 
L 1766 0 
Q 1100 0 847 248 
Q 594 497 594 1153 
L 594 3053 
L 172 3053 
L 172 3500 
L 594 3500 
L 594 4494 
L 1172 4494 
z
" transform="scale(0.015625)"/>
      <path id="DejaVuSans-20" transform="scale(0.015625)"/>
      <path id="DejaVuSans-44" d="M 1259 4147 
L 1259 519 
L 2022 519 
Q 2988 519 3436 956 
Q 3884 1394 3884 2338 
Q 3884 3275 3436 3711 
Q 2988 4147 2022 4147 
L 1259 4147 
z
M 628 4666 
L 1925 4666 
Q 3281 4666 3915 4102 
Q 4550 3538 4550 2338 
Q 4550 1131 3912 565 
Q 3275 0 1925 0 
L 628 0 
L 628 4666 
z
" transform="scale(0.015625)"/>
      <path id="DejaVuSans-69" d="M 603 3500 
L 1178 3500 
L 1178 0 
L 603 0 
L 603 3500 
z
M 603 4863 
L 1178 4863 
L 1178 4134 
L 603 4134 
L 603 4863 
z
" transform="scale(0.015625)"/>
      <path id="DejaVuSans-66" d="M 2375 4863 
L 2375 4384 
L 1825 4384 
Q 1516 4384 1395 4259 
Q 1275 4134 1275 3809 
L 1275 3500 
L 2222 3500 
L 2222 3053 
L 1275 3053 
L 1275 0 
L 697 0 
L 697 3053 
L 147 3053 
L 147 3500 
L 697 3500 
L 697 3744 
Q 697 4328 969 4595 
Q 1241 4863 1831 4863 
L 2375 4863 
z
" transform="scale(0.015625)"/>
      <path id="DejaVuSans-72" d="M 2631 2963 
Q 2534 3019 2420 3045 
Q 2306 3072 2169 3072 
Q 1681 3072 1420 2755 
Q 1159 2438 1159 1844 
L 1159 0 
L 581 0 
L 581 3500 
L 1159 3500 
L 1159 2956 
Q 1341 3275 1631 3429 
Q 1922 3584 2338 3584 
Q 2397 3584 2469 3576 
Q 2541 3569 2628 3553 
L 2631 2963 
z
" transform="scale(0.015625)"/>
      <path id="DejaVuSans-6e" d="M 3513 2113 
L 3513 0 
L 2938 0 
L 2938 2094 
Q 2938 2591 2744 2837 
Q 2550 3084 2163 3084 
Q 1697 3084 1428 2787 
Q 1159 2491 1159 1978 
L 1159 0 
L 581 0 
L 581 3500 
L 1159 3500 
L 1159 2956 
Q 1366 3272 1645 3428 
Q 1925 3584 2291 3584 
Q 2894 3584 3203 3211 
Q 3513 2838 3513 2113 
z
" transform="scale(0.015625)"/>
      <path id="DejaVuSans-63" d="M 3122 3366 
L 3122 2828 
Q 2878 2963 2633 3030 
Q 2388 3097 2138 3097 
Q 1578 3097 1268 2742 
Q 959 2388 959 1747 
Q 959 1106 1268 751 
Q 1578 397 2138 397 
Q 2388 397 2633 464 
Q 2878 531 3122 666 
L 3122 134 
Q 2881 22 2623 -34 
Q 2366 -91 2075 -91 
Q 1284 -91 818 406 
Q 353 903 353 1747 
Q 353 2603 823 3093 
Q 1294 3584 2113 3584 
Q 2378 3584 2631 3529 
Q 2884 3475 3122 3366 
z
" transform="scale(0.015625)"/>
      <path id="DejaVuSans-42" d="M 1259 2228 
L 1259 519 
L 2272 519 
Q 2781 519 3026 730 
Q 3272 941 3272 1375 
Q 3272 1813 3026 2020 
Q 2781 2228 2272 2228 
L 1259 2228 
z
M 1259 4147 
L 1259 2741 
L 2194 2741 
Q 2656 2741 2882 2914 
Q 3109 3088 3109 3444 
Q 3109 3797 2882 3972 
Q 2656 4147 2194 4147 
L 1259 4147 
z
M 628 4666 
L 2241 4666 
Q 2963 4666 3353 4366 
Q 3744 4066 3744 3513 
Q 3744 3084 3544 2831 
Q 3344 2578 2956 2516 
Q 3422 2416 3680 2098 
Q 3938 1781 3938 1306 
Q 3938 681 3513 340 
Q 3088 0 2303 0 
L 628 0 
L 628 4666 
z
" transform="scale(0.015625)"/>
      <path id="DejaVuSans-77" d="M 269 3500 
L 844 3500 
L 1563 769 
L 2278 3500 
L 2956 3500 
L 3675 769 
L 4391 3500 
L 4966 3500 
L 4050 0 
L 3372 0 
L 2619 2869 
L 1863 0 
L 1184 0 
L 269 3500 
z
" transform="scale(0.015625)"/>
      <path id="DejaVuSans-43" d="M 4122 4306 
L 4122 3641 
Q 3803 3938 3442 4084 
Q 3081 4231 2675 4231 
Q 1875 4231 1450 3742 
Q 1025 3253 1025 2328 
Q 1025 1406 1450 917 
Q 1875 428 2675 428 
Q 3081 428 3442 575 
Q 3803 722 4122 1019 
L 4122 359 
Q 3791 134 3420 21 
Q 3050 -91 2638 -91 
Q 1578 -91 968 557 
Q 359 1206 359 2328 
Q 359 3453 968 4101 
Q 1578 4750 2638 4750 
Q 3056 4750 3426 4639 
Q 3797 4528 4122 4306 
z
" transform="scale(0.015625)"/>
      <path id="DejaVuSans-6f" d="M 1959 3097 
Q 1497 3097 1228 2736 
Q 959 2375 959 1747 
Q 959 1119 1226 758 
Q 1494 397 1959 397 
Q 2419 397 2687 759 
Q 2956 1122 2956 1747 
Q 2956 2369 2687 2733 
Q 2419 3097 1959 3097 
z
M 1959 3584 
Q 2709 3584 3137 3096 
Q 3566 2609 3566 1747 
Q 3566 888 3137 398 
Q 2709 -91 1959 -91 
Q 1206 -91 779 398 
Q 353 888 353 1747 
Q 353 2609 779 3096 
Q 1206 3584 1959 3584 
z
" transform="scale(0.015625)"/>
      <path id="DejaVuSans-4f" d="M 2522 4238 
Q 1834 4238 1429 3725 
Q 1025 3213 1025 2328 
Q 1025 1447 1429 934 
Q 1834 422 2522 422 
Q 3209 422 3611 934 
Q 4013 1447 4013 2328 
Q 4013 3213 3611 3725 
Q 3209 4238 2522 4238 
z
M 2522 4750 
Q 3503 4750 4090 4092 
Q 4678 3434 4678 2328 
Q 4678 1225 4090 567 
Q 3503 -91 2522 -91 
Q 1538 -91 948 565 
Q 359 1222 359 2328 
Q 359 3434 948 4092 
Q 1538 4750 2522 4750 
z
" transform="scale(0.015625)"/>
      <path id="DejaVuSans-75" d="M 544 1381 
L 544 3500 
L 1119 3500 
L 1119 1403 
Q 1119 906 1312 657 
Q 1506 409 1894 409 
Q 2359 409 2629 706 
Q 2900 1003 2900 1516 
L 2900 3500 
L 3475 3500 
L 3475 0 
L 2900 0 
L 2900 538 
Q 2691 219 2414 64 
Q 2138 -91 1772 -91 
Q 1169 -91 856 284 
Q 544 659 544 1381 
z
M 1991 3584 
L 1991 3584 
z
" transform="scale(0.015625)"/>
      <path id="DejaVuSans-73" d="M 2834 3397 
L 2834 2853 
Q 2591 2978 2328 3040 
Q 2066 3103 1784 3103 
Q 1356 3103 1142 2972 
Q 928 2841 928 2578 
Q 928 2378 1081 2264 
Q 1234 2150 1697 2047 
L 1894 2003 
Q 2506 1872 2764 1633 
Q 3022 1394 3022 966 
Q 3022 478 2636 193 
Q 2250 -91 1575 -91 
Q 1294 -91 989 -36 
Q 684 19 347 128 
L 347 722 
Q 666 556 975 473 
Q 1284 391 1588 391 
Q 1994 391 2212 530 
Q 2431 669 2431 922 
Q 2431 1156 2273 1281 
Q 2116 1406 1581 1522 
L 1381 1569 
Q 847 1681 609 1914 
Q 372 2147 372 2553 
Q 372 3047 722 3315 
Q 1072 3584 1716 3584 
Q 2034 3584 2315 3537 
Q 2597 3491 2834 3397 
z
" transform="scale(0.015625)"/>
      <path id="DejaVuSans-64" d="M 2906 2969 
L 2906 4863 
L 3481 4863 
L 3481 0 
L 2906 0 
L 2906 525 
Q 2725 213 2448 61 
Q 2172 -91 1784 -91 
Q 1150 -91 751 415 
Q 353 922 353 1747 
Q 353 2572 751 3078 
Q 1150 3584 1784 3584 
Q 2172 3584 2448 3432 
Q 2725 3281 2906 2969 
z
M 947 1747 
Q 947 1113 1208 752 
Q 1469 391 1925 391 
Q 2381 391 2643 752 
Q 2906 1113 2906 1747 
Q 2906 2381 2643 2742 
Q 2381 3103 1925 3103 
Q 1469 3103 1208 2742 
Q 947 2381 947 1747 
z
" transform="scale(0.015625)"/>
      <path id="DejaVuSans-57" d="M 213 4666 
L 850 4666 
L 1831 722 
L 2809 4666 
L 3519 4666 
L 4500 722 
L 5478 4666 
L 6119 4666 
L 4947 0 
L 4153 0 
L 3169 4050 
L 2175 0 
L 1381 0 
L 213 4666 
z
" transform="scale(0.015625)"/>
      <path id="DejaVuSans-56" d="M 1831 0 
L 50 4666 
L 709 4666 
L 2188 738 
L 3669 4666 
L 4325 4666 
L 2547 0 
L 1831 0 
z
" transform="scale(0.015625)"/>
      <path id="DejaVuSans-53" d="M 3425 4513 
L 3425 3897 
Q 3066 4069 2747 4153 
Q 2428 4238 2131 4238 
Q 1616 4238 1336 4038 
Q 1056 3838 1056 3469 
Q 1056 3159 1242 3001 
Q 1428 2844 1947 2747 
L 2328 2669 
Q 3034 2534 3370 2195 
Q 3706 1856 3706 1288 
Q 3706 609 3251 259 
Q 2797 -91 1919 -91 
Q 1588 -91 1214 -16 
Q 841 59 441 206 
L 441 856 
Q 825 641 1194 531 
Q 1563 422 1919 422 
Q 2459 422 2753 634 
Q 3047 847 3047 1241 
Q 3047 1584 2836 1778 
Q 2625 1972 2144 2069 
L 1759 2144 
Q 1053 2284 737 2584 
Q 422 2884 422 3419 
Q 422 4038 858 4394 
Q 1294 4750 2059 4750 
Q 2388 4750 2728 4690 
Q 3069 4631 3425 4513 
z
" transform="scale(0.015625)"/>
      <path id="DejaVuSans-79" d="M 2059 -325 
Q 1816 -950 1584 -1140 
Q 1353 -1331 966 -1331 
L 506 -1331 
L 506 -850 
L 844 -850 
Q 1081 -850 1212 -737 
Q 1344 -625 1503 -206 
L 1606 56 
L 191 3500 
L 800 3500 
L 1894 763 
L 2988 3500 
L 3597 3500 
L 2059 -325 
z
" transform="scale(0.015625)"/>
     </defs>
     <use xlink:href="#DejaVuSans-48"/>
     <use xlink:href="#DejaVuSans-61" transform="translate(75.195312 0)"/>
     <use xlink:href="#DejaVuSans-6d" transform="translate(136.474609 0)"/>
     <use xlink:href="#DejaVuSans-6c" transform="translate(233.886719 0)"/>
     <use xlink:href="#DejaVuSans-65" transform="translate(261.669922 0)"/>
     <use xlink:href="#DejaVuSans-74" transform="translate(323.193359 0)"/>
     <use xlink:href="#DejaVuSans-20" transform="translate(362.402344 0)"/>
     <use xlink:href="#DejaVuSans-2d" transform="translate(394.189453 0)"/>
     <use xlink:href="#DejaVuSans-20" transform="translate(430.273438 0)"/>
     <use xlink:href="#DejaVuSans-44" transform="translate(462.060547 0)"/>
     <use xlink:href="#DejaVuSans-69" transform="translate(539.0625 0)"/>
     <use xlink:href="#DejaVuSans-66" transform="translate(566.845703 0)"/>
     <use xlink:href="#DejaVuSans-66" transform="translate(602.050781 0)"/>
     <use xlink:href="#DejaVuSans-65" transform="translate(637.255859 0)"/>
     <use xlink:href="#DejaVuSans-72" transform="translate(698.779297 0)"/>
     <use xlink:href="#DejaVuSans-65" transform="translate(737.642578 0)"/>
     <use xlink:href="#DejaVuSans-6e" transform="translate(799.166016 0)"/>
     <use xlink:href="#DejaVuSans-63" transform="translate(862.544922 0)"/>
     <use xlink:href="#DejaVuSans-65" transform="translate(917.525391 0)"/>
     <use xlink:href="#DejaVuSans-20" transform="translate(979.048828 0)"/>
     <use xlink:href="#DejaVuSans-42" transform="translate(1010.835938 0)"/>
     <use xlink:href="#DejaVuSans-65" transform="translate(1079.439453 0)"/>
     <use xlink:href="#DejaVuSans-74" transform="translate(1140.962891 0)"/>
     <use xlink:href="#DejaVuSans-77" transform="translate(1180.171875 0)"/>
     <use xlink:href="#DejaVuSans-65" transform="translate(1261.958984 0)"/>
     <use xlink:href="#DejaVuSans-65" transform="translate(1323.482422 0)"/>
     <use xlink:href="#DejaVuSans-6e" transform="translate(1385.005859 0)"/>
     <use xlink:href="#DejaVuSans-20" transform="translate(1448.384766 0)"/>
     <use xlink:href="#DejaVuSans-43" transform="translate(1480.171875 0)"/>
     <use xlink:href="#DejaVuSans-6f" transform="translate(1549.996094 0)"/>
     <use xlink:href="#DejaVuSans-2d" transform="translate(1613.052734 0)"/>
     <use xlink:href="#DejaVuSans-4f" transform="translate(1651.886719 0)"/>
     <use xlink:href="#DejaVuSans-63" transform="translate(1730.597656 0)"/>
     <use xlink:href="#DejaVuSans-63" transform="translate(1785.578125 0)"/>
     <use xlink:href="#DejaVuSans-75" transform="translate(1840.558594 0)"/>
     <use xlink:href="#DejaVuSans-72" transform="translate(1903.9375 0)"/>
     <use xlink:href="#DejaVuSans-61" transform="translate(1945.050781 0)"/>
     <use xlink:href="#DejaVuSans-6e" transform="translate(2006.330078 0)"/>
     <use xlink:href="#DejaVuSans-63" transform="translate(2069.708984 0)"/>
     <use xlink:href="#DejaVuSans-65" transform="translate(2124.689453 0)"/>
     <use xlink:href="#DejaVuSans-73" transform="translate(2186.212891 0)"/>
     <use xlink:href="#DejaVuSans-20" transform="translate(2238.3125 0)"/>
     <use xlink:href="#DejaVuSans-61" transform="translate(2270.099609 0)"/>
     <use xlink:href="#DejaVuSans-6e" transform="translate(2331.378906 0)"/>
     <use xlink:href="#DejaVuSans-64" transform="translate(2394.757812 0)"/>
     <use xlink:href="#DejaVuSans-20" transform="translate(2458.234375 0)"/>
     <use xlink:href="#DejaVuSans-20" transform="translate(2490.021484 0)"/>
     <use xlink:href="#DejaVuSans-57" transform="translate(2521.808594 0)"/>
     <use xlink:href="#DejaVuSans-32" transform="translate(2620.685547 0)"/>
     <use xlink:href="#DejaVuSans-56" transform="translate(2684.308594 0)"/>
     <use xlink:href="#DejaVuSans-20" transform="translate(2752.716797 0)"/>
     <use xlink:href="#DejaVuSans-43" transform="translate(2784.503906 0)"/>
     <use xlink:href="#DejaVuSans-6f" transform="translate(2854.328125 0)"/>
     <use xlink:href="#DejaVuSans-73" transform="translate(2915.509766 0)"/>
     <use xlink:href="#DejaVuSans-69" transform="translate(2967.609375 0)"/>
     <use xlink:href="#DejaVuSans-6e" transform="translate(2995.392578 0)"/>
     <use xlink:href="#DejaVuSans-65" transform="translate(3058.771484 0)"/>
     <use xlink:href="#DejaVuSans-20" transform="translate(3120.294922 0)"/>
     <use xlink:href="#DejaVuSans-53" transform="translate(3152.082031 0)"/>
     <use xlink:href="#DejaVuSans-69" transform="translate(3215.558594 0)"/>
     <use xlink:href="#DejaVuSans-6d" transform="translate(3243.341797 0)"/>
     <use xlink:href="#DejaVuSans-69" transform="translate(3340.753906 0)"/>
     <use xlink:href="#DejaVuSans-6c" transform="translate(3368.537109 0)"/>
     <use xlink:href="#DejaVuSans-61" transform="translate(3396.320312 0)"/>
     <use xlink:href="#DejaVuSans-72" transform="translate(3457.599609 0)"/>
     <use xlink:href="#DejaVuSans-69" transform="translate(3498.712891 0)"/>
     <use xlink:href="#DejaVuSans-74" transform="translate(3526.496094 0)"/>
     <use xlink:href="#DejaVuSans-79" transform="translate(3565.705078 0)"/>
    </g>
   </g>
  </g>
 </g>
 <defs>
  <clipPath id="p0a0c8b8de5">
   <rect x="144" y="138.24" width="892.8" height="887.04"/>
  </clipPath>
 </defs>
</svg>
