<?xml version="1.0" encoding="utf-8" standalone="no"?>
<!DOCTYPE svg PUBLIC "-//W3C//DTD SVG 1.1//EN"
  "http://www.w3.org/Graphics/SVG/1.1/DTD/svg11.dtd">
<svg xmlns:xlink="http://www.w3.org/1999/xlink" width="720pt" height="720pt" viewBox="0 0 720 720" xmlns="http://www.w3.org/2000/svg" version="1.1">
 <metadata>
  <rdf:RDF xmlns:dc="http://purl.org/dc/elements/1.1/" xmlns:cc="http://creativecommons.org/ns#" xmlns:rdf="http://www.w3.org/1999/02/22-rdf-syntax-ns#">
   <cc:Work>
    <dc:type rdf:resource="http://purl.org/dc/dcmitype/StillImage"/>
    <dc:date>2025-12-16T11:35:22.954533</dc:date>
    <dc:format>image/svg+xml</dc:format>
    <dc:creator>
     <cc:Agent>
      <dc:title>Matplotlib v3.10.7, https://matplotlib.org/</dc:title>
     </cc:Agent>
    </dc:creator>
   </cc:Work>
  </rdf:RDF>
 </metadata>
 <defs>
  <style type="text/css">*{stroke-linejoin: round; stroke-linecap: butt}</style>
 </defs>
 <g id="figure_1">
  <g id="patch_1">
   <path d="M 0 720 
L 720 720 
L 720 0 
L 0 0 
z
" style="fill: #ffffff"/>
  </g>
  <g id="patch_2">
   <path d="M 91.8 640.8 
L 646.2 640.8 
L 646.2 86.4 
L 91.8 86.4 
z
" style="fill: #ffffff"/>
  </g>
  <g id="pane3d_1">
   <g id="patch_3">
    <path d="M 133.661023 504.102727 
L 316.742009 350.640614 
L 314.197008 129.320814 
L 122.354653 269.318627 
" style="fill: #f2f2f2; opacity: 0.5; stroke: #f2f2f2; stroke-linejoin: miter"/>
   </g>
  </g>
  <g id="pane3d_2">
   <g id="patch_4">
    <path d="M 316.742009 350.640614 
L 610.521668 436.030763 
L 621.005628 207.087856 
L 314.197008 129.320814 
" style="fill: #e6e6e6; opacity: 0.5; stroke: #e6e6e6; stroke-linejoin: miter"/>
   </g>
  </g>
  <g id="pane3d_3">
   <g id="patch_5">
    <path d="M 133.661023 504.102727 
L 445.08181 605.812756 
L 610.521668 436.030763 
L 316.742009 350.640614 
" style="fill: #ececec; opacity: 0.5; stroke: #ececec; stroke-linejoin: miter"/>
   </g>
  </g>
  <g id="grid3d_1">
   <g id="Line3DCollection_1">
    <path d="M 165.390569 514.465597 
L 346.79306 359.375268 
L 345.52138 137.26063 
" style="fill: none; stroke: #b0b0b0; stroke-width: 0.8"/>
    <path d="M 217.962356 531.635542 
L 396.524228 373.830156 
L 397.389459 150.407676 
" style="fill: none; stroke: #b0b0b0; stroke-width: 0.8"/>
    <path d="M 271.498845 549.120559 
L 447.091769 388.528144 
L 450.167856 163.785461 
" style="fill: none; stroke: #b0b0b0; stroke-width: 0.8"/>
    <path d="M 326.026834 566.929401 
L 498.516961 403.475417 
L 503.880748 177.400113 
" style="fill: none; stroke: #b0b0b0; stroke-width: 0.8"/>
    <path d="M 381.574127 585.071146 
L 550.821809 418.678371 
L 558.553176 191.25798 
" style="fill: none; stroke: #b0b0b0; stroke-width: 0.8"/>
    <path d="M 438.169572 603.555218 
L 604.029079 434.143624 
L 614.211085 205.365637 
" style="fill: none; stroke: #b0b0b0; stroke-width: 0.8"/>
   </g>
  </g>
  <g id="grid3d_2">
   <g id="Line3DCollection_2">
    <path d="M 148.826657 250.000565 
L 158.841483 482.995967 
L 467.922739 582.372343 
" style="fill: none; stroke: #b0b0b0; stroke-width: 0.8"/>
    <path d="M 176.460484 229.834656 
L 185.155208 460.93928 
L 491.761973 557.907425 
" style="fill: none; stroke: #b0b0b0; stroke-width: 0.8"/>
    <path d="M 203.416476 210.163401 
L 210.851206 439.400385 
L 515.012361 534.046807 
" style="fill: none; stroke: #b0b0b0; stroke-width: 0.8"/>
    <path d="M 229.71927 190.96882 
L 235.950975 418.361261 
L 537.695454 510.768374 
" style="fill: none; stroke: #b0b0b0; stroke-width: 0.8"/>
    <path d="M 255.392324 172.233795 
L 260.475029 397.804713 
L 559.831764 488.051075 
" style="fill: none; stroke: #b0b0b0; stroke-width: 0.8"/>
    <path d="M 280.457987 153.942016 
L 284.442952 377.714324 
L 581.440826 465.874861 
" style="fill: none; stroke: #b0b0b0; stroke-width: 0.8"/>
    <path d="M 304.937561 136.077937 
L 307.873449 358.074418 
L 602.541256 444.220629 
" style="fill: none; stroke: #b0b0b0; stroke-width: 0.8"/>
   </g>
  </g>
  <g id="grid3d_3">
   <g id="Line3DCollection_3">
    <path d="M 611.560233 413.351155 
L 316.489416 328.674435 
L 132.542689 480.879785 
" style="fill: none; stroke: #b0b0b0; stroke-width: 0.8"/>
    <path d="M 613.215486 377.204667 
L 316.087054 293.684 
L 130.759528 443.851308 
" style="fill: none; stroke: #b0b0b0; stroke-width: 0.8"/>
    <path d="M 614.894215 340.545512 
L 315.679259 258.221122 
L 128.950108 406.277521 
" style="fill: none; stroke: #b0b0b0; stroke-width: 0.8"/>
    <path d="M 616.596923 303.362706 
L 315.265921 222.276168 
L 127.113843 368.14629 
" style="fill: none; stroke: #b0b0b0; stroke-width: 0.8"/>
    <path d="M 618.324129 265.644947 
L 314.846925 185.839241 
L 125.250132 329.445115 
" style="fill: none; stroke: #b0b0b0; stroke-width: 0.8"/>
    <path d="M 620.076364 227.380608 
L 314.422155 148.90017 
L 123.358354 290.161124 
" style="fill: none; stroke: #b0b0b0; stroke-width: 0.8"/>
   </g>
  </g>
  <g id="axis3d_1">
   <g id="line2d_1">
    <path d="M 133.661023 504.102727 
L 445.08181 605.812756 
" style="fill: none; stroke: #000000; stroke-width: 0.8; stroke-linecap: square"/>
   </g>
   <g id="xtick_1">
    <g id="line2d_2">
     <path d="M 166.970498 513.114834 
L 162.223917 517.172931 
" style="fill: none; stroke: #000000; stroke-width: 0.8; stroke-linecap: square"/>
    </g>
    <g id="text_1">
     <!-- −4 -->
     <g transform="translate(150.511129 537.786973) scale(0.1 -0.1)">
      <defs>
       <path id="DejaVuSans-2212" d="M 678 2272 
L 4684 2272 
L 4684 1741 
L 678 1741 
L 678 2272 
z
" transform="scale(0.015625)"/>
       <path id="DejaVuSans-34" d="M 2419 4116 
L 825 1625 
L 2419 1625 
L 2419 4116 
z
M 2253 4666 
L 3047 4666 
L 3047 1625 
L 3713 1625 
L 3713 1100 
L 3047 1100 
L 3047 0 
L 2419 0 
L 2419 1100 
L 313 1100 
L 313 1709 
L 2253 4666 
z
" transform="scale(0.015625)"/>
      </defs>
      <use xlink:href="#DejaVuSans-2212"/>
      <use xlink:href="#DejaVuSans-34" transform="translate(83.789062 0)"/>
     </g>
    </g>
   </g>
   <g id="xtick_2">
    <g id="line2d_3">
     <path d="M 219.518696 530.260116 
L 214.842923 534.392365 
" style="fill: none; stroke: #000000; stroke-width: 0.8; stroke-linecap: square"/>
    </g>
    <g id="text_2">
     <!-- −2 -->
     <g transform="translate(203.109215 555.131048) scale(0.1 -0.1)">
      <defs>
       <path id="DejaVuSans-32" d="M 1228 531 
L 3431 531 
L 3431 0 
L 469 0 
L 469 531 
Q 828 903 1448 1529 
Q 2069 2156 2228 2338 
Q 2531 2678 2651 2914 
Q 2772 3150 2772 3378 
Q 2772 3750 2511 3984 
Q 2250 4219 1831 4219 
Q 1534 4219 1204 4116 
Q 875 4013 500 3803 
L 500 4441 
Q 881 4594 1212 4672 
Q 1544 4750 1819 4750 
Q 2544 4750 2975 4387 
Q 3406 4025 3406 3419 
Q 3406 3131 3298 2873 
Q 3191 2616 2906 2266 
Q 2828 2175 2409 1742 
Q 1991 1309 1228 531 
z
" transform="scale(0.015625)"/>
      </defs>
      <use xlink:href="#DejaVuSans-2212"/>
      <use xlink:href="#DejaVuSans-32" transform="translate(83.789062 0)"/>
     </g>
    </g>
   </g>
   <g id="xtick_3">
    <g id="line2d_4">
     <path d="M 273.03046 547.719787 
L 268.428907 551.928239 
" style="fill: none; stroke: #000000; stroke-width: 0.8; stroke-linecap: square"/>
    </g>
    <g id="text_3">
     <!-- 0 -->
     <g transform="translate(260.864084 572.793969) scale(0.1 -0.1)">
      <defs>
       <path id="DejaVuSans-30" d="M 2034 4250 
Q 1547 4250 1301 3770 
Q 1056 3291 1056 2328 
Q 1056 1369 1301 889 
Q 1547 409 2034 409 
Q 2525 409 2770 889 
Q 3016 1369 3016 2328 
Q 3016 3291 2770 3770 
Q 2525 4250 2034 4250 
z
M 2034 4750 
Q 2819 4750 3233 4129 
Q 3647 3509 3647 2328 
Q 3647 1150 3233 529 
Q 2819 -91 2034 -91 
Q 1250 -91 836 529 
Q 422 1150 422 2328 
Q 422 3509 836 4129 
Q 1250 4750 2034 4750 
z
" transform="scale(0.015625)"/>
      </defs>
      <use xlink:href="#DejaVuSans-30"/>
     </g>
    </g>
   </g>
   <g id="xtick_4">
    <g id="line2d_5">
     <path d="M 327.532538 565.502575 
L 323.008771 569.789358 
" style="fill: none; stroke: #000000; stroke-width: 0.8; stroke-linecap: square"/>
    </g>
    <g id="text_4">
     <!-- 2 -->
     <g transform="translate(315.422959 590.784608) scale(0.1 -0.1)">
      <use xlink:href="#DejaVuSans-32"/>
     </g>
    </g>
   </g>
   <g id="xtick_5">
    <g id="line2d_6">
     <path d="M 383.052679 583.617534 
L 378.610425 587.984856 
" style="fill: none; stroke: #000000; stroke-width: 0.8; stroke-linecap: square"/>
    </g>
    <g id="text_5">
     <!-- 4 -->
     <g transform="translate(371.003601 609.112173) scale(0.1 -0.1)">
      <use xlink:href="#DejaVuSans-34"/>
     </g>
    </g>
   </g>
   <g id="xtick_6">
    <g id="line2d_7">
     <path d="M 439.619676 602.074058 
L 435.262832 606.524209 
" style="fill: none; stroke: #000000; stroke-width: 0.8; stroke-linecap: square"/>
    </g>
    <g id="text_6">
     <!-- 6 -->
     <g transform="translate(427.634987 627.786218) scale(0.1 -0.1)">
      <defs>
       <path id="DejaVuSans-36" d="M 2113 2584 
Q 1688 2584 1439 2293 
Q 1191 2003 1191 1497 
Q 1191 994 1439 701 
Q 1688 409 2113 409 
Q 2538 409 2786 701 
Q 3034 994 3034 1497 
Q 3034 2003 2786 2293 
Q 2538 2584 2113 2584 
z
M 3366 4563 
L 3366 3988 
Q 3128 4100 2886 4159 
Q 2644 4219 2406 4219 
Q 1781 4219 1451 3797 
Q 1122 3375 1075 2522 
Q 1259 2794 1537 2939 
Q 1816 3084 2150 3084 
Q 2853 3084 3261 2657 
Q 3669 2231 3669 1497 
Q 3669 778 3244 343 
Q 2819 -91 2113 -91 
Q 1303 -91 875 529 
Q 447 1150 447 2328 
Q 447 3434 972 4092 
Q 1497 4750 2381 4750 
Q 2619 4750 2861 4703 
Q 3103 4656 3366 4563 
z
" transform="scale(0.015625)"/>
      </defs>
      <use xlink:href="#DejaVuSans-36"/>
     </g>
    </g>
   </g>
   <g id="text_7">
    <!-- Principal Component 1 -->
    <g transform="translate(214.295311 573.758976) rotate(-341.912962) scale(0.1 -0.1)">
     <defs>
      <path id="DejaVuSans-50" d="M 1259 4147 
L 1259 2394 
L 2053 2394 
Q 2494 2394 2734 2622 
Q 2975 2850 2975 3272 
Q 2975 3691 2734 3919 
Q 2494 4147 2053 4147 
L 1259 4147 
z
M 628 4666 
L 2053 4666 
Q 2838 4666 3239 4311 
Q 3641 3956 3641 3272 
Q 3641 2581 3239 2228 
Q 2838 1875 2053 1875 
L 1259 1875 
L 1259 0 
L 628 0 
L 628 4666 
z
" transform="scale(0.015625)"/>
      <path id="DejaVuSans-72" d="M 2631 2963 
Q 2534 3019 2420 3045 
Q 2306 3072 2169 3072 
Q 1681 3072 1420 2755 
Q 1159 2438 1159 1844 
L 1159 0 
L 581 0 
L 581 3500 
L 1159 3500 
L 1159 2956 
Q 1341 3275 1631 3429 
Q 1922 3584 2338 3584 
Q 2397 3584 2469 3576 
Q 2541 3569 2628 3553 
L 2631 2963 
z
" transform="scale(0.015625)"/>
      <path id="DejaVuSans-69" d="M 603 3500 
L 1178 3500 
L 1178 0 
L 603 0 
L 603 3500 
z
M 603 4863 
L 1178 4863 
L 1178 4134 
L 603 4134 
L 603 4863 
z
" transform="scale(0.015625)"/>
      <path id="DejaVuSans-6e" d="M 3513 2113 
L 3513 0 
L 2938 0 
L 2938 2094 
Q 2938 2591 2744 2837 
Q 2550 3084 2163 3084 
Q 1697 3084 1428 2787 
Q 1159 2491 1159 1978 
L 1159 0 
L 581 0 
L 581 3500 
L 1159 3500 
L 1159 2956 
Q 1366 3272 1645 3428 
Q 1925 3584 2291 3584 
Q 2894 3584 3203 3211 
Q 3513 2838 3513 2113 
z
" transform="scale(0.015625)"/>
      <path id="DejaVuSans-63" d="M 3122 3366 
L 3122 2828 
Q 2878 2963 2633 3030 
Q 2388 3097 2138 3097 
Q 1578 3097 1268 2742 
Q 959 2388 959 1747 
Q 959 1106 1268 751 
Q 1578 397 2138 397 
Q 2388 397 2633 464 
Q 2878 531 3122 666 
L 3122 134 
Q 2881 22 2623 -34 
Q 2366 -91 2075 -91 
Q 1284 -91 818 406 
Q 353 903 353 1747 
Q 353 2603 823 3093 
Q 1294 3584 2113 3584 
Q 2378 3584 2631 3529 
Q 2884 3475 3122 3366 
z
" transform="scale(0.015625)"/>
      <path id="DejaVuSans-70" d="M 1159 525 
L 1159 -1331 
L 581 -1331 
L 581 3500 
L 1159 3500 
L 1159 2969 
Q 1341 3281 1617 3432 
Q 1894 3584 2278 3584 
Q 2916 3584 3314 3078 
Q 3713 2572 3713 1747 
Q 3713 922 3314 415 
Q 2916 -91 2278 -91 
Q 1894 -91 1617 61 
Q 1341 213 1159 525 
z
M 3116 1747 
Q 3116 2381 2855 2742 
Q 2594 3103 2138 3103 
Q 1681 3103 1420 2742 
Q 1159 2381 1159 1747 
Q 1159 1113 1420 752 
Q 1681 391 2138 391 
Q 2594 391 2855 752 
Q 3116 1113 3116 1747 
z
" transform="scale(0.015625)"/>
      <path id="DejaVuSans-61" d="M 2194 1759 
Q 1497 1759 1228 1600 
Q 959 1441 959 1056 
Q 959 750 1161 570 
Q 1363 391 1709 391 
Q 2188 391 2477 730 
Q 2766 1069 2766 1631 
L 2766 1759 
L 2194 1759 
z
M 3341 1997 
L 3341 0 
L 2766 0 
L 2766 531 
Q 2569 213 2275 61 
Q 1981 -91 1556 -91 
Q 1019 -91 701 211 
Q 384 513 384 1019 
Q 384 1609 779 1909 
Q 1175 2209 1959 2209 
L 2766 2209 
L 2766 2266 
Q 2766 2663 2505 2880 
Q 2244 3097 1772 3097 
Q 1472 3097 1187 3025 
Q 903 2953 641 2809 
L 641 3341 
Q 956 3463 1253 3523 
Q 1550 3584 1831 3584 
Q 2591 3584 2966 3190 
Q 3341 2797 3341 1997 
z
" transform="scale(0.015625)"/>
      <path id="DejaVuSans-6c" d="M 603 4863 
L 1178 4863 
L 1178 0 
L 603 0 
L 603 4863 
z
" transform="scale(0.015625)"/>
      <path id="DejaVuSans-20" transform="scale(0.015625)"/>
      <path id="DejaVuSans-43" d="M 4122 4306 
L 4122 3641 
Q 3803 3938 3442 4084 
Q 3081 4231 2675 4231 
Q 1875 4231 1450 3742 
Q 1025 3253 1025 2328 
Q 1025 1406 1450 917 
Q 1875 428 2675 428 
Q 3081 428 3442 575 
Q 3803 722 4122 1019 
L 4122 359 
Q 3791 134 3420 21 
Q 3050 -91 2638 -91 
Q 1578 -91 968 557 
Q 359 1206 359 2328 
Q 359 3453 968 4101 
Q 1578 4750 2638 4750 
Q 3056 4750 3426 4639 
Q 3797 4528 4122 4306 
z
" transform="scale(0.015625)"/>
      <path id="DejaVuSans-6f" d="M 1959 3097 
Q 1497 3097 1228 2736 
Q 959 2375 959 1747 
Q 959 1119 1226 758 
Q 1494 397 1959 397 
Q 2419 397 2687 759 
Q 2956 1122 2956 1747 
Q 2956 2369 2687 2733 
Q 2419 3097 1959 3097 
z
M 1959 3584 
Q 2709 3584 3137 3096 
Q 3566 2609 3566 1747 
Q 3566 888 3137 398 
Q 2709 -91 1959 -91 
Q 1206 -91 779 398 
Q 353 888 353 1747 
Q 353 2609 779 3096 
Q 1206 3584 1959 3584 
z
" transform="scale(0.015625)"/>
      <path id="DejaVuSans-6d" d="M 3328 2828 
Q 3544 3216 3844 3400 
Q 4144 3584 4550 3584 
Q 5097 3584 5394 3201 
Q 5691 2819 5691 2113 
L 5691 0 
L 5113 0 
L 5113 2094 
Q 5113 2597 4934 2840 
Q 4756 3084 4391 3084 
Q 3944 3084 3684 2787 
Q 3425 2491 3425 1978 
L 3425 0 
L 2847 0 
L 2847 2094 
Q 2847 2600 2669 2842 
Q 2491 3084 2119 3084 
Q 1678 3084 1418 2786 
Q 1159 2488 1159 1978 
L 1159 0 
L 581 0 
L 581 3500 
L 1159 3500 
L 1159 2956 
Q 1356 3278 1631 3431 
Q 1906 3584 2284 3584 
Q 2666 3584 2933 3390 
Q 3200 3197 3328 2828 
z
" transform="scale(0.015625)"/>
      <path id="DejaVuSans-65" d="M 3597 1894 
L 3597 1613 
L 953 1613 
Q 991 1019 1311 708 
Q 1631 397 2203 397 
Q 2534 397 2845 478 
Q 3156 559 3463 722 
L 3463 178 
Q 3153 47 2828 -22 
Q 2503 -91 2169 -91 
Q 1331 -91 842 396 
Q 353 884 353 1716 
Q 353 2575 817 3079 
Q 1281 3584 2069 3584 
Q 2775 3584 3186 3129 
Q 3597 2675 3597 1894 
z
M 3022 2063 
Q 3016 2534 2758 2815 
Q 2500 3097 2075 3097 
Q 1594 3097 1305 2825 
Q 1016 2553 972 2059 
L 3022 2063 
z
" transform="scale(0.015625)"/>
      <path id="DejaVuSans-74" d="M 1172 4494 
L 1172 3500 
L 2356 3500 
L 2356 3053 
L 1172 3053 
L 1172 1153 
Q 1172 725 1289 603 
Q 1406 481 1766 481 
L 2356 481 
L 2356 0 
L 1766 0 
Q 1100 0 847 248 
Q 594 497 594 1153 
L 594 3053 
L 172 3053 
L 172 3500 
L 594 3500 
L 594 4494 
L 1172 4494 
z
" transform="scale(0.015625)"/>
      <path id="DejaVuSans-31" d="M 794 531 
L 1825 531 
L 1825 4091 
L 703 3866 
L 703 4441 
L 1819 4666 
L 2450 4666 
L 2450 531 
L 3481 531 
L 3481 0 
L 794 0 
L 794 531 
z
" transform="scale(0.015625)"/>
     </defs>
     <use xlink:href="#DejaVuSans-50"/>
     <use xlink:href="#DejaVuSans-72" transform="translate(58.552734 0)"/>
     <use xlink:href="#DejaVuSans-69" transform="translate(99.666016 0)"/>
     <use xlink:href="#DejaVuSans-6e" transform="translate(127.449219 0)"/>
     <use xlink:href="#DejaVuSans-63" transform="translate(190.828125 0)"/>
     <use xlink:href="#DejaVuSans-69" transform="translate(245.808594 0)"/>
     <use xlink:href="#DejaVuSans-70" transform="translate(273.591797 0)"/>
     <use xlink:href="#DejaVuSans-61" transform="translate(337.068359 0)"/>
     <use xlink:href="#DejaVuSans-6c" transform="translate(398.347656 0)"/>
     <use xlink:href="#DejaVuSans-20" transform="translate(426.130859 0)"/>
     <use xlink:href="#DejaVuSans-43" transform="translate(457.917969 0)"/>
     <use xlink:href="#DejaVuSans-6f" transform="translate(527.742188 0)"/>
     <use xlink:href="#DejaVuSans-6d" transform="translate(588.923828 0)"/>
     <use xlink:href="#DejaVuSans-70" transform="translate(686.335938 0)"/>
     <use xlink:href="#DejaVuSans-6f" transform="translate(749.8125 0)"/>
     <use xlink:href="#DejaVuSans-6e" transform="translate(810.994141 0)"/>
     <use xlink:href="#DejaVuSans-65" transform="translate(874.373047 0)"/>
     <use xlink:href="#DejaVuSans-6e" transform="translate(935.896484 0)"/>
     <use xlink:href="#DejaVuSans-74" transform="translate(999.275391 0)"/>
     <use xlink:href="#DejaVuSans-20" transform="translate(1038.484375 0)"/>
     <use xlink:href="#DejaVuSans-31" transform="translate(1070.271484 0)"/>
    </g>
   </g>
  </g>
  <g id="axis3d_2">
   <g id="line2d_8">
    <path d="M 610.521668 436.030763 
L 445.08181 605.812756 
" style="fill: none; stroke: #000000; stroke-width: 0.8; stroke-linecap: square"/>
   </g>
   <g id="xtick_7">
    <g id="line2d_9">
     <path d="M 465.318886 581.535148 
L 473.13714 584.048887 
" style="fill: none; stroke: #000000; stroke-width: 0.8; stroke-linecap: square"/>
    </g>
    <g id="text_8">
     <!-- −2 -->
     <g transform="translate(473.355002 603.306809) scale(0.1 -0.1)">
      <use xlink:href="#DejaVuSans-2212"/>
      <use xlink:href="#DejaVuSans-32" transform="translate(83.789062 0)"/>
     </g>
    </g>
   </g>
   <g id="xtick_8">
    <g id="line2d_10">
     <path d="M 489.180593 557.091032 
L 496.931286 559.542284 
" style="fill: none; stroke: #000000; stroke-width: 0.8; stroke-linecap: square"/>
    </g>
    <g id="text_9">
     <!-- −1 -->
     <g transform="translate(497.040811 578.668179) scale(0.1 -0.1)">
      <use xlink:href="#DejaVuSans-2212"/>
      <use xlink:href="#DejaVuSans-31" transform="translate(83.789062 0)"/>
     </g>
    </g>
   </g>
   <g id="xtick_9">
    <g id="line2d_11">
     <path d="M 512.453145 533.250451 
L 520.137209 535.641517 
" style="fill: none; stroke: #000000; stroke-width: 0.8; stroke-linecap: square"/>
    </g>
    <g id="text_10">
     <!-- 0 -->
     <g transform="translate(524.331244 554.63831) scale(0.1 -0.1)">
      <use xlink:href="#DejaVuSans-30"/>
     </g>
    </g>
   </g>
   <g id="xtick_10">
    <g id="line2d_12">
     <path d="M 535.158095 509.991326 
L 542.776455 512.324395 
" style="fill: none; stroke: #000000; stroke-width: 0.8; stroke-linecap: square"/>
    </g>
    <g id="text_11">
     <!-- 1 -->
     <g transform="translate(546.868039 531.194917) scale(0.1 -0.1)">
      <use xlink:href="#DejaVuSans-31"/>
     </g>
    </g>
   </g>
   <g id="xtick_11">
    <g id="line2d_13">
     <path d="M 557.315958 487.292641 
L 564.869529 489.569798 
" style="fill: none; stroke: #000000; stroke-width: 0.8; stroke-linecap: square"/>
    </g>
    <g id="text_12">
     <!-- 2 -->
     <g transform="translate(568.861429 508.316787) scale(0.1 -0.1)">
      <use xlink:href="#DejaVuSans-32"/>
     </g>
    </g>
   </g>
   <g id="xtick_12">
    <g id="line2d_14">
     <path d="M 578.946273 465.13438 
L 586.435962 467.357612 
" style="fill: none; stroke: #000000; stroke-width: 0.8; stroke-linecap: square"/>
    </g>
    <g id="text_13">
     <!-- 3 -->
     <g transform="translate(590.330835 485.98372) scale(0.1 -0.1)">
      <defs>
       <path id="DejaVuSans-33" d="M 2597 2516 
Q 3050 2419 3304 2112 
Q 3559 1806 3559 1356 
Q 3559 666 3084 287 
Q 2609 -91 1734 -91 
Q 1441 -91 1130 -33 
Q 819 25 488 141 
L 488 750 
Q 750 597 1062 519 
Q 1375 441 1716 441 
Q 2309 441 2620 675 
Q 2931 909 2931 1356 
Q 2931 1769 2642 2001 
Q 2353 2234 1838 2234 
L 1294 2234 
L 1294 2753 
L 1863 2753 
Q 2328 2753 2575 2939 
Q 2822 3125 2822 3475 
Q 2822 3834 2567 4026 
Q 2313 4219 1838 4219 
Q 1578 4219 1281 4162 
Q 984 4106 628 3988 
L 628 4550 
Q 988 4650 1302 4700 
Q 1616 4750 1894 4750 
Q 2613 4750 3031 4423 
Q 3450 4097 3450 3541 
Q 3450 3153 3228 2886 
Q 3006 2619 2597 2516 
z
" transform="scale(0.015625)"/>
      </defs>
      <use xlink:href="#DejaVuSans-33"/>
     </g>
    </g>
   </g>
   <g id="xtick_13">
    <g id="line2d_15">
     <path d="M 600.067658 443.497472 
L 607.494362 445.66867 
" style="fill: none; stroke: #000000; stroke-width: 0.8; stroke-linecap: square"/>
    </g>
    <g id="text_14">
     <!-- 4 -->
     <g transform="translate(611.294763 464.176467) scale(0.1 -0.1)">
      <use xlink:href="#DejaVuSans-34"/>
     </g>
    </g>
   </g>
   <g id="text_15">
    <!-- Principal Component 2 -->
    <g transform="translate(520.86887 587.643599) rotate(-45.742112) scale(0.1 -0.1)">
     <use xlink:href="#DejaVuSans-50"/>
     <use xlink:href="#DejaVuSans-72" transform="translate(58.552734 0)"/>
     <use xlink:href="#DejaVuSans-69" transform="translate(99.666016 0)"/>
     <use xlink:href="#DejaVuSans-6e" transform="translate(127.449219 0)"/>
     <use xlink:href="#DejaVuSans-63" transform="translate(190.828125 0)"/>
     <use xlink:href="#DejaVuSans-69" transform="translate(245.808594 0)"/>
     <use xlink:href="#DejaVuSans-70" transform="translate(273.591797 0)"/>
     <use xlink:href="#DejaVuSans-61" transform="translate(337.068359 0)"/>
     <use xlink:href="#DejaVuSans-6c" transform="translate(398.347656 0)"/>
     <use xlink:href="#DejaVuSans-20" transform="translate(426.130859 0)"/>
     <use xlink:href="#DejaVuSans-43" transform="translate(457.917969 0)"/>
     <use xlink:href="#DejaVuSans-6f" transform="translate(527.742188 0)"/>
     <use xlink:href="#DejaVuSans-6d" transform="translate(588.923828 0)"/>
     <use xlink:href="#DejaVuSans-70" transform="translate(686.335938 0)"/>
     <use xlink:href="#DejaVuSans-6f" transform="translate(749.8125 0)"/>
     <use xlink:href="#DejaVuSans-6e" transform="translate(810.994141 0)"/>
     <use xlink:href="#DejaVuSans-65" transform="translate(874.373047 0)"/>
     <use xlink:href="#DejaVuSans-6e" transform="translate(935.896484 0)"/>
     <use xlink:href="#DejaVuSans-74" transform="translate(999.275391 0)"/>
     <use xlink:href="#DejaVuSans-20" transform="translate(1038.484375 0)"/>
     <use xlink:href="#DejaVuSans-32" transform="translate(1070.271484 0)"/>
    </g>
   </g>
  </g>
  <g id="axis3d_3">
   <g id="line2d_16">
    <path d="M 610.521668 436.030763 
L 621.005628 207.087856 
" style="fill: none; stroke: #000000; stroke-width: 0.8; stroke-linecap: square"/>
   </g>
   <g id="xtick_14">
    <g id="line2d_17">
     <path d="M 609.083262 412.640337 
L 616.520092 414.77449 
" style="fill: none; stroke: #000000; stroke-width: 0.8; stroke-linecap: square"/>
    </g>
    <g id="text_16">
     <!-- −1 -->
     <g transform="translate(622.545762 418.361801) scale(0.1 -0.1)">
      <use xlink:href="#DejaVuSans-2212"/>
      <use xlink:href="#DejaVuSans-31" transform="translate(83.789062 0)"/>
     </g>
    </g>
   </g>
   <g id="xtick_15">
    <g id="line2d_18">
     <path d="M 610.720417 376.503321 
L 618.211625 378.609046 
" style="fill: none; stroke: #000000; stroke-width: 0.8; stroke-linecap: square"/>
    </g>
    <g id="text_17">
     <!-- 0 -->
     <g transform="translate(628.517516 382.249818) scale(0.1 -0.1)">
      <use xlink:href="#DejaVuSans-30"/>
     </g>
    </g>
   </g>
   <g id="xtick_16">
    <g id="line2d_19">
     <path d="M 612.380782 339.85398 
L 619.927169 341.930252 
" style="fill: none; stroke: #000000; stroke-width: 0.8; stroke-linecap: square"/>
    </g>
    <g id="text_18">
     <!-- 1 -->
     <g transform="translate(630.324663 345.626408) scale(0.1 -0.1)">
      <use xlink:href="#DejaVuSans-31"/>
     </g>
    </g>
   </g>
   <g id="xtick_17">
    <g id="line2d_20">
     <path d="M 614.064855 302.68134 
L 621.667238 304.7271 
" style="fill: none; stroke: #000000; stroke-width: 0.8; stroke-linecap: square"/>
    </g>
    <g id="text_19">
     <!-- 2 -->
     <g transform="translate(632.157585 308.480632) scale(0.1 -0.1)">
      <use xlink:href="#DejaVuSans-32"/>
     </g>
    </g>
   </g>
   <g id="xtick_18">
    <g id="line2d_21">
     <path d="M 615.773147 264.974113 
L 623.432362 266.988264 
" style="fill: none; stroke: #000000; stroke-width: 0.8; stroke-linecap: square"/>
    </g>
    <g id="text_20">
     <!-- 3 -->
     <g transform="translate(634.016838 270.801232) scale(0.1 -0.1)">
      <use xlink:href="#DejaVuSans-33"/>
     </g>
    </g>
   </g>
   <g id="xtick_19">
    <g id="line2d_22">
     <path d="M 617.506184 226.720683 
L 625.223087 228.702091 
" style="fill: none; stroke: #000000; stroke-width: 0.8; stroke-linecap: square"/>
    </g>
    <g id="text_21">
     <!-- 4 -->
     <g transform="translate(635.902994 232.576627) scale(0.1 -0.1)">
      <use xlink:href="#DejaVuSans-34"/>
     </g>
    </g>
   </g>
   <g id="text_22">
    <!-- Principal Component 3 -->
    <g transform="translate(656.327422 375.400502) rotate(-87.378092) scale(0.1 -0.1)">
     <use xlink:href="#DejaVuSans-50"/>
     <use xlink:href="#DejaVuSans-72" transform="translate(58.552734 0)"/>
     <use xlink:href="#DejaVuSans-69" transform="translate(99.666016 0)"/>
     <use xlink:href="#DejaVuSans-6e" transform="translate(127.449219 0)"/>
     <use xlink:href="#DejaVuSans-63" transform="translate(190.828125 0)"/>
     <use xlink:href="#DejaVuSans-69" transform="translate(245.808594 0)"/>
     <use xlink:href="#DejaVuSans-70" transform="translate(273.591797 0)"/>
     <use xlink:href="#DejaVuSans-61" transform="translate(337.068359 0)"/>
     <use xlink:href="#DejaVuSans-6c" transform="translate(398.347656 0)"/>
     <use xlink:href="#DejaVuSans-20" transform="translate(426.130859 0)"/>
     <use xlink:href="#DejaVuSans-43" transform="translate(457.917969 0)"/>
     <use xlink:href="#DejaVuSans-6f" transform="translate(527.742188 0)"/>
     <use xlink:href="#DejaVuSans-6d" transform="translate(588.923828 0)"/>
     <use xlink:href="#DejaVuSans-70" transform="translate(686.335938 0)"/>
     <use xlink:href="#DejaVuSans-6f" transform="translate(749.8125 0)"/>
     <use xlink:href="#DejaVuSans-6e" transform="translate(810.994141 0)"/>
     <use xlink:href="#DejaVuSans-65" transform="translate(874.373047 0)"/>
     <use xlink:href="#DejaVuSans-6e" transform="translate(935.896484 0)"/>
     <use xlink:href="#DejaVuSans-74" transform="translate(999.275391 0)"/>
     <use xlink:href="#DejaVuSans-20" transform="translate(1038.484375 0)"/>
     <use xlink:href="#DejaVuSans-33" transform="translate(1070.271484 0)"/>
    </g>
   </g>
  </g>
  <g id="axes_1">
   <g id="Path3DCollection_1">
    <defs>
     <path id="C0_0_b21a270032" d="M 0 5 
C 1.326016 5 2.597899 4.473168 3.535534 3.535534 
C 4.473168 2.597899 5 1.326016 5 -0 
C 5 -1.326016 4.473168 -2.597899 3.535534 -3.535534 
C 2.597899 -4.473168 1.326016 -5 0 -5 
C -1.326016 -5 -2.597899 -4.473168 -3.535534 -3.535534 
C -4.473168 -2.597899 -5 -1.326016 -5 0 
C -5 1.326016 -4.473168 2.597899 -3.535534 3.535534 
C -2.597899 4.473168 -1.326016 5 0 5 
z
"/>
    </defs>
    <g clip-path="url(#pd0d3876599)">
     <use xlink:href="#C0_0_b21a270032" x="406.02754" y="370.465578" style="fill: #17becf; fill-opacity: 0.3; stroke: #17becf; stroke-opacity: 0.3"/>
    </g>
    <g clip-path="url(#pd0d3876599)">
     <use xlink:href="#C0_0_b21a270032" x="408.271036" y="375.587094" style="fill: #17becf; fill-opacity: 0.328718; stroke: #17becf; stroke-opacity: 0.328718"/>
    </g>
    <g clip-path="url(#pd0d3876599)">
     <use xlink:href="#C0_0_b21a270032" x="414.773773" y="393.319334" style="fill: #17becf; fill-opacity: 0.440656; stroke: #17becf; stroke-opacity: 0.440656"/>
    </g>
    <g clip-path="url(#pd0d3876599)">
     <use xlink:href="#C0_0_b21a270032" x="448.935335" y="484.94894" style="fill: #17becf; stroke: #17becf"/>
    </g>
   </g>
   <g id="text_23">
    <!-- queen -->
    <g transform="translate(221.818502 491.143863) scale(0.1 -0.1)">
     <defs>
      <path id="DejaVuSans-71" d="M 947 1747 
Q 947 1113 1208 752 
Q 1469 391 1925 391 
Q 2381 391 2643 752 
Q 2906 1113 2906 1747 
Q 2906 2381 2643 2742 
Q 2381 3103 1925 3103 
Q 1469 3103 1208 2742 
Q 947 2381 947 1747 
z
M 2906 525 
Q 2725 213 2448 61 
Q 2172 -91 1784 -91 
Q 1150 -91 751 415 
Q 353 922 353 1747 
Q 353 2572 751 3078 
Q 1150 3584 1784 3584 
Q 2172 3584 2448 3432 
Q 2725 3281 2906 2969 
L 2906 3500 
L 3481 3500 
L 3481 -1331 
L 2906 -1331 
L 2906 525 
z
" transform="scale(0.015625)"/>
      <path id="DejaVuSans-75" d="M 544 1381 
L 544 3500 
L 1119 3500 
L 1119 1403 
Q 1119 906 1312 657 
Q 1506 409 1894 409 
Q 2359 409 2629 706 
Q 2900 1003 2900 1516 
L 2900 3500 
L 3475 3500 
L 3475 0 
L 2900 0 
L 2900 538 
Q 2691 219 2414 64 
Q 2138 -91 1772 -91 
Q 1169 -91 856 284 
Q 544 659 544 1381 
z
M 1991 3584 
L 1991 3584 
z
" transform="scale(0.015625)"/>
     </defs>
     <use xlink:href="#DejaVuSans-71"/>
     <use xlink:href="#DejaVuSans-75" transform="translate(63.476562 0)"/>
     <use xlink:href="#DejaVuSans-65" transform="translate(126.855469 0)"/>
     <use xlink:href="#DejaVuSans-65" transform="translate(188.378906 0)"/>
     <use xlink:href="#DejaVuSans-6e" transform="translate(249.902344 0)"/>
    </g>
   </g>
   <g id="text_24">
    <!-- tybalt -->
    <g transform="translate(408.271036 375.587094) scale(0.1 -0.1)">
     <defs>
      <path id="DejaVuSans-79" d="M 2059 -325 
Q 1816 -950 1584 -1140 
Q 1353 -1331 966 -1331 
L 506 -1331 
L 506 -850 
L 844 -850 
Q 1081 -850 1212 -737 
Q 1344 -625 1503 -206 
L 1606 56 
L 191 3500 
L 800 3500 
L 1894 763 
L 2988 3500 
L 3597 3500 
L 2059 -325 
z
" transform="scale(0.015625)"/>
      <path id="DejaVuSans-62" d="M 3116 1747 
Q 3116 2381 2855 2742 
Q 2594 3103 2138 3103 
Q 1681 3103 1420 2742 
Q 1159 2381 1159 1747 
Q 1159 1113 1420 752 
Q 1681 391 2138 391 
Q 2594 391 2855 752 
Q 3116 1113 3116 1747 
z
M 1159 2969 
Q 1341 3281 1617 3432 
Q 1894 3584 2278 3584 
Q 2916 3584 3314 3078 
Q 3713 2572 3713 1747 
Q 3713 922 3314 415 
Q 2916 -91 2278 -91 
Q 1894 -91 1617 61 
Q 1341 213 1159 525 
L 1159 0 
L 581 0 
L 581 4863 
L 1159 4863 
L 1159 2969 
z
" transform="scale(0.015625)"/>
     </defs>
     <use xlink:href="#DejaVuSans-74"/>
     <use xlink:href="#DejaVuSans-79" transform="translate(39.208984 0)"/>
     <use xlink:href="#DejaVuSans-62" transform="translate(98.388672 0)"/>
     <use xlink:href="#DejaVuSans-61" transform="translate(161.865234 0)"/>
     <use xlink:href="#DejaVuSans-6c" transform="translate(223.144531 0)"/>
     <use xlink:href="#DejaVuSans-74" transform="translate(250.927734 0)"/>
    </g>
   </g>
   <g id="text_25">
    <!-- abram -->
    <g transform="translate(447.375602 481.291717) scale(0.1 -0.1)">
     <use xlink:href="#DejaVuSans-61"/>
     <use xlink:href="#DejaVuSans-62" transform="translate(61.279297 0)"/>
     <use xlink:href="#DejaVuSans-72" transform="translate(124.755859 0)"/>
     <use xlink:href="#DejaVuSans-61" transform="translate(165.869141 0)"/>
     <use xlink:href="#DejaVuSans-6d" transform="translate(227.148438 0)"/>
    </g>
   </g>
   <g id="text_26">
    <!-- macbeth -->
    <g transform="translate(279.547458 238.034085) scale(0.1 -0.1)">
     <defs>
      <path id="DejaVuSans-68" d="M 3513 2113 
L 3513 0 
L 2938 0 
L 2938 2094 
Q 2938 2591 2744 2837 
Q 2550 3084 2163 3084 
Q 1697 3084 1428 2787 
Q 1159 2491 1159 1978 
L 1159 0 
L 581 0 
L 581 4863 
L 1159 4863 
L 1159 2956 
Q 1366 3272 1645 3428 
Q 1925 3584 2291 3584 
Q 2894 3584 3203 3211 
Q 3513 2838 3513 2113 
z
" transform="scale(0.015625)"/>
     </defs>
     <use xlink:href="#DejaVuSans-6d"/>
     <use xlink:href="#DejaVuSans-61" transform="translate(97.412109 0)"/>
     <use xlink:href="#DejaVuSans-63" transform="translate(158.691406 0)"/>
     <use xlink:href="#DejaVuSans-62" transform="translate(213.671875 0)"/>
     <use xlink:href="#DejaVuSans-65" transform="translate(277.148438 0)"/>
     <use xlink:href="#DejaVuSans-74" transform="translate(338.671875 0)"/>
     <use xlink:href="#DejaVuSans-68" transform="translate(377.880859 0)"/>
    </g>
   </g>
   <g id="text_27">
    <!-- donalbain -->
    <g transform="translate(383.302388 396.774287) scale(0.1 -0.1)">
     <defs>
      <path id="DejaVuSans-64" d="M 2906 2969 
L 2906 4863 
L 3481 4863 
L 3481 0 
L 2906 0 
L 2906 525 
Q 2725 213 2448 61 
Q 2172 -91 1784 -91 
Q 1150 -91 751 415 
Q 353 922 353 1747 
Q 353 2572 751 3078 
Q 1150 3584 1784 3584 
Q 2172 3584 2448 3432 
Q 2725 3281 2906 2969 
z
M 947 1747 
Q 947 1113 1208 752 
Q 1469 391 1925 391 
Q 2381 391 2643 752 
Q 2906 1113 2906 1747 
Q 2906 2381 2643 2742 
Q 2381 3103 1925 3103 
Q 1469 3103 1208 2742 
Q 947 2381 947 1747 
z
" transform="scale(0.015625)"/>
     </defs>
     <use xlink:href="#DejaVuSans-64"/>
     <use xlink:href="#DejaVuSans-6f" transform="translate(63.476562 0)"/>
     <use xlink:href="#DejaVuSans-6e" transform="translate(124.658203 0)"/>
     <use xlink:href="#DejaVuSans-61" transform="translate(188.037109 0)"/>
     <use xlink:href="#DejaVuSans-6c" transform="translate(249.316406 0)"/>
     <use xlink:href="#DejaVuSans-62" transform="translate(277.099609 0)"/>
     <use xlink:href="#DejaVuSans-61" transform="translate(340.576172 0)"/>
     <use xlink:href="#DejaVuSans-69" transform="translate(401.855469 0)"/>
     <use xlink:href="#DejaVuSans-6e" transform="translate(429.638672 0)"/>
    </g>
   </g>
   <g id="text_28">
    <!-- petruchio -->
    <g transform="translate(448.935335 484.94894) scale(0.1 -0.1)">
     <use xlink:href="#DejaVuSans-70"/>
     <use xlink:href="#DejaVuSans-65" transform="translate(63.476562 0)"/>
     <use xlink:href="#DejaVuSans-74" transform="translate(125 0)"/>
     <use xlink:href="#DejaVuSans-72" transform="translate(164.208984 0)"/>
     <use xlink:href="#DejaVuSans-75" transform="translate(205.322266 0)"/>
     <use xlink:href="#DejaVuSans-63" transform="translate(268.701172 0)"/>
     <use xlink:href="#DejaVuSans-68" transform="translate(323.681641 0)"/>
     <use xlink:href="#DejaVuSans-69" transform="translate(387.060547 0)"/>
     <use xlink:href="#DejaVuSans-6f" transform="translate(414.84375 0)"/>
    </g>
   </g>
   <g id="text_29">
    <!-- horatio -->
    <g transform="translate(258.194141 495.183688) scale(0.1 -0.1)">
     <use xlink:href="#DejaVuSans-68"/>
     <use xlink:href="#DejaVuSans-6f" transform="translate(63.378906 0)"/>
     <use xlink:href="#DejaVuSans-72" transform="translate(124.560547 0)"/>
     <use xlink:href="#DejaVuSans-61" transform="translate(165.673828 0)"/>
     <use xlink:href="#DejaVuSans-74" transform="translate(226.953125 0)"/>
     <use xlink:href="#DejaVuSans-69" transform="translate(266.162109 0)"/>
     <use xlink:href="#DejaVuSans-6f" transform="translate(293.945312 0)"/>
    </g>
   </g>
   <g id="text_30">
    <!-- lady -->
    <g transform="translate(414.902745 393.655282) scale(0.1 -0.1)">
     <use xlink:href="#DejaVuSans-6c"/>
     <use xlink:href="#DejaVuSans-61" transform="translate(27.783203 0)"/>
     <use xlink:href="#DejaVuSans-64" transform="translate(89.0625 0)"/>
     <use xlink:href="#DejaVuSans-79" transform="translate(152.539062 0)"/>
    </g>
   </g>
   <g id="text_31">
    <!-- reynaldo -->
    <g transform="translate(351.090468 503.814274) scale(0.1 -0.1)">
     <use xlink:href="#DejaVuSans-72"/>
     <use xlink:href="#DejaVuSans-65" transform="translate(38.863281 0)"/>
     <use xlink:href="#DejaVuSans-79" transform="translate(100.386719 0)"/>
     <use xlink:href="#DejaVuSans-6e" transform="translate(159.566406 0)"/>
     <use xlink:href="#DejaVuSans-61" transform="translate(222.945312 0)"/>
     <use xlink:href="#DejaVuSans-6c" transform="translate(284.224609 0)"/>
     <use xlink:href="#DejaVuSans-64" transform="translate(312.007812 0)"/>
     <use xlink:href="#DejaVuSans-6f" transform="translate(375.484375 0)"/>
    </g>
   </g>
   <g id="text_32">
    <!-- hamlet -->
    <g transform="translate(164.473911 485.323642) scale(0.1 -0.1)">
     <use xlink:href="#DejaVuSans-68"/>
     <use xlink:href="#DejaVuSans-61" transform="translate(63.378906 0)"/>
     <use xlink:href="#DejaVuSans-6d" transform="translate(124.658203 0)"/>
     <use xlink:href="#DejaVuSans-6c" transform="translate(222.070312 0)"/>
     <use xlink:href="#DejaVuSans-65" transform="translate(249.853516 0)"/>
     <use xlink:href="#DejaVuSans-74" transform="translate(311.376953 0)"/>
    </g>
   </g>
   <g id="text_33">
    <!-- king -->
    <g transform="translate(205.10789 489.524182) scale(0.1 -0.1)">
     <defs>
      <path id="DejaVuSans-6b" d="M 581 4863 
L 1159 4863 
L 1159 1991 
L 2875 3500 
L 3609 3500 
L 1753 1863 
L 3688 0 
L 2938 0 
L 1159 1709 
L 1159 0 
L 581 0 
L 581 4863 
z
" transform="scale(0.015625)"/>
      <path id="DejaVuSans-67" d="M 2906 1791 
Q 2906 2416 2648 2759 
Q 2391 3103 1925 3103 
Q 1463 3103 1205 2759 
Q 947 2416 947 1791 
Q 947 1169 1205 825 
Q 1463 481 1925 481 
Q 2391 481 2648 825 
Q 2906 1169 2906 1791 
z
M 3481 434 
Q 3481 -459 3084 -895 
Q 2688 -1331 1869 -1331 
Q 1566 -1331 1297 -1286 
Q 1028 -1241 775 -1147 
L 775 -588 
Q 1028 -725 1275 -790 
Q 1522 -856 1778 -856 
Q 2344 -856 2625 -561 
Q 2906 -266 2906 331 
L 2906 616 
Q 2728 306 2450 153 
Q 2172 0 1784 0 
Q 1141 0 747 490 
Q 353 981 353 1791 
Q 353 2603 747 3093 
Q 1141 3584 1784 3584 
Q 2172 3584 2450 3431 
Q 2728 3278 2906 2969 
L 2906 3500 
L 3481 3500 
L 3481 434 
z
" transform="scale(0.015625)"/>
     </defs>
     <use xlink:href="#DejaVuSans-6b"/>
     <use xlink:href="#DejaVuSans-69" transform="translate(57.910156 0)"/>
     <use xlink:href="#DejaVuSans-6e" transform="translate(85.693359 0)"/>
     <use xlink:href="#DejaVuSans-67" transform="translate(149.072266 0)"/>
    </g>
   </g>
   <g id="text_34">
    <!-- ophelia -->
    <g transform="translate(229.771028 492.032942) scale(0.1 -0.1)">
     <use xlink:href="#DejaVuSans-6f"/>
     <use xlink:href="#DejaVuSans-70" transform="translate(61.181641 0)"/>
     <use xlink:href="#DejaVuSans-68" transform="translate(124.658203 0)"/>
     <use xlink:href="#DejaVuSans-65" transform="translate(188.037109 0)"/>
     <use xlink:href="#DejaVuSans-6c" transform="translate(249.560547 0)"/>
     <use xlink:href="#DejaVuSans-69" transform="translate(277.34375 0)"/>
     <use xlink:href="#DejaVuSans-61" transform="translate(305.126953 0)"/>
    </g>
   </g>
   <g id="text_35">
    <!-- duncan -->
    <g transform="translate(315.032642 293.373904) scale(0.1 -0.1)">
     <use xlink:href="#DejaVuSans-64"/>
     <use xlink:href="#DejaVuSans-75" transform="translate(63.476562 0)"/>
     <use xlink:href="#DejaVuSans-6e" transform="translate(126.855469 0)"/>
     <use xlink:href="#DejaVuSans-63" transform="translate(190.234375 0)"/>
     <use xlink:href="#DejaVuSans-61" transform="translate(245.214844 0)"/>
     <use xlink:href="#DejaVuSans-6e" transform="translate(306.494141 0)"/>
    </g>
   </g>
   <g id="text_36">
    <!-- balthasar -->
    <g transform="translate(459.415743 513.004063) scale(0.1 -0.1)">
     <defs>
      <path id="DejaVuSans-73" d="M 2834 3397 
L 2834 2853 
Q 2591 2978 2328 3040 
Q 2066 3103 1784 3103 
Q 1356 3103 1142 2972 
Q 928 2841 928 2578 
Q 928 2378 1081 2264 
Q 1234 2150 1697 2047 
L 1894 2003 
Q 2506 1872 2764 1633 
Q 3022 1394 3022 966 
Q 3022 478 2636 193 
Q 2250 -91 1575 -91 
Q 1294 -91 989 -36 
Q 684 19 347 128 
L 347 722 
Q 666 556 975 473 
Q 1284 391 1588 391 
Q 1994 391 2212 530 
Q 2431 669 2431 922 
Q 2431 1156 2273 1281 
Q 2116 1406 1581 1522 
L 1381 1569 
Q 847 1681 609 1914 
Q 372 2147 372 2553 
Q 372 3047 722 3315 
Q 1072 3584 1716 3584 
Q 2034 3584 2315 3537 
Q 2597 3491 2834 3397 
z
" transform="scale(0.015625)"/>
     </defs>
     <use xlink:href="#DejaVuSans-62"/>
     <use xlink:href="#DejaVuSans-61" transform="translate(63.476562 0)"/>
     <use xlink:href="#DejaVuSans-6c" transform="translate(124.755859 0)"/>
     <use xlink:href="#DejaVuSans-74" transform="translate(152.539062 0)"/>
     <use xlink:href="#DejaVuSans-68" transform="translate(191.748047 0)"/>
     <use xlink:href="#DejaVuSans-61" transform="translate(255.126953 0)"/>
     <use xlink:href="#DejaVuSans-73" transform="translate(316.40625 0)"/>
     <use xlink:href="#DejaVuSans-61" transform="translate(368.505859 0)"/>
     <use xlink:href="#DejaVuSans-72" transform="translate(429.785156 0)"/>
    </g>
   </g>
   <g id="text_37">
    <!-- benvolio -->
    <g transform="translate(403.456005 362.301386) scale(0.1 -0.1)">
     <defs>
      <path id="DejaVuSans-76" d="M 191 3500 
L 800 3500 
L 1894 563 
L 2988 3500 
L 3597 3500 
L 2284 0 
L 1503 0 
L 191 3500 
z
" transform="scale(0.015625)"/>
     </defs>
     <use xlink:href="#DejaVuSans-62"/>
     <use xlink:href="#DejaVuSans-65" transform="translate(63.476562 0)"/>
     <use xlink:href="#DejaVuSans-6e" transform="translate(125 0)"/>
     <use xlink:href="#DejaVuSans-76" transform="translate(188.378906 0)"/>
     <use xlink:href="#DejaVuSans-6f" transform="translate(247.558594 0)"/>
     <use xlink:href="#DejaVuSans-6c" transform="translate(308.740234 0)"/>
     <use xlink:href="#DejaVuSans-69" transform="translate(336.523438 0)"/>
     <use xlink:href="#DejaVuSans-6f" transform="translate(364.306641 0)"/>
    </g>
   </g>
   <g id="text_38">
    <!-- capulet -->
    <g transform="translate(414.773773 393.319334) scale(0.1 -0.1)">
     <use xlink:href="#DejaVuSans-63"/>
     <use xlink:href="#DejaVuSans-61" transform="translate(54.980469 0)"/>
     <use xlink:href="#DejaVuSans-70" transform="translate(116.259766 0)"/>
     <use xlink:href="#DejaVuSans-75" transform="translate(179.736328 0)"/>
     <use xlink:href="#DejaVuSans-6c" transform="translate(243.115234 0)"/>
     <use xlink:href="#DejaVuSans-65" transform="translate(270.898438 0)"/>
     <use xlink:href="#DejaVuSans-74" transform="translate(332.421875 0)"/>
    </g>
   </g>
   <g id="text_39">
    <!-- laertes -->
    <g transform="translate(382.86412 506.523649) scale(0.1 -0.1)">
     <use xlink:href="#DejaVuSans-6c"/>
     <use xlink:href="#DejaVuSans-61" transform="translate(27.783203 0)"/>
     <use xlink:href="#DejaVuSans-65" transform="translate(89.0625 0)"/>
     <use xlink:href="#DejaVuSans-72" transform="translate(150.585938 0)"/>
     <use xlink:href="#DejaVuSans-74" transform="translate(191.699219 0)"/>
     <use xlink:href="#DejaVuSans-65" transform="translate(230.908203 0)"/>
     <use xlink:href="#DejaVuSans-73" transform="translate(292.431641 0)"/>
    </g>
   </g>
   <g id="text_40">
    <!-- seyton -->
    <g transform="translate(393.116509 412.595587) scale(0.1 -0.1)">
     <use xlink:href="#DejaVuSans-73"/>
     <use xlink:href="#DejaVuSans-65" transform="translate(52.099609 0)"/>
     <use xlink:href="#DejaVuSans-79" transform="translate(113.623047 0)"/>
     <use xlink:href="#DejaVuSans-74" transform="translate(172.802734 0)"/>
     <use xlink:href="#DejaVuSans-6f" transform="translate(212.011719 0)"/>
     <use xlink:href="#DejaVuSans-6e" transform="translate(273.193359 0)"/>
    </g>
   </g>
   <g id="text_41">
    <!-- montague -->
    <g transform="translate(421.525035 411.061254) scale(0.1 -0.1)">
     <use xlink:href="#DejaVuSans-6d"/>
     <use xlink:href="#DejaVuSans-6f" transform="translate(97.412109 0)"/>
     <use xlink:href="#DejaVuSans-6e" transform="translate(158.59375 0)"/>
     <use xlink:href="#DejaVuSans-74" transform="translate(221.972656 0)"/>
     <use xlink:href="#DejaVuSans-61" transform="translate(261.181641 0)"/>
     <use xlink:href="#DejaVuSans-67" transform="translate(322.460938 0)"/>
     <use xlink:href="#DejaVuSans-75" transform="translate(385.9375 0)"/>
     <use xlink:href="#DejaVuSans-65" transform="translate(449.316406 0)"/>
    </g>
   </g>
   <g id="text_42">
    <!-- malcolm -->
    <g transform="translate(304.027754 276.670926) scale(0.1 -0.1)">
     <use xlink:href="#DejaVuSans-6d"/>
     <use xlink:href="#DejaVuSans-61" transform="translate(97.412109 0)"/>
     <use xlink:href="#DejaVuSans-6c" transform="translate(158.691406 0)"/>
     <use xlink:href="#DejaVuSans-63" transform="translate(186.474609 0)"/>
     <use xlink:href="#DejaVuSans-6f" transform="translate(241.455078 0)"/>
     <use xlink:href="#DejaVuSans-6c" transform="translate(302.636719 0)"/>
     <use xlink:href="#DejaVuSans-6d" transform="translate(330.419922 0)"/>
    </g>
   </g>
   <g id="text_43">
    <!-- polonius -->
    <g transform="translate(211.2153 490.10174) scale(0.1 -0.1)">
     <use xlink:href="#DejaVuSans-70"/>
     <use xlink:href="#DejaVuSans-6f" transform="translate(63.476562 0)"/>
     <use xlink:href="#DejaVuSans-6c" transform="translate(124.658203 0)"/>
     <use xlink:href="#DejaVuSans-6f" transform="translate(152.441406 0)"/>
     <use xlink:href="#DejaVuSans-6e" transform="translate(213.623047 0)"/>
     <use xlink:href="#DejaVuSans-69" transform="translate(277.001953 0)"/>
     <use xlink:href="#DejaVuSans-75" transform="translate(304.785156 0)"/>
     <use xlink:href="#DejaVuSans-73" transform="translate(368.164062 0)"/>
    </g>
   </g>
   <g id="text_44">
    <!-- romeo -->
    <g transform="translate(402.392527 359.411633) scale(0.1 -0.1)">
     <use xlink:href="#DejaVuSans-72"/>
     <use xlink:href="#DejaVuSans-6f" transform="translate(38.863281 0)"/>
     <use xlink:href="#DejaVuSans-6d" transform="translate(100.044922 0)"/>
     <use xlink:href="#DejaVuSans-65" transform="translate(197.457031 0)"/>
     <use xlink:href="#DejaVuSans-6f" transform="translate(258.980469 0)"/>
    </g>
   </g>
   <g id="text_45">
    <!-- juliet -->
    <g transform="translate(406.02754 370.465578) scale(0.1 -0.1)">
     <defs>
      <path id="DejaVuSans-6a" d="M 603 3500 
L 1178 3500 
L 1178 -63 
Q 1178 -731 923 -1031 
Q 669 -1331 103 -1331 
L -116 -1331 
L -116 -844 
L 38 -844 
Q 366 -844 484 -692 
Q 603 -541 603 -63 
L 603 3500 
z
M 603 4863 
L 1178 4863 
L 1178 4134 
L 603 4134 
L 603 4863 
z
" transform="scale(0.015625)"/>
     </defs>
     <use xlink:href="#DejaVuSans-6a"/>
     <use xlink:href="#DejaVuSans-75" transform="translate(27.783203 0)"/>
     <use xlink:href="#DejaVuSans-6c" transform="translate(91.162109 0)"/>
     <use xlink:href="#DejaVuSans-69" transform="translate(118.945312 0)"/>
     <use xlink:href="#DejaVuSans-65" transform="translate(146.728516 0)"/>
     <use xlink:href="#DejaVuSans-74" transform="translate(208.251953 0)"/>
    </g>
   </g>
   <g id="text_46">
    <!-- Component 1 Variance: 0.48 -->
    <g transform="translate(119.52 114.12) scale(0.1 -0.1)">
     <defs>
      <path id="DejaVuSans-56" d="M 1831 0 
L 50 4666 
L 709 4666 
L 2188 738 
L 3669 4666 
L 4325 4666 
L 2547 0 
L 1831 0 
z
" transform="scale(0.015625)"/>
      <path id="DejaVuSans-3a" d="M 750 794 
L 1409 794 
L 1409 0 
L 750 0 
L 750 794 
z
M 750 3309 
L 1409 3309 
L 1409 2516 
L 750 2516 
L 750 3309 
z
" transform="scale(0.015625)"/>
      <path id="DejaVuSans-2e" d="M 684 794 
L 1344 794 
L 1344 0 
L 684 0 
L 684 794 
z
" transform="scale(0.015625)"/>
      <path id="DejaVuSans-38" d="M 2034 2216 
Q 1584 2216 1326 1975 
Q 1069 1734 1069 1313 
Q 1069 891 1326 650 
Q 1584 409 2034 409 
Q 2484 409 2743 651 
Q 3003 894 3003 1313 
Q 3003 1734 2745 1975 
Q 2488 2216 2034 2216 
z
M 1403 2484 
Q 997 2584 770 2862 
Q 544 3141 544 3541 
Q 544 4100 942 4425 
Q 1341 4750 2034 4750 
Q 2731 4750 3128 4425 
Q 3525 4100 3525 3541 
Q 3525 3141 3298 2862 
Q 3072 2584 2669 2484 
Q 3125 2378 3379 2068 
Q 3634 1759 3634 1313 
Q 3634 634 3220 271 
Q 2806 -91 2034 -91 
Q 1263 -91 848 271 
Q 434 634 434 1313 
Q 434 1759 690 2068 
Q 947 2378 1403 2484 
z
M 1172 3481 
Q 1172 3119 1398 2916 
Q 1625 2713 2034 2713 
Q 2441 2713 2670 2916 
Q 2900 3119 2900 3481 
Q 2900 3844 2670 4047 
Q 2441 4250 2034 4250 
Q 1625 4250 1398 4047 
Q 1172 3844 1172 3481 
z
" transform="scale(0.015625)"/>
     </defs>
     <use xlink:href="#DejaVuSans-43"/>
     <use xlink:href="#DejaVuSans-6f" transform="translate(69.824219 0)"/>
     <use xlink:href="#DejaVuSans-6d" transform="translate(131.005859 0)"/>
     <use xlink:href="#DejaVuSans-70" transform="translate(228.417969 0)"/>
     <use xlink:href="#DejaVuSans-6f" transform="translate(291.894531 0)"/>
     <use xlink:href="#DejaVuSans-6e" transform="translate(353.076172 0)"/>
     <use xlink:href="#DejaVuSans-65" transform="translate(416.455078 0)"/>
     <use xlink:href="#DejaVuSans-6e" transform="translate(477.978516 0)"/>
     <use xlink:href="#DejaVuSans-74" transform="translate(541.357422 0)"/>
     <use xlink:href="#DejaVuSans-20" transform="translate(580.566406 0)"/>
     <use xlink:href="#DejaVuSans-31" transform="translate(612.353516 0)"/>
     <use xlink:href="#DejaVuSans-20" transform="translate(675.976562 0)"/>
     <use xlink:href="#DejaVuSans-56" transform="translate(707.763672 0)"/>
     <use xlink:href="#DejaVuSans-61" transform="translate(768.421875 0)"/>
     <use xlink:href="#DejaVuSans-72" transform="translate(829.701172 0)"/>
     <use xlink:href="#DejaVuSans-69" transform="translate(870.814453 0)"/>
     <use xlink:href="#DejaVuSans-61" transform="translate(898.597656 0)"/>
     <use xlink:href="#DejaVuSans-6e" transform="translate(959.876953 0)"/>
     <use xlink:href="#DejaVuSans-63" transform="translate(1023.255859 0)"/>
     <use xlink:href="#DejaVuSans-65" transform="translate(1078.236328 0)"/>
     <use xlink:href="#DejaVuSans-3a" transform="translate(1139.759766 0)"/>
     <use xlink:href="#DejaVuSans-20" transform="translate(1173.451172 0)"/>
     <use xlink:href="#DejaVuSans-30" transform="translate(1205.238281 0)"/>
     <use xlink:href="#DejaVuSans-2e" transform="translate(1268.861328 0)"/>
     <use xlink:href="#DejaVuSans-34" transform="translate(1300.648438 0)"/>
     <use xlink:href="#DejaVuSans-38" transform="translate(1364.271484 0)"/>
    </g>
   </g>
   <g id="text_47">
    <!-- Component 2 Variance: 0.35 -->
    <g transform="translate(119.52 141.84) scale(0.1 -0.1)">
     <defs>
      <path id="DejaVuSans-35" d="M 691 4666 
L 3169 4666 
L 3169 4134 
L 1269 4134 
L 1269 2991 
Q 1406 3038 1543 3061 
Q 1681 3084 1819 3084 
Q 2600 3084 3056 2656 
Q 3513 2228 3513 1497 
Q 3513 744 3044 326 
Q 2575 -91 1722 -91 
Q 1428 -91 1123 -41 
Q 819 9 494 109 
L 494 744 
Q 775 591 1075 516 
Q 1375 441 1709 441 
Q 2250 441 2565 725 
Q 2881 1009 2881 1497 
Q 2881 1984 2565 2268 
Q 2250 2553 1709 2553 
Q 1456 2553 1204 2497 
Q 953 2441 691 2322 
L 691 4666 
z
" transform="scale(0.015625)"/>
     </defs>
     <use xlink:href="#DejaVuSans-43"/>
     <use xlink:href="#DejaVuSans-6f" transform="translate(69.824219 0)"/>
     <use xlink:href="#DejaVuSans-6d" transform="translate(131.005859 0)"/>
     <use xlink:href="#DejaVuSans-70" transform="translate(228.417969 0)"/>
     <use xlink:href="#DejaVuSans-6f" transform="translate(291.894531 0)"/>
     <use xlink:href="#DejaVuSans-6e" transform="translate(353.076172 0)"/>
     <use xlink:href="#DejaVuSans-65" transform="translate(416.455078 0)"/>
     <use xlink:href="#DejaVuSans-6e" transform="translate(477.978516 0)"/>
     <use xlink:href="#DejaVuSans-74" transform="translate(541.357422 0)"/>
     <use xlink:href="#DejaVuSans-20" transform="translate(580.566406 0)"/>
     <use xlink:href="#DejaVuSans-32" transform="translate(612.353516 0)"/>
     <use xlink:href="#DejaVuSans-20" transform="translate(675.976562 0)"/>
     <use xlink:href="#DejaVuSans-56" transform="translate(707.763672 0)"/>
     <use xlink:href="#DejaVuSans-61" transform="translate(768.421875 0)"/>
     <use xlink:href="#DejaVuSans-72" transform="translate(829.701172 0)"/>
     <use xlink:href="#DejaVuSans-69" transform="translate(870.814453 0)"/>
     <use xlink:href="#DejaVuSans-61" transform="translate(898.597656 0)"/>
     <use xlink:href="#DejaVuSans-6e" transform="translate(959.876953 0)"/>
     <use xlink:href="#DejaVuSans-63" transform="translate(1023.255859 0)"/>
     <use xlink:href="#DejaVuSans-65" transform="translate(1078.236328 0)"/>
     <use xlink:href="#DejaVuSans-3a" transform="translate(1139.759766 0)"/>
     <use xlink:href="#DejaVuSans-20" transform="translate(1173.451172 0)"/>
     <use xlink:href="#DejaVuSans-30" transform="translate(1205.238281 0)"/>
     <use xlink:href="#DejaVuSans-2e" transform="translate(1268.861328 0)"/>
     <use xlink:href="#DejaVuSans-33" transform="translate(1300.648438 0)"/>
     <use xlink:href="#DejaVuSans-35" transform="translate(1364.271484 0)"/>
    </g>
   </g>
   <g id="text_48">
    <!-- Component 3 Variance: 0.17 -->
    <g transform="translate(119.52 169.56) scale(0.1 -0.1)">
     <defs>
      <path id="DejaVuSans-37" d="M 525 4666 
L 3525 4666 
L 3525 4397 
L 1831 0 
L 1172 0 
L 2766 4134 
L 525 4134 
L 525 4666 
z
" transform="scale(0.015625)"/>
     </defs>
     <use xlink:href="#DejaVuSans-43"/>
     <use xlink:href="#DejaVuSans-6f" transform="translate(69.824219 0)"/>
     <use xlink:href="#DejaVuSans-6d" transform="translate(131.005859 0)"/>
     <use xlink:href="#DejaVuSans-70" transform="translate(228.417969 0)"/>
     <use xlink:href="#DejaVuSans-6f" transform="translate(291.894531 0)"/>
     <use xlink:href="#DejaVuSans-6e" transform="translate(353.076172 0)"/>
     <use xlink:href="#DejaVuSans-65" transform="translate(416.455078 0)"/>
     <use xlink:href="#DejaVuSans-6e" transform="translate(477.978516 0)"/>
     <use xlink:href="#DejaVuSans-74" transform="translate(541.357422 0)"/>
     <use xlink:href="#DejaVuSans-20" transform="translate(580.566406 0)"/>
     <use xlink:href="#DejaVuSans-33" transform="translate(612.353516 0)"/>
     <use xlink:href="#DejaVuSans-20" transform="translate(675.976562 0)"/>
     <use xlink:href="#DejaVuSans-56" transform="translate(707.763672 0)"/>
     <use xlink:href="#DejaVuSans-61" transform="translate(768.421875 0)"/>
     <use xlink:href="#DejaVuSans-72" transform="translate(829.701172 0)"/>
     <use xlink:href="#DejaVuSans-69" transform="translate(870.814453 0)"/>
     <use xlink:href="#DejaVuSans-61" transform="translate(898.597656 0)"/>
     <use xlink:href="#DejaVuSans-6e" transform="translate(959.876953 0)"/>
     <use xlink:href="#DejaVuSans-63" transform="translate(1023.255859 0)"/>
     <use xlink:href="#DejaVuSans-65" transform="translate(1078.236328 0)"/>
     <use xlink:href="#DejaVuSans-3a" transform="translate(1139.759766 0)"/>
     <use xlink:href="#DejaVuSans-20" transform="translate(1173.451172 0)"/>
     <use xlink:href="#DejaVuSans-30" transform="translate(1205.238281 0)"/>
     <use xlink:href="#DejaVuSans-2e" transform="translate(1268.861328 0)"/>
     <use xlink:href="#DejaVuSans-31" transform="translate(1300.648438 0)"/>
     <use xlink:href="#DejaVuSans-37" transform="translate(1364.271484 0)"/>
    </g>
   </g>
   <g id="text_49">
    <!-- Visualization of Word Embeddings -->
    <g transform="translate(267.021563 80.4) scale(0.12 -0.12)">
     <defs>
      <path id="DejaVuSans-7a" d="M 353 3500 
L 3084 3500 
L 3084 2975 
L 922 459 
L 3084 459 
L 3084 0 
L 275 0 
L 275 525 
L 2438 3041 
L 353 3041 
L 353 3500 
z
" transform="scale(0.015625)"/>
      <path id="DejaVuSans-66" d="M 2375 4863 
L 2375 4384 
L 1825 4384 
Q 1516 4384 1395 4259 
Q 1275 4134 1275 3809 
L 1275 3500 
L 2222 3500 
L 2222 3053 
L 1275 3053 
L 1275 0 
L 697 0 
L 697 3053 
L 147 3053 
L 147 3500 
L 697 3500 
L 697 3744 
Q 697 4328 969 4595 
Q 1241 4863 1831 4863 
L 2375 4863 
z
" transform="scale(0.015625)"/>
      <path id="DejaVuSans-57" d="M 213 4666 
L 850 4666 
L 1831 722 
L 2809 4666 
L 3519 4666 
L 4500 722 
L 5478 4666 
L 6119 4666 
L 4947 0 
L 4153 0 
L 3169 4050 
L 2175 0 
L 1381 0 
L 213 4666 
z
" transform="scale(0.015625)"/>
      <path id="DejaVuSans-45" d="M 628 4666 
L 3578 4666 
L 3578 4134 
L 1259 4134 
L 1259 2753 
L 3481 2753 
L 3481 2222 
L 1259 2222 
L 1259 531 
L 3634 531 
L 3634 0 
L 628 0 
L 628 4666 
z
" transform="scale(0.015625)"/>
     </defs>
     <use xlink:href="#DejaVuSans-56"/>
     <use xlink:href="#DejaVuSans-69" transform="translate(66.158203 0)"/>
     <use xlink:href="#DejaVuSans-73" transform="translate(93.941406 0)"/>
     <use xlink:href="#DejaVuSans-75" transform="translate(146.041016 0)"/>
     <use xlink:href="#DejaVuSans-61" transform="translate(209.419922 0)"/>
     <use xlink:href="#DejaVuSans-6c" transform="translate(270.699219 0)"/>
     <use xlink:href="#DejaVuSans-69" transform="translate(298.482422 0)"/>
     <use xlink:href="#DejaVuSans-7a" transform="translate(326.265625 0)"/>
     <use xlink:href="#DejaVuSans-61" transform="translate(378.755859 0)"/>
     <use xlink:href="#DejaVuSans-74" transform="translate(440.035156 0)"/>
     <use xlink:href="#DejaVuSans-69" transform="translate(479.244141 0)"/>
     <use xlink:href="#DejaVuSans-6f" transform="translate(507.027344 0)"/>
     <use xlink:href="#DejaVuSans-6e" transform="translate(568.208984 0)"/>
     <use xlink:href="#DejaVuSans-20" transform="translate(631.587891 0)"/>
     <use xlink:href="#DejaVuSans-6f" transform="translate(663.375 0)"/>
     <use xlink:href="#DejaVuSans-66" transform="translate(724.556641 0)"/>
     <use xlink:href="#DejaVuSans-20" transform="translate(759.761719 0)"/>
     <use xlink:href="#DejaVuSans-57" transform="translate(791.548828 0)"/>
     <use xlink:href="#DejaVuSans-6f" transform="translate(884.550781 0)"/>
     <use xlink:href="#DejaVuSans-72" transform="translate(945.732422 0)"/>
     <use xlink:href="#DejaVuSans-64" transform="translate(985.095703 0)"/>
     <use xlink:href="#DejaVuSans-20" transform="translate(1048.572266 0)"/>
     <use xlink:href="#DejaVuSans-45" transform="translate(1080.359375 0)"/>
     <use xlink:href="#DejaVuSans-6d" transform="translate(1143.542969 0)"/>
     <use xlink:href="#DejaVuSans-62" transform="translate(1240.955078 0)"/>
     <use xlink:href="#DejaVuSans-65" transform="translate(1304.431641 0)"/>
     <use xlink:href="#DejaVuSans-64" transform="translate(1365.955078 0)"/>
     <use xlink:href="#DejaVuSans-64" transform="translate(1429.431641 0)"/>
     <use xlink:href="#DejaVuSans-69" transform="translate(1492.908203 0)"/>
     <use xlink:href="#DejaVuSans-6e" transform="translate(1520.691406 0)"/>
     <use xlink:href="#DejaVuSans-67" transform="translate(1584.070312 0)"/>
     <use xlink:href="#DejaVuSans-73" transform="translate(1647.546875 0)"/>
    </g>
   </g>
   <g id="Path3DCollection_2">
    <defs>
     <path id="C1_0_42e5d442a3" d="M 0 5 
C 1.326016 5 2.597899 4.473168 3.535534 3.535534 
C 4.473168 2.597899 5 1.326016 5 -0 
C 5 -1.326016 4.473168 -2.597899 3.535534 -3.535534 
C 2.597899 -4.473168 1.326016 -5 0 -5 
C -1.326016 -5 -2.597899 -4.473168 -3.535534 -3.535534 
C -4.473168 -2.597899 -5 -1.326016 -5 0 
C -5 1.326016 -4.473168 2.597899 -3.535534 3.535534 
C -2.597899 4.473168 -1.326016 5 0 5 
z
"/>
    </defs>
    <g clip-path="url(#pd0d3876599)">
     <use xlink:href="#C1_0_42e5d442a3" x="211.2153" y="490.10174" style="fill: #2ca02c; fill-opacity: 0.3; stroke: #2ca02c; stroke-opacity: 0.3"/>
    </g>
    <g clip-path="url(#pd0d3876599)">
     <use xlink:href="#C1_0_42e5d442a3" x="258.194141" y="495.183688" style="fill: #2ca02c; fill-opacity: 0.546133; stroke: #2ca02c; stroke-opacity: 0.546133"/>
    </g>
    <g clip-path="url(#pd0d3876599)">
     <use xlink:href="#C1_0_42e5d442a3" x="304.027754" y="276.670926" style="fill: #2ca02c; fill-opacity: 0.675209; stroke: #2ca02c; stroke-opacity: 0.675209"/>
    </g>
    <g clip-path="url(#pd0d3876599)">
     <use xlink:href="#C1_0_42e5d442a3" x="315.032642" y="293.373904" style="fill: #2ca02c; fill-opacity: 0.741273; stroke: #2ca02c; stroke-opacity: 0.741273"/>
    </g>
    <g clip-path="url(#pd0d3876599)">
     <use xlink:href="#C1_0_42e5d442a3" x="351.090468" y="503.814274" style="fill: #2ca02c; stroke: #2ca02c"/>
    </g>
   </g>
   <g id="Path3DCollection_3">
    <defs>
     <path id="C2_0_3020cd90cc" d="M 0 5 
C 1.326016 5 2.597899 4.473168 3.535534 3.535534 
C 4.473168 2.597899 5 1.326016 5 -0 
C 5 -1.326016 4.473168 -2.597899 3.535534 -3.535534 
C 2.597899 -4.473168 1.326016 -5 0 -5 
C -1.326016 -5 -2.597899 -4.473168 -3.535534 -3.535534 
C -4.473168 -2.597899 -5 -1.326016 -5 0 
C -5 1.326016 -4.473168 2.597899 -3.535534 3.535534 
C -2.597899 4.473168 -1.326016 5 0 5 
z
"/>
    </defs>
    <g clip-path="url(#pd0d3876599)">
     <use xlink:href="#C2_0_3020cd90cc" x="164.473911" y="485.323642" style="fill: #1f77b4; fill-opacity: 0.3; stroke: #1f77b4; stroke-opacity: 0.3"/>
    </g>
    <g clip-path="url(#pd0d3876599)">
     <use xlink:href="#C2_0_3020cd90cc" x="205.10789" y="489.524182" style="fill: #1f77b4; fill-opacity: 0.430985; stroke: #1f77b4; stroke-opacity: 0.430985"/>
    </g>
    <g clip-path="url(#pd0d3876599)">
     <use xlink:href="#C2_0_3020cd90cc" x="221.818502" y="491.143863" style="fill: #1f77b4; fill-opacity: 0.483755; stroke: #1f77b4; stroke-opacity: 0.483755"/>
    </g>
    <g clip-path="url(#pd0d3876599)">
     <use xlink:href="#C2_0_3020cd90cc" x="229.771028" y="492.032942" style="fill: #1f77b4; fill-opacity: 0.510872; stroke: #1f77b4; stroke-opacity: 0.510872"/>
    </g>
    <g clip-path="url(#pd0d3876599)">
     <use xlink:href="#C2_0_3020cd90cc" x="382.86412" y="506.523649" style="fill: #1f77b4; stroke: #1f77b4"/>
    </g>
   </g>
   <g id="Path3DCollection_4">
    <defs>
     <path id="C3_0_a5e245f625" d="M 0 5 
C 1.326016 5 2.597899 4.473168 3.535534 3.535534 
C 4.473168 2.597899 5 1.326016 5 -0 
C 5 -1.326016 4.473168 -2.597899 3.535534 -3.535534 
C 2.597899 -4.473168 1.326016 -5 0 -5 
C -1.326016 -5 -2.597899 -4.473168 -3.535534 -3.535534 
C -4.473168 -2.597899 -5 -1.326016 -5 0 
C -5 1.326016 -4.473168 2.597899 -3.535534 3.535534 
C -2.597899 4.473168 -1.326016 5 0 5 
z
"/>
    </defs>
    <g clip-path="url(#pd0d3876599)">
     <use xlink:href="#C3_0_a5e245f625" x="402.392527" y="359.411633" style="fill: #8c564b; fill-opacity: 0.3; stroke: #8c564b; stroke-opacity: 0.3"/>
    </g>
    <g clip-path="url(#pd0d3876599)">
     <use xlink:href="#C3_0_a5e245f625" x="414.902745" y="393.655282" style="fill: #8c564b; fill-opacity: 0.476655; stroke: #8c564b; stroke-opacity: 0.476655"/>
    </g>
    <g clip-path="url(#pd0d3876599)">
     <use xlink:href="#C3_0_a5e245f625" x="279.547458" y="238.034085" style="fill: #8c564b; fill-opacity: 0.854099; stroke: #8c564b; stroke-opacity: 0.854099"/>
    </g>
    <g clip-path="url(#pd0d3876599)">
     <use xlink:href="#C3_0_a5e245f625" x="383.302388" y="396.774287" style="fill: #8c564b; fill-opacity: 0.986815; stroke: #8c564b; stroke-opacity: 0.986815"/>
    </g>
    <g clip-path="url(#pd0d3876599)">
     <use xlink:href="#C3_0_a5e245f625" x="393.116509" y="412.595587" style="fill: #8c564b; stroke: #8c564b"/>
    </g>
   </g>
   <g id="Path3DCollection_5">
    <defs>
     <path id="C4_0_b9e6053aaf" d="M 0 5 
C 1.326016 5 2.597899 4.473168 3.535534 3.535534 
C 4.473168 2.597899 5 1.326016 5 -0 
C 5 -1.326016 4.473168 -2.597899 3.535534 -3.535534 
C 2.597899 -4.473168 1.326016 -5 0 -5 
C -1.326016 -5 -2.597899 -4.473168 -3.535534 -3.535534 
C -4.473168 -2.597899 -5 -1.326016 -5 0 
C -5 1.326016 -4.473168 2.597899 -3.535534 3.535534 
C -2.597899 4.473168 -1.326016 5 0 5 
z
"/>
    </defs>
    <g clip-path="url(#pd0d3876599)">
     <use xlink:href="#C4_0_b9e6053aaf" x="403.456005" y="362.301386" style="fill: #7f7f7f; fill-opacity: 0.3; stroke: #7f7f7f; stroke-opacity: 0.3"/>
    </g>
    <g clip-path="url(#pd0d3876599)">
     <use xlink:href="#C4_0_b9e6053aaf" x="421.525035" y="411.061254" style="fill: #7f7f7f; fill-opacity: 0.525919; stroke: #7f7f7f; stroke-opacity: 0.525919"/>
    </g>
    <g clip-path="url(#pd0d3876599)">
     <use xlink:href="#C4_0_b9e6053aaf" x="447.375602" y="481.291717" style="fill: #7f7f7f; fill-opacity: 0.853267; stroke: #7f7f7f; stroke-opacity: 0.853267"/>
    </g>
    <g clip-path="url(#pd0d3876599)">
     <use xlink:href="#C4_0_b9e6053aaf" x="459.415743" y="513.004063" style="fill: #7f7f7f; stroke: #7f7f7f"/>
    </g>
   </g>
  </g>
 </g>
 <defs>
  <clipPath id="pd0d3876599">
   <rect x="91.8" y="86.4" width="554.4" height="554.4"/>
  </clipPath>
 </defs>
</svg>
